<svg xmlns="http://www.w3.org/2000/svg" width="28" height="28" viewBox="0 0 28 28">
  <g id="accounting_portal" transform="translate(7594 10825)">
    <rect id="Rectangle_3138" data-name="Rectangle 3138" width="28" height="28" transform="translate(-7594 -10825)" fill="none"/>
    <g id="accounting_portal-2" data-name="accounting_portal" transform="translate(-6606.917 -10861.344)">
      <path id="Path_57965" data-name="Path 57965" d="M-967.974,357.252c-.091,1-.314,1.283-1.106,1.44a3.926,3.926,0,0,1,.248.649,1.1,1.1,0,0,1-.337,1.021c-.2.207-.409.414-.617.617a1.173,1.173,0,0,1-1.621.092l-.058-.041a1.154,1.154,0,0,1-.665,1.023,1.284,1.284,0,0,1-.478.115c-.347.017-.7.011-1.044,0a1.165,1.165,0,0,1-1.094-1.03c0-.034-.005-.068-.01-.123a1.225,1.225,0,0,1-.664.317,1.125,1.125,0,0,1-.97-.315c-.221-.212-.435-.432-.651-.649a1.169,1.169,0,0,1-.1-1.607c.015-.019.027-.04.05-.073a1.193,1.193,0,0,1-.907-.464,1.35,1.35,0,0,1-.233-.986h-3.817c-.32,0-.454-.16-.441-.479.026-.643.031-1.287.061-1.929a11.845,11.845,0,0,1,.329-2.495,4.627,4.627,0,0,1,2.115-2.779,13.858,13.858,0,0,1,2.789-1.291c.332-.119.667-.227,1-.343a.526.526,0,0,1,.5.07,4.517,4.517,0,0,0,4.419.419c.281-.115.529-.305.8-.441a.575.575,0,0,1,.364-.069,15.557,15.557,0,0,1,3.38,1.282,5.326,5.326,0,0,1,2.064,1.849,5.5,5.5,0,0,1,.7,2.029,19.494,19.494,0,0,1,.205,2.652c.009.353.018.705.031,1.058.012.325-.125.468-.451.468l-3.646,0C-967.874,357.245-967.919,357.249-967.974,357.252Zm3.461-.764c0-.216.011-.419,0-.619-.052-.833-.091-1.668-.174-2.5a4.59,4.59,0,0,0-.574-1.844,4.519,4.519,0,0,0-1.866-1.694,14.425,14.425,0,0,0-2.941-1.131.277.277,0,0,0-.2.038,5.3,5.3,0,0,1-2.477.8,5.3,5.3,0,0,1-3.222-.807.229.229,0,0,0-.169-.027,18.1,18.1,0,0,0-2.8,1.117A5.722,5.722,0,0,0-980.547,351a4.07,4.07,0,0,0-.993,2.389c-.091.829-.122,1.665-.173,2.5-.012.2,0,.4,0,.6h3.468A1.206,1.206,0,0,1-977.1,355.4l-.052-.071a1.169,1.169,0,0,1,.1-1.594c.213-.213.424-.427.638-.64a1.173,1.173,0,0,1,1.537-.108c.036.027.072.051.114.081a1.155,1.155,0,0,1,1.072-1.135,7.152,7.152,0,0,1,1.151,0,1.069,1.069,0,0,1,.939.648,3.851,3.851,0,0,1,.151.477c.034-.026.07-.055.107-.082a1.175,1.175,0,0,1,1.478.083c.251.241.5.486.738.739a1.113,1.113,0,0,1,.3.9,1.272,1.272,0,0,1-.305.7,1.226,1.226,0,0,1,1.155,1.1Zm-8.6,4.931h.4a.424.424,0,0,0,.477-.466c0-.27.007-.54,0-.81a.383.383,0,0,1,.222-.393.391.391,0,0,1,.453.108c.2.194.388.391.585.583a.417.417,0,0,0,.644,0c.2-.2.4-.4.6-.595a.413.413,0,0,0,.008-.653c-.2-.2-.394-.4-.594-.6a.373.373,0,0,1-.1-.441.366.366,0,0,1,.375-.224q.421.005.841,0a.417.417,0,0,0,.453-.458c0-.275,0-.55,0-.826a.423.423,0,0,0-.478-.479c-.28,0-.561,0-.841,0a.362.362,0,0,1-.36-.248.375.375,0,0,1,.111-.424q.295-.29.584-.584a.42.42,0,0,0,0-.655c-.189-.193-.382-.382-.572-.573a.426.426,0,0,0-.688-.011c-.2.192-.391.387-.584.584a.363.363,0,0,1-.426.095.36.36,0,0,1-.231-.369c0-.275,0-.551,0-.826a.433.433,0,0,0-.487-.477q-.42,0-.841,0a.413.413,0,0,0-.442.452c0,.275,0,.55,0,.826a.374.374,0,0,1-.241.4.385.385,0,0,1-.438-.113c-.185-.189-.374-.375-.561-.562a.422.422,0,0,0-.677-.012c-.2.192-.391.387-.584.583a.422.422,0,0,0,0,.667c.2.2.4.4.594.6a.362.362,0,0,1,.09.414.344.344,0,0,1-.335.233c-.3.005-.592.008-.888.011a.417.417,0,0,0-.454.455c0,.27,0,.54,0,.81a.438.438,0,0,0,.5.5c.265,0,.53,0,.795,0a.376.376,0,0,1,.393.246.382.382,0,0,1-.12.435q-.3.288-.585.583a.413.413,0,0,0,0,.633q.306.311.617.617a.415.415,0,0,0,.632,0c.193-.189.387-.377.572-.574a.394.394,0,0,1,.462-.128.383.383,0,0,1,.235.4c0,.275,0,.551,0,.826a.42.42,0,0,0,.45.445C-973.4,361.42-973.254,361.419-973.109,361.419Z" transform="translate(0 -299.706)" fill="#353c40"/>
      <path id="Path_57966" data-name="Path 57966" d="M-831.245,43.514a4.975,4.975,0,0,1-4.772,4.984,4.973,4.973,0,0,1-5.184-4.947,4.99,4.99,0,0,1,4.991-5.008A4.989,4.989,0,0,1-831.245,43.514Zm-.756.014a4.235,4.235,0,0,0-4.141-4.225,4.231,4.231,0,0,0-4.3,4.219,4.242,4.242,0,0,0,4.206,4.227A4.231,4.231,0,0,0-832,43.528Z" transform="translate(-136.89)" fill="#353c40"/>
      <path id="Path_57967" data-name="Path 57967" d="M-744.962,574.379a2.048,2.048,0,0,1-2.093-1.94,2.047,2.047,0,0,1,1.984-2.145,2.048,2.048,0,0,1,2.1,1.935A2.035,2.035,0,0,1-744.962,574.379Zm-.034-3.323a1.286,1.286,0,0,0-1.3,1.269,1.286,1.286,0,0,0,1.262,1.3,1.288,1.288,0,0,0,1.313-1.261A1.287,1.287,0,0,0-745,571.056Z" transform="translate(-228.1 -515.176)" fill="#353c40"/>
    </g>
  </g>
</svg>
