<svg xmlns="http://www.w3.org/2000/svg" width="13.942" height="13.795" viewBox="0 0 13.942 13.795">
  <g id="all_modules" transform="translate(-49.92 -52.167)">
    <g id="Group_3" data-name="Group 3" transform="translate(50.17 52.417)">
      <g id="Group_2" data-name="Group 2" transform="translate(0 0)">
        <g id="Group_1" data-name="Group 1">
          <path id="Path_1" data-name="Path 1" d="M54.246,52.417H52.433A2.265,2.265,0,0,0,50.17,54.68v.793a.245.245,0,0,0,.489,0V54.68a1.776,1.776,0,0,1,1.774-1.774h1.813a1.776,1.776,0,0,1,1.774,1.774v2.756a.831.831,0,0,1-.83.83H52.433a1.776,1.776,0,0,1-1.77-1.66.245.245,0,1,0-.488.031,2.266,2.266,0,0,0,2.258,2.118h2.756a1.321,1.321,0,0,0,1.32-1.32V54.68A2.265,2.265,0,0,0,54.246,52.417Z" transform="translate(-50.17 -52.417)" fill="#0196fd" stroke="#0196fd" stroke-width="0.5"/>
          <path id="Path_2" data-name="Path 2" d="M271.786,52.417h-1.813a2.265,2.265,0,0,0-2.263,2.263v2.756a1.321,1.321,0,0,0,1.32,1.32h2.756a2.265,2.265,0,0,0,2.263-2.263V54.68A2.265,2.265,0,0,0,271.786,52.417Zm1.774,4.076a1.776,1.776,0,0,1-1.774,1.774H269.03a.831.831,0,0,1-.83-.83V54.68a1.776,1.776,0,0,1,1.774-1.774h1.813a1.776,1.776,0,0,1,1.774,1.774Z" transform="translate(-260.607 -52.417)" fill="#0196fd" stroke="#0196fd" stroke-width="0.5"/>
          <path id="Path_3" data-name="Path 3" d="M55.189,265.462H52.433a2.265,2.265,0,0,0-2.263,2.263v1.813a2.265,2.265,0,0,0,2.263,2.263h1.813a2.265,2.265,0,0,0,2.263-2.263v-2.756A1.321,1.321,0,0,0,55.189,265.462Zm.83,4.076a1.776,1.776,0,0,1-1.774,1.774H52.433a1.776,1.776,0,0,1-1.774-1.774v-1.813a1.776,1.776,0,0,1,1.774-1.774h2.756a.831.831,0,0,1,.83.83v2.756Z" transform="translate(-50.17 -258.505)" fill="#0196fd" stroke="#0196fd" stroke-width="0.5"/>
          <path id="Path_4" data-name="Path 4" d="M271.3,265.895a3.13,3.13,0,0,0-1.3.281.245.245,0,0,0,.2.445,2.669,2.669,0,1,1-.842.6.245.245,0,0,0-.357-.335,3.155,3.155,0,1,0,2.3-1Z" transform="translate(-261.026 -258.924)" fill="#0196fd" stroke="#0196fd" stroke-width="0.5"/>
        </g>
      </g>
    </g>
  </g>
</svg>
