<?xml version="1.0" encoding="utf-8"?>
<!-- Generator: Adobe Illustrator 25.4.1, SVG Export Plug-In . SVG Version: 6.00 Build 0)  -->
<svg version="1.1" id="Layer_1" xmlns="http://www.w3.org/2000/svg" xmlns:xlink="http://www.w3.org/1999/xlink" x="0px" y="0px"
	 viewBox="0 0 50.5 50.5" style="enable-background:new 0 0 50.5 50.5;" xml:space="preserve">
<style type="text/css">
	.st0{fill:#606060;}
</style>
<g>
	<path class="st0" d="M18.1,2.7c0,1.3,0,2.6,0,3.9c-0.1,1-1,1.9-2,2c-1.2,0.1-2.4,0-3.6,0.1c-0.1,0-0.2,0-0.2-0.1
		c0-0.1,0-0.1,0.1-0.2c0.1-0.1,0.1-0.1,0.2-0.2C14.3,6.4,16,4.7,17.7,3C17.8,2.9,17.9,2.7,18.1,2.7z"/>
	<path class="st0" d="M19.4,13.9c0-0.6,0-1.1,0-1.7c0-0.5,0.3-0.8,0.7-0.8c0.4,0,0.7,0.3,0.7,0.8c0,1,0,2,0,3.1c0,0.6,0.4,1,0.9,1
		c0.6,0,1-0.4,1-1c0-1,0-2.1,0-3.1c0-0.7,0.6-1,1.1-0.7c0.2,0.2,0.3,0.4,0.3,0.7c0,1.2,0,2.3,0,3.5c-0.1,1.3-1.2,2.2-2.6,2.1
		c-1.3-0.1-2.3-1.1-2.3-2.4C19.4,14.9,19.4,14.4,19.4,13.9C19.4,13.9,19.4,13.9,19.4,13.9z"/>
	<path class="st0" d="M35,15.1c0-0.6,0-1.2,0-1.7c0-0.4-0.1-0.5-0.5-0.6c-0.6,0-0.9-0.3-0.9-0.7c0-0.4,0.3-0.7,0.9-0.7
		c0.8,0,1.6,0,2.4,0c0.5,0,0.8,0.3,0.8,0.7c0,0.5-0.3,0.7-0.8,0.8c-0.4,0-0.5,0.2-0.5,0.5c0,1.1,0,2.1,0,3.2c0,0.2,0,0.4,0,0.6
		c-0.1,0.4-0.3,0.6-0.7,0.6c-0.4,0-0.7-0.3-0.7-0.7C34.9,16.4,35,15.8,35,15.1C35,15.1,35,15.1,35,15.1z"/>
	<path class="st0" d="M31,14.5c0-0.8,0-1.5,0-2.3c0-0.6,0.3-0.9,0.7-0.9c0.4,0,0.7,0.3,0.7,0.9c0,1.6,0,3.1,0,4.7
		c0,0.5-0.3,0.9-0.8,0.8c-0.4,0-0.7-0.3-0.7-0.9C31,16.1,31,15.3,31,14.5z"/>
	<path class="st0" d="M29.3,12.2c-0.4-0.4-0.8-0.7-1.4-0.8c-0.6-0.1-1.2-0.1-1.8-0.1c-0.6,0-0.9,0.3-0.9,0.9c0,0.8,0,1.5,0,2.3
		c0,0,0,0,0,0c0,0.8,0,1.6,0,2.4c0,0.6,0.3,0.8,0.8,0.8c0.5,0,1,0,1.4,0c0.7,0,1.2-0.3,1.7-0.8C30.4,15.8,30.4,13.4,29.3,12.2z
		 M28.5,15.5c-0.1,0.3-0.4,0.6-0.7,0.7c-0.7,0.2-1,0.1-1-0.7c0-0.3,0-0.7,0-1c0-0.4,0-0.9,0-1.3c0-0.3,0.1-0.4,0.5-0.4
		c0.7,0,1.1,0.3,1.3,0.9C28.7,14.3,28.7,14.9,28.5,15.5z"/>
	<path class="st0" d="M18.8,16.9c0-0.1-0.1-0.2-0.1-0.3c-0.5-1.5-1.1-2.9-1.6-4.4c-0.2-0.4-0.4-0.7-0.9-0.8c-0.5,0-0.7,0.3-0.9,0.8
		c-0.5,1.5-1.1,2.9-1.7,4.4c0,0.1-0.1,0.2-0.1,0.4c-0.1,0.4,0.1,0.6,0.4,0.8c0.4,0.2,0.6,0,0.9-0.3c0.1-0.1,0.2-0.3,0.2-0.5
		c0.1-0.3,0.3-0.4,0.6-0.4c0.2,0,0.4,0,0.7,0c0.6-0.1,1,0.1,1.2,0.8c0.1,0.4,0.5,0.5,0.9,0.4C18.7,17.6,18.8,17.3,18.8,16.9z
		 M16.4,15c-0.1,0.1-0.4,0.1-0.5,0c-0.2-0.3,0.1-0.5,0.2-0.8C16.3,14.5,16.5,14.7,16.4,15z"/>
	<path class="st0" d="M50.4,12.2c0-0.7-0.1-1.5-0.6-2.1c-0.5-0.5-1-1.1-1.7-1.4c-0.4-0.2-0.6-0.4-0.8-0.8c-0.4-0.9-1.1-1.6-2-2.1
		c-0.4-0.2-0.7-0.5-0.9-1c-0.4-0.8-1-1.5-1.8-1.9c-0.5-0.3-0.9-0.6-1.1-1.2c-0.5-0.9-1.1-1.6-2.2-1.8c-0.3-0.1-0.6,0-0.9-0.1
		c-6.2,0-12.5,0-18.7,0c-1,0.1-1.9,0.4-2.7,1.2c-2.1,2.1-4.3,4.2-6.4,6.4C9.8,8.5,9.3,9.7,9.3,11c0,4.5,0,8.9,0,13.4
		c0,0.7-0.1,1.4-0.4,2c-0.5,1.2-0.8,2.5-0.8,3.9c-0.1,2.1,0.4,4.1,1.3,5.9c0.4,0.7,0.1,1.3-0.7,1.6c-0.2,0-0.3,0.1-0.5,0.1
		c-1-0.1-1.7,0.4-2.4,1c-1.6,1.6-3.1,3.2-4.7,4.7c-0.9,0.8-1.2,1.7-1,2.9c0.1,0.5,0.2,0.9,0.6,1.2c0.6,0.6,1.2,1.2,1.8,1.8
		c0.5,0.6,1.1,1,1.8,1c0.3,0,0.7,0,1,0c0.8,0,1.4-0.4,1.9-1c0.2-0.2,0.4-0.4,0.6-0.6c0.5-0.5,1-1,1.4-1.5c0.5-0.6,0.2-1.4-0.5-1.6
		c-0.4-0.1-0.7,0.1-1,0.4c-0.7,0.7-1.4,1.5-2.2,2.2c-0.5,0.5-1,0.5-1.5,0c-0.6-0.5-1.1-1.1-1.6-1.6c-0.5-0.6-0.5-1,0-1.5
		c1.6-1.7,3.3-3.3,4.9-4.9c0.5-0.5,1-0.5,1.6,0c0.5,0.5,1.1,1,1.6,1.6c0.5,0.6,0.5,1,0,1.6c-0.2,0.2-0.5,0.4-0.6,0.7
		C9.6,44.5,9.7,45,10,45.3c0.3,0.3,0.8,0.4,1.2,0.1c0.7-0.5,1.3-1.1,1.6-1.9c0.2-0.4,0.1-0.8,0.2-1.3c0.1-1,0.8-1.4,1.6-1
		c0.8,0.4,1.7,0.7,2.6,1c0.6,0.1,0.9,0.5,1.2,1c0.8,1.5,2,2.3,3.7,2.3c4,0,7.9,0,11.9,0c4.2,0,8.4,0,12.6,0c1.9,0,3.5-1.4,3.8-3.2
		c0.1-0.4,0-0.8,0-1.2C50.5,31.6,50.4,21.9,50.4,12.2z M41.7,32.5c0-9,0-18.1,0-27.1c0-0.2-0.1-0.6,0.1-0.7C42,4.7,42.2,5,42.4,5.1
		c0.5,0.5,0.7,1.1,0.7,1.8c0,2.8,0,5.6,0,8.4c0,2,0,3.9,0,5.9c0,4.8,0,9.5,0,14.3c0,1-0.3,1.7-1.2,2.2c-0.4,0.2-0.8,0.3-1.3,0.3
		c-3.6,0-7.3,0-10.9,0c-0.1,0-0.3,0.1-0.4-0.1c-0.1-0.2,0.1-0.3,0.2-0.4c0.3-0.8,1-1,1.8-1c2.1,0.1,4.1,0,6.2,0
		C40.1,36.7,41.7,35.1,41.7,32.5z M11,12c0-1.3,0.6-1.9,1.9-1.9c0.9,0,1.8,0,2.7,0c2.5,0,4-1.6,4-4.1c0-0.9,0-1.9,0-2.8
		c0-1.2,0.6-1.8,1.8-1.8c5.4,0,10.8,0,16.2,0c1.5,0,2.5,1,2.5,2.5c0,9.6,0,19.1,0,28.7c0,1.5-1,2.5-2.5,2.5c-2.1,0-4.2,0-6.3,0
		c-0.5,0-0.5,0-0.4-0.6c1.4-4.4,0.7-8.3-2.4-11.8c-4.4-5-12.3-5.1-17-0.3c-0.2,0.2-0.4,0.4-0.6,0.6C11,22.9,11,22.7,11,22.5
		C11,19,11,15.5,11,12z M11.8,40.5c-0.2,0.1-0.3-0.1-0.4-0.2c-0.3-0.3-0.6-0.6-0.9-0.9c-0.5-0.5,0-0.6,0.2-0.9
		c0.2-0.3,0.4-0.2,0.7,0.1c0.3,0.3,0.6,0.6,0.9,0.9c0.1,0.1,0.2,0.1,0.2,0.3C12.3,40.1,12.1,40.3,11.8,40.5z M9.9,30.7
		c0-5.6,4.6-10.2,10.2-10.2c5.7,0,10.2,4.6,10.2,10.3c0,5.6-4.6,10.2-10.2,10.2C14.4,40.9,9.8,36.3,9.9,30.7z M48.9,41.3
		c0,0.3,0,0.6-0.1,0.8c-0.2,1-1.1,1.8-2.1,1.8c-0.2,0-0.3,0-0.5,0c-7.9,0-15.9,0-23.8,0c-0.8,0-1.4-0.2-2-0.7
		c-0.2-0.2-0.4-0.3-0.3-0.6c0.1-0.3,0.4-0.1,0.6-0.1c7.4,0,14.9,0,22.3,0c0.5,0,1,0,1.5-0.1c1.7-0.4,2.9-1.9,3-3.8
		c0-1.2,0-2.5,0-3.7c0-5.7,0-11.4,0-17.1c0-0.2,0-0.5,0-0.7c-0.1-0.4-0.3-0.6-0.7-0.6c-0.4,0-0.6,0.3-0.7,0.6c0,0.2,0,0.5,0,0.7
		c0,6.7,0,13.3,0,20c0,0.2,0,0.4,0,0.6c0,1.5-1,2.5-2.5,2.5c-1.2,0-2.5,0-3.7,0c-4.4,0-8.8,0-13.2,0c-0.2,0-0.4,0.1-0.7-0.1
		c0.6-0.4,1.2-0.9,1.8-1.3c0.2-0.1,0.4-0.1,0.6-0.1c4.1,0,8.2,0,12.4,0c1.9,0,3.4-1.2,3.8-3.1c0.1-0.4,0.1-0.9,0.1-1.3
		c0-9,0-17.9,0-26.9c0-0.2-0.1-0.6,0.1-0.7c0.2-0.1,0.4,0.2,0.6,0.4C45.8,8.5,46,9.2,46,9.9c0,1.4,0,2.9,0,4.3c0,0.6,0.4,1,0.9,0.9
		c0.4-0.1,0.6-0.4,0.6-0.8c0-1,0-2,0-3.1c0-0.2-0.1-0.4,0.1-0.5c0.2-0.1,0.4,0.1,0.5,0.3c0.5,0.4,0.7,1,0.8,1.6c0,0.2,0,0.3,0,0.5
		C48.9,22.4,48.9,31.8,48.9,41.3z"/>
</g>
<path class="st0" d="M20.1,22.2c-4.7,0-8.4,3.8-8.4,8.5c0,4.7,3.7,8.5,8.4,8.5c4.7,0,8.5-3.8,8.5-8.5C28.6,26.1,24.7,22.2,20.1,22.2
	z M24.8,29.5c-1.1,2-2.2,4-3.4,6c-0.9,1.5-2.8,1.7-3.9,0.3c-0.9-1.1-1.7-2.2-2.5-3.3c-0.8-1.1-0.7-2.5,0.4-3.3
	c1-0.8,2.4-0.6,3.2,0.5c0.5,0.6,0.5,0.6,0.8-0.1c0.5-0.8,0.9-1.7,1.4-2.5c0.5-0.9,1.6-1.3,2.6-1c1,0.3,1.6,1.2,1.7,2.3
	C25.2,28.7,25,29.1,24.8,29.5z"/>
</svg>
