<svg xmlns="http://www.w3.org/2000/svg" width="317" height="350.061" viewBox="0 0 317 350.061">
  <g id="bg_customer" transform="translate(-1007 -232.502)">
    <ellipse id="Ellipse_170" data-name="Ellipse 170" cx="133.177" cy="133.176" rx="133.177" ry="133.176" transform="translate(1007 316.211)" fill="#ffd1d2" opacity="0.2"/>
    <path id="Path_58044" data-name="Path 58044" d="M-7603.126-16735.562v182.744l5.719,6.568h28.464l14.921,3.09h125.289v-192.4Z" transform="translate(8682.058 17021.354)" fill="#fff"/>
    <path id="Path_57971" data-name="Path 57971" d="M-18600.922-22459h-25.2l3.934,113.693,6.027,11.7,154.656-2.443,10.984-9.252V-22459Z" transform="translate(19768.656 22812.404)" fill="#fff"/>
    <g id="shopping-bags-svgrepo-com" transform="translate(1073.13 232.502)" opacity="0.2">
      <g id="Group_25445" data-name="Group 25445" transform="translate(0 0)">
        <g id="Group_25444" data-name="Group 25444">
          <path id="Path_57967" data-name="Path 57967" d="M246.954,302.676a12.544,12.544,0,1,0-16.725,11.774v9.132a41.811,41.811,0,0,0,83.623,0v-9.132a12.543,12.543,0,1,0-8.362,0v9.132a33.45,33.45,0,0,1-66.9,0v-9.132A12.521,12.521,0,0,0,246.954,302.676Zm62.717-4.181a4.181,4.181,0,0,1,0,8.362h-.008a4.181,4.181,0,0,1,0-8.362Zm-75.257,8.363h-.009a4.181,4.181,0,1,1,.009,0Z" transform="translate(-113.157 -147.975)" fill="#d4d7de"/>
          <path id="Path_57968" data-name="Path 57968" d="M80.81,100.348A12.513,12.513,0,0,0,84.991,76.03V58.537h71.08a4.181,4.181,0,0,0,0-8.362H84.991a41.812,41.812,0,0,1,83.623,0V76.031a12.543,12.543,0,1,0,8.363,0V58.537h33.45V104.53a4.181,4.181,0,1,0,8.362,0v-50c0-.029-.017-.054-.017-.088s.017-.054.017-.084a4.18,4.18,0,0,0-4.181-4.181H176.977a50.174,50.174,0,0,0-100.348,0V76.031a12.513,12.513,0,0,0,4.181,24.317ZM172.8,83.624a4.181,4.181,0,1,1-4.181,4.181A4.188,4.188,0,0,1,172.8,83.624Zm-91.986,0A4.181,4.181,0,1,1,76.629,87.8,4.188,4.188,0,0,1,80.81,83.624Z" transform="translate(-34.817 -0.001)" fill="#d4d7de"/>
          <path id="Path_57969" data-name="Path 57969" d="M58.537,294.733H20.906A12.559,12.559,0,0,1,8.363,282.19V252.922H54.356a4.181,4.181,0,1,0,0-8.362H8.363v-133.8H29.1a4.181,4.181,0,1,0,0-8.362H4.181A4.18,4.18,0,0,0,0,106.582V282.19A20.932,20.932,0,0,0,20.906,303.1H58.537a4.181,4.181,0,0,0,0-8.362Z" transform="translate(0 -52.227)" fill="#d4d7de"/>
          <path id="Path_57970" data-name="Path 57970" d="M319.18,240.263a4.134,4.134,0,0,0-3.027-1.33H157.44a4.181,4.181,0,1,0,0,8.362h154.7V351.824A12.559,12.559,0,0,1,299.6,364.367H157.44A12.559,12.559,0,0,1,144.9,351.824V243.115a4.181,4.181,0,1,0-8.362,0v108.71A20.932,20.932,0,0,0,157.44,372.73H299.6a20.933,20.933,0,0,0,20.906-20.906V243.286A4.138,4.138,0,0,0,319.18,240.263Z" transform="translate(-69.635 -121.862)" fill="#d4d7de"/>
        </g>
      </g>
    </g>
  </g>
</svg>
