<svg xmlns="http://www.w3.org/2000/svg" width="44.001" height="44.001" viewBox="0 0 44.001 44.001">
  <g id="c_portal_white" transform="translate(-242 -38.999)">
    <path id="Path_57971" data-name="Path 57971" d="M-18621.691-22459h-4.418l.688,19.941,1.059,2.051,27.125-.426,1.926-1.625V-22459Z" transform="translate(18880.281 22519.205)" fill="#049451"/>
    <g id="shopping-bags-svgrepo-com" transform="translate(242 38.999)">
      <g id="Group_25445" data-name="Group 25445" transform="translate(0 0)">
        <g id="Group_25444" data-name="Group 25444">
          <path id="Path_57967" data-name="Path 57967" d="M226.267,292.333a2.2,2.2,0,1,0-2.933,2.065V296A7.333,7.333,0,0,0,238,296v-1.6a2.2,2.2,0,1,0-1.467,0V296a5.867,5.867,0,0,1-11.734,0v-1.6A2.2,2.2,0,0,0,226.267,292.333Zm11-.733a.733.733,0,0,1,0,1.467h0a.733.733,0,0,1,0-1.467Zm-13.2,1.467h0a.733.733,0,1,1,.734-.733A.735.735,0,0,1,224.066,293.067Z" transform="translate(-202.8 -265.199)" fill="#fff"/>
          <path id="Path_57968" data-name="Path 57968" d="M70.466,17.6a2.195,2.195,0,0,0,.733-4.265V10.268H83.666a.733.733,0,0,0,0-1.467H71.2a7.333,7.333,0,1,1,14.667,0v4.535a2.2,2.2,0,1,0,1.467,0V10.268H93.2v8.067a.733.733,0,1,0,1.467,0V9.565c0-.005,0-.01,0-.015s0-.01,0-.015a.733.733,0,0,0-.733-.733h-6.6a8.8,8.8,0,0,0-17.6,0v4.535a2.195,2.195,0,0,0,.733,4.265ZM86.6,14.668a.733.733,0,1,1-.733.733A.734.734,0,0,1,86.6,14.668Zm-16.134,0a.733.733,0,1,1-.733.733A.734.734,0,0,1,70.466,14.668Z" transform="translate(-62.399 -0.001)" fill="#fff"/>
          <path id="Path_57969" data-name="Path 57969" d="M10.267,136.135h-6.6a2.2,2.2,0,0,1-2.2-2.2V128.8H9.534a.733.733,0,0,0,0-1.467H1.467V103.868H5.1a.733.733,0,0,0,0-1.467H.733a.733.733,0,0,0-.733.733v30.8A3.671,3.671,0,0,0,3.667,137.6h6.6a.733.733,0,0,0,0-1.467Z" transform="translate(0 -93.601)" fill="#fff"/>
          <path id="Path_57970" data-name="Path 57970" d="M168.569,239.166a.725.725,0,0,0-.531-.233H140.2a.733.733,0,0,0,0,1.467h27.134v18.334a2.2,2.2,0,0,1-2.2,2.2H140.2a2.2,2.2,0,0,1-2.2-2.2V239.666a.733.733,0,0,0-1.467,0v19.067A3.671,3.671,0,0,0,140.2,262.4h24.934a3.672,3.672,0,0,0,3.667-3.667V239.7A.726.726,0,0,0,168.569,239.166Z" transform="translate(-124.8 -218.399)" fill="#fff"/>
        </g>
      </g>
    </g>
  </g>
</svg>
