<svg xmlns="http://www.w3.org/2000/svg" width="28" height="28" viewBox="0 0 28 28">
  <g id="c_portal_dark" transform="translate(7671 10825)">
    <rect id="Rectangle_3136" data-name="Rectangle 3136" width="28" height="28" transform="translate(-7671 -10825)" fill="none"/>
    <g id="c_portal_dark-2" data-name="c_portal_dark" transform="translate(-7909 -10859.999)">
      <path id="Path_57971" data-name="Path 57971" d="M-18624.072-22459h-2.037l.316,9.2.488.949,12.514-.2.887-.75v-9.2Z" transform="translate(18873.725 22507.783)" fill="#fff"/>
      <g id="shopping-bags-svgrepo-com" transform="translate(242 38.999)">
        <g id="Group_25445" data-name="Group 25445" transform="translate(0 0)">
          <g id="Group_25444" data-name="Group 25444">
            <path id="Path_57967" data-name="Path 57967" d="M223.9,291.148a1.015,1.015,0,1,0-1.353.953v.739a3.383,3.383,0,0,0,6.766,0V292.1a1.015,1.015,0,1,0-.677,0v.739a2.707,2.707,0,1,1-5.413,0V292.1A1.013,1.013,0,0,0,223.9,291.148Zm5.075-.338a.338.338,0,0,1,0,.677h0a.338.338,0,0,1,0-.677Zm-6.089.677h0a.338.338,0,1,1,.339-.338A.339.339,0,0,1,222.882,291.486Z" transform="translate(-213.071 -278.63)" fill="#353c40"/>
            <path id="Path_57968" data-name="Path 57968" d="M69.281,8.12a1.012,1.012,0,0,0,.338-1.968V4.737h5.751a.338.338,0,0,0,0-.677H69.619a3.383,3.383,0,1,1,6.766,0V6.153a1.015,1.015,0,1,0,.677,0V4.737h2.707V8.459a.338.338,0,1,0,.677,0V4.413s0,0,0-.007,0,0,0-.007a.338.338,0,0,0-.338-.338H77.062a4.06,4.06,0,1,0-8.12,0V6.153a1.012,1.012,0,0,0,.338,1.968Zm7.443-1.353a.338.338,0,1,1-.338.338A.339.339,0,0,1,76.724,6.767Zm-7.443,0a.338.338,0,1,1-.338.338A.339.339,0,0,1,69.281,6.767Z" transform="translate(-65.56 -0.001)" fill="#353c40"/>
            <path id="Path_57969" data-name="Path 57969" d="M4.736,117.963H1.692a1.016,1.016,0,0,1-1.015-1.015V114.58H4.4a.338.338,0,0,0,0-.677H.677V103.078H2.354a.338.338,0,1,0,0-.677H.338a.338.338,0,0,0-.338.338v14.209a1.694,1.694,0,0,0,1.692,1.692H4.736a.338.338,0,0,0,0-.677Z" transform="translate(0 -98.341)" fill="#353c40"/>
            <path id="Path_57970" data-name="Path 57970" d="M151.313,239.041a.334.334,0,0,0-.245-.108H138.226a.338.338,0,1,0,0,.677h12.518v8.458a1.016,1.016,0,0,1-1.015,1.015h-11.5a1.016,1.016,0,0,1-1.015-1.015v-8.8a.338.338,0,0,0-.677,0v8.8a1.694,1.694,0,0,0,1.692,1.692h11.5a1.694,1.694,0,0,0,1.692-1.692v-8.782A.335.335,0,0,0,151.313,239.041Z" transform="translate(-131.121 -229.46)" fill="#353c40"/>
          </g>
        </g>
      </g>
    </g>
  </g>
</svg>
