<svg xmlns="http://www.w3.org/2000/svg" width="24.901" height="24.901" viewBox="0 0 24.901 24.901">
  <g id="c_portal" transform="translate(-242 -38.999)">
    <path id="Path_57971" data-name="Path 57971" d="M-18623.609-22459h-2.5l.391,11.285.6,1.162,15.352-.242,1.09-.92V-22459Z" transform="translate(18875 22510)" fill="#ffd1d2"/>
    <g id="shopping-bags-svgrepo-com" transform="translate(242 38.998)">
      <g id="Group_25445" data-name="Group 25445" transform="translate(0 0.001)">
        <g id="Group_25444" data-name="Group 25444">
          <path id="Path_57967" data-name="Path 57967" d="M224.357,291.378a1.245,1.245,0,1,0-1.66,1.169v.906a4.15,4.15,0,1,0,8.3,0v-.906a1.245,1.245,0,1,0-.83,0v.906a3.32,3.32,0,0,1-6.64,0v-.906A1.243,1.243,0,0,0,224.357,291.378Zm6.225-.415a.415.415,0,0,1,0,.83h0a.415.415,0,0,1,0-.83Zm-7.47.83h0a.415.415,0,1,1,.415-.415A.416.416,0,0,1,223.112,291.793Z" transform="translate(-211.076 -276.022)" fill="#ed1c24"/>
          <path id="Path_57968" data-name="Path 57968" d="M69.511,9.961a1.242,1.242,0,0,0,.415-2.414V5.811h7.055a.415.415,0,0,0,0-.83H69.926a4.15,4.15,0,1,1,8.3,0V7.548a1.245,1.245,0,1,0,.83,0V5.811h3.32v4.565a.415.415,0,1,0,.83,0V5.413s0-.005,0-.009,0-.005,0-.008a.415.415,0,0,0-.415-.415H79.057a4.98,4.98,0,0,0-9.961,0V7.548a1.242,1.242,0,0,0,.415,2.414Zm9.13-1.66a.415.415,0,1,1-.415.415A.416.416,0,0,1,78.642,8.3Zm-9.13,0a.415.415,0,1,1-.415.415A.416.416,0,0,1,69.511,8.3Z" transform="translate(-64.946 -0.001)" fill="#ed1c24"/>
          <path id="Path_57969" data-name="Path 57969" d="M5.81,121.492H2.075A1.247,1.247,0,0,1,.83,120.247v-2.905H5.4a.415.415,0,0,0,0-.83H.83V103.231H2.888a.415.415,0,0,0,0-.83H.415a.415.415,0,0,0-.415.415v17.431a2.078,2.078,0,0,0,2.075,2.075H5.81a.415.415,0,0,0,0-.83Z" transform="translate(0 -97.421)" fill="#ed1c24"/>
          <path id="Path_57970" data-name="Path 57970" d="M154.663,239.065a.41.41,0,0,0-.3-.132H138.609a.415.415,0,0,0,0,.83h15.356v10.376a1.247,1.247,0,0,1-1.245,1.245H138.609a1.247,1.247,0,0,1-1.245-1.245V239.348a.415.415,0,0,0-.83,0v10.791a2.078,2.078,0,0,0,2.075,2.075H152.72a2.078,2.078,0,0,0,2.075-2.075V239.365A.411.411,0,0,0,154.663,239.065Z" transform="translate(-129.894 -227.312)" fill="#ed1c24"/>
        </g>
      </g>
    </g>
  </g>
</svg>
