<svg id="calendar" xmlns="http://www.w3.org/2000/svg" width="16.25" height="18.009" viewBox="0 0 16.25 18.009">
  <path id="Path_6422" data-name="Path 6422" d="M198.253,379.5a.264.264,0,0,0-.264.264v3.078a.792.792,0,0,1-.791.791h-8.934a.264.264,0,0,0,0,.528H197.2a1.32,1.32,0,0,0,1.319-1.319v-3.078A.264.264,0,0,0,198.253,379.5Z" transform="translate(-182.267 -366.152)" fill="#353c40"/>
  <path id="Path_6423" data-name="Path 6423" d="M39.931,1.759H38.788V.616A.616.616,0,0,0,38.173,0H37.117A.616.616,0,0,0,36.5.616V1.759H29.748V.616A.616.616,0,0,0,29.133,0H28.078a.616.616,0,0,0-.616.616V1.759H26.319A1.32,1.32,0,0,0,25,3.078V16.69a1.32,1.32,0,0,0,1.319,1.319h3.447a.264.264,0,0,0,0-.528H26.319a.792.792,0,0,1-.791-.791V5.8H35.57a.264.264,0,1,0,0-.528H25.528v-2.2a.792.792,0,0,1,.791-.791h1.143V3.429a.616.616,0,0,0,.616.616h1.055a.616.616,0,0,0,.616-.616V2.286H36.5V3.429a.616.616,0,0,0,.616.616h1.055a.616.616,0,0,0,.616-.616V2.286h1.143a.792.792,0,0,1,.791.791v2.2H36.8a.264.264,0,1,0,0,.528h3.922v6.577a.264.264,0,0,0,.528,0v-9.3A1.32,1.32,0,0,0,39.931,1.759ZM29.221,3.429a.088.088,0,0,1-.088.088H28.078a.088.088,0,0,1-.088-.088V.616a.088.088,0,0,1,.088-.088h1.055a.088.088,0,0,1,.088.088Zm9.04,0a.088.088,0,0,1-.088.088H37.117a.088.088,0,0,1-.088-.088V.616a.088.088,0,0,1,.088-.088h1.055a.088.088,0,0,1,.088.088Z" transform="translate(-25)" fill="#353c40"/>
  <path id="Path_6424" data-name="Path 6424" d="M102.907,217.914h2.42a.533.533,0,0,0,.533-.533v-7.53a.533.533,0,0,0-.533-.533h-10.3a.533.533,0,0,0-.533.533v7.53a.533.533,0,0,0,.533.533h7.875Zm-7.881-5.378h2.162V214.7H95.027Zm2.689,0h2.2V214.7h-2.2Zm7.617,2.162h-2.162v-2.162h2.162Zm-2.689,0h-2.2v-2.162h2.2Zm-2.2.528h2.2v2.162h-2.2Zm4.889,2.156a.005.005,0,0,1-.005.005h-2.156v-2.162h2.162Zm0-7.53v2.156h-2.162v-2.162h2.156A.005.005,0,0,1,105.333,209.852Zm-2.689,2.156h-2.2v-2.162h2.2Zm-2.728,0h-2.2v-2.162h2.2Zm-4.889-2.156a.005.005,0,0,1,.005-.005h2.156v2.162H95.027Zm0,7.53v-2.156h2.162v2.162H95.032A.005.005,0,0,1,95.027,217.381Zm2.689-2.156h2.2v2.162h-2.2Z" transform="translate(-92.054 -201.957)" fill="#353c40"/>
</svg>
