<svg xmlns="http://www.w3.org/2000/svg" width="27.563" height="20.672" viewBox="0 0 27.563 20.672">
  <path id="card" d="M25.266,3a2.3,2.3,0,0,1,2.3,2.3V21.375a2.3,2.3,0,0,1-2.3,2.3H2.3a2.3,2.3,0,0,1-2.3-2.3V5.3A2.3,2.3,0,0,1,2.3,3Zm1.148,9.188H1.148v9.188A1.149,1.149,0,0,0,2.3,22.524H25.266a1.149,1.149,0,0,0,1.148-1.148ZM9.188,17.93v1.148H3.445V17.93Zm14.93-2.3v1.148H20.672V15.633Zm-11.485,0v1.148H3.445V15.633ZM1.148,8.742v2.3H26.415v-2.3ZM26.415,7.594V5.3a1.149,1.149,0,0,0-1.148-1.148H2.3A1.149,1.149,0,0,0,1.148,5.3v2.3Z" transform="translate(0 -3)" fill="#353c40" fill-rule="evenodd"/>
</svg>
