<svg id="cash_memo" xmlns="http://www.w3.org/2000/svg" width="26.687" height="29.661" viewBox="0 0 26.687 29.661">
  <path id="Path_80" data-name="Path 80" d="M5.988,29.173V7.427A1.483,1.483,0,0,1,7.471,5.945H8.954v.988H8.459a.988.988,0,0,0-.988.988V28.678a.988.988,0,0,0,.988.988H20.314v-.988H8.459V7.922h.494A1.483,1.483,0,0,0,10.436,9.4H21.309a1.483,1.483,0,0,0,1.483-1.483h.494V16.3h.988V7.922a.988.988,0,0,0-.988-.988h-.494V5.945h1.483a1.483,1.483,0,0,1,1.483,1.483V16.3h.988V7.427a2.474,2.474,0,0,0-2.471-2.471H22.792a.494.494,0,0,0-.494-.494H16.97a1.483,1.483,0,1,0-2.194,0H9.448a.494.494,0,0,0-.494.494H7.471A2.474,2.474,0,0,0,5,7.427V29.173a2.474,2.474,0,0,0,2.471,2.471h16.8v-.988H7.471A1.483,1.483,0,0,1,5.988,29.173ZM15.873,2.979a.494.494,0,1,1-.494.494A.494.494,0,0,1,15.873,2.979ZM9.942,5.45H21.8V7.922a.494.494,0,0,1-.494.494H10.436a.494.494,0,0,1-.494-.494Z" transform="translate(-5 -1.982)" fill="#0196fd"/>
  <path id="Path_81" data-name="Path 81" d="M39.425,33a6.425,6.425,0,1,0,6.425,6.425A6.425,6.425,0,0,0,39.425,33Zm0,11.861a5.436,5.436,0,1,1,5.436-5.436,5.436,5.436,0,0,1-5.436,5.436Z" transform="translate(-19.162 -17.671)" fill="#0196fd"/>
  <path id="Path_82" data-name="Path 82" d="M44.919,39H38.988a.988.988,0,0,0-.988.988v4.942a.988.988,0,0,0,.988.988h5.931a.988.988,0,0,0,.988-.988V39.988A.988.988,0,0,0,44.919,39Zm0,1.977H43.436v-.988h1.483Zm-2.471-.988v1.977h-.988V39.988Zm-1.977,0v.988H38.988v-.988Zm-1.483,4.942V41.965h1.483v.494a.494.494,0,0,0,.494.494h1.977a.494.494,0,0,0,.494-.494v-.494h1.483v2.965Z" transform="translate(-21.691 -20.705)" fill="#0196fd"/>
  <path id="Path_83" data-name="Path 83" d="M20.942,23.965h-.988v.988H16.988V21.988h2.471V21H16.494a.494.494,0,0,0-.494.494v3.954a.494.494,0,0,0,.494.494h3.954a.494.494,0,0,0,.494-.494Z" transform="translate(-10.564 -11.601)" fill="#0196fd"/>
  <path id="Path_84" data-name="Path 84" d="M20.448,35H16.494a.494.494,0,0,0-.494.494v3.954a.494.494,0,0,0,.494.494h3.954a.494.494,0,0,0,.494-.494V35.494A.494.494,0,0,0,20.448,35Zm-.494,3.954H16.988V35.988h2.965Z" transform="translate(-10.564 -18.682)" fill="#0196fd"/>
  <path id="Path_85" data-name="Path 85" d="M22.247,21.293l-2.122,2.122-1.133-1.133-.7.7,1.483,1.483a.494.494,0,0,0,.7,0l2.471-2.471Z" transform="translate(-11.723 -11.749)" fill="#0196fd"/>
  <rect id="Rectangle_44" data-name="Rectangle 44" width="3.954" height="0.988" transform="translate(12.355 12.858)" fill="#0196fd"/>
  <rect id="Rectangle_45" data-name="Rectangle 45" width="3.954" height="0.988" transform="translate(12.355 10.881)" fill="#0196fd"/>
</svg>
