<svg xmlns="http://www.w3.org/2000/svg" width="19.301" height="22.467" viewBox="0 0 19.301 22.467">
  <g id="cash" transform="translate(-15.35 -13.767)">
    <path id="Path_58023" data-name="Path 58023" d="M198.132,160.635a.173.173,0,0,0-.128-.05h-.844a1.921,1.921,0,0,0-.356-.8h1.189a.171.171,0,0,0,.178-.178v-.567a.171.171,0,0,0-.178-.178H193.58a.171.171,0,0,0-.178.178v.739a.18.18,0,0,0,.178.178h.7q1.173,0,1.49.628H193.58a.172.172,0,0,0-.178.178v.567a.171.171,0,0,0,.178.178h2.267a1.086,1.086,0,0,1-.57.695,2.508,2.508,0,0,1-1.181.239h-.517a.18.18,0,0,0-.178.178v.583a.332.332,0,0,0,.08.216l2.31,2.793a.164.164,0,0,0,.139.067h1.084a.161.161,0,0,0,.161-.1.151.151,0,0,0-.022-.189c-1.082-1.326-1.61-1.91-2.229-2.569a2.819,2.819,0,0,0,1.534-.611,2.079,2.079,0,0,0,.717-1.3H198a.172.172,0,0,0,.178-.178v-.567a.173.173,0,0,0-.05-.128Z" transform="translate(-170.792 -133.64)" fill="#353c40"/>
    <path id="Path_58024" data-name="Path 58024" d="M52.089,12.831a16.067,16.067,0,0,0-2.429-3.9,18.1,18.1,0,0,0-3.111-2.957L48.931,1.56a.553.553,0,0,0-.1-.663,2.792,2.792,0,0,0-2-.9,4.7,4.7,0,0,0-1.812.476,3.43,3.43,0,0,1-1.14.341.71.71,0,0,1-.266-.047A8.3,8.3,0,0,0,40.818.112a3.786,3.786,0,0,0-2.812,1.317.564.564,0,0,0-.065.7L40.51,6.011a18.4,18.4,0,0,0-3.069,2.924,16.212,16.212,0,0,0-2.429,3.9A13.245,13.245,0,0,0,33.9,18.118a4.356,4.356,0,0,0,4.349,4.349h10.6A4.356,4.356,0,0,0,53.2,18.118,13.245,13.245,0,0,0,52.089,12.831ZM39.136,1.9a2.444,2.444,0,0,1,1.682-.673,7.279,7.279,0,0,1,2.406.593,1.9,1.9,0,0,0,.649.112A4.138,4.138,0,0,0,45.442,1.5a3.788,3.788,0,0,1,1.383-.392,1.483,1.483,0,0,1,.9.308L45.484,5.586h-3.9Zm9.716,19.449h-10.6a3.231,3.231,0,0,1-3.228-3.228,13.06,13.06,0,0,1,3.256-8.44,17.146,17.146,0,0,1,3.172-2.971h4.195a16.823,16.823,0,0,1,3.172,2.971,13.026,13.026,0,0,1,3.256,8.44A3.217,3.217,0,0,1,48.852,21.346Z" transform="translate(-18.55 13.767)" fill="#353c40"/>
  </g>
</svg>
