<svg xmlns="http://www.w3.org/2000/svg" xmlns:xlink="http://www.w3.org/1999/xlink" width="20.226" height="20.826" viewBox="0 0 20.226 20.826">
  <defs>
    <clipPath id="clip-path">
      <rect id="Rectangle_3580" data-name="Rectangle 3580" width="17.151" height="17.435" fill="#108503"/>
    </clipPath>
  </defs>
  <g id="check_in_01" transform="translate(-1276.682 -334.334)">
    <g id="Group_26490" data-name="Group 26490" transform="translate(1276.682 334.334)">
      <g id="Group_26489" data-name="Group 26489" clip-path="url(#clip-path)">
        <path id="Path_58880" data-name="Path 58880" d="M1.006,5.253A.831.831,0,0,0,1.247,4.7c.026-.8.007-1.6.012-2.395A1.316,1.316,0,0,1,2.4.967C3.63.917,4.867.953,6.137.953c0,1.274-.011,2.511.012,3.748a.731.731,0,0,0,.263.561.754.754,0,0,0,.61-.119c.629-.411,1.232-.861,1.858-1.306.638.458,1.252.92,1.891,1.342a.717.717,0,0,0,.582.079c.131-.056.211-.309.247-.488a3.286,3.286,0,0,0,.01-.64V.941c1.154,0,2.264.036,3.37-.012A1.51,1.51,0,0,1,16.5,2.451q-.021,1.975-.022,3.95h.946q0-2.057,0-4.114A2.3,2.3,0,0,0,15.148,0C14.336,0,13.523,0,12.711,0Q7.665,0,2.619,0A2.287,2.287,0,0,0,.338,1.969C.273,2.949.312,3.936.327,4.92a.424.424,0,0,0,.679.333M7.108.962h3.528V3.935C10.172,3.6,9.748,3.316,9.347,3a.678.678,0,0,0-.956.009c-.4.316-.823.6-1.284.928Z" transform="translate(-0.276 0)" fill="#108503"/>
        <path id="Path_58881" data-name="Path 58881" d="M190.239,61.874l.039-7.916-.924-1.953-.037,9.14Z" transform="translate(-173.127 -47.558)" fill="#108503"/>
        <path id="Path_58882" data-name="Path 58882" d="M1.26,49.707l.016-9.273L.344,40.6V51.292Z" transform="translate(-0.314 -36.977)" fill="#108503"/>
        <path id="Path_58883" data-name="Path 58883" d="M16.2,129.033c0,1.317-.017,2.63,0,3.947a1.51,1.51,0,0,1-1.524,1.522c-1.106-.049-2.18-.028-3.334-.028,0-.005-.036.005-.036,0H5.835v0c-1.27,0-2.507.035-3.739-.015a1.316,1.316,0,0,1-1.137-1.342c-.005-.8.014-1.6-.012-2.395a.831.831,0,0,0-.241-.549.424.424,0,0,0-.679.333c-.015.984-.054,1.971.011,2.95a2.287,2.287,0,0,0,2.281,1.966q5.046.005,10.092,0c.813,0,1.625,0,2.437,0a2.3,2.3,0,0,0,2.278-2.284q0-2.057,0-4.114Z" transform="translate(0 -117.996)" fill="#108503"/>
      </g>
    </g>
    <g id="check_02" transform="translate(1280.628 338.88)">
      <g id="Rectangle_3463" data-name="Rectangle 3463" transform="translate(0)" fill="#cfa" stroke="#fff" stroke-width="1">
        <rect width="16.28" height="16.28" rx="8.14" stroke="none"/>
        <rect x="0.5" y="0.5" width="15.28" height="15.28" rx="7.64" fill="none"/>
      </g>
      <path id="Path_58022" data-name="Path 58022" d="M149.486,176.282a.523.523,0,0,1-.373-.155l-2.287-2.287a.528.528,0,0,1,.747-.747l1.914,1.914,4.2-4.2a.528.528,0,1,1,.746.746l-4.573,4.573a.529.529,0,0,1-.374.155Zm0,0" transform="translate(-142.559 -165.505)" fill="#108503"/>
    </g>
  </g>
</svg>
