<svg xmlns="http://www.w3.org/2000/svg" width="18.597" height="22.703" viewBox="0 0 18.597 22.703">
  <g id="coupon" transform="translate(-46.298)">
    <g id="Group_25608" data-name="Group 25608" transform="translate(46.298)">
      <path id="Path_58035" data-name="Path 58035" d="M64.532,6.762H62.067A2.341,2.341,0,0,0,60.378,2.8a2.359,2.359,0,0,0-.518.058,2.389,2.389,0,0,0,.057-.517A2.34,2.34,0,0,0,55.6,1.093a2.34,2.34,0,0,0-4.321,1.249,2.386,2.386,0,0,0,.057.517,2.359,2.359,0,0,0-.518-.058,2.341,2.341,0,0,0-1.689,3.962H46.66a.362.362,0,0,0-.362.362v6.038a.362.362,0,0,0,.362.362h.6V22.34a.362.362,0,0,0,.362.362h15.94a.362.362,0,0,0,.362-.362V13.525h.6a.362.362,0,0,0,.362-.362V7.125A.362.362,0,0,0,64.532,6.762ZM59.235,4A1.617,1.617,0,1,1,60.38,6.762H56.471ZM57.528,7.487V12.8H53.664V7.487ZM53.617.725a1.619,1.619,0,0,1,1.617,1.617.362.362,0,0,0,.725,0,1.617,1.617,0,1,1,2.764,1.145L55.959,6.25V3.79a.362.362,0,1,0-.725,0V6.25L52.47,3.486A1.621,1.621,0,0,1,53.617.725ZM49.671,4a1.617,1.617,0,0,1,2.287,0l2.764,2.764H50.813A1.62,1.62,0,0,1,49.671,4Zm-2.649,8.8V7.487H52.94V12.8ZM63.2,21.978H58.253V14.612a.362.362,0,1,0-.725,0v7.366H53.664V14.612a.362.362,0,0,0-.725,0v7.366H47.989V13.525H63.2v8.453ZM64.17,12.8H58.253V7.487H64.17Z" transform="translate(-46.298)" fill="#9e9e9e"/>
    </g>
  </g>
</svg>
