<?xml version="1.0" encoding="utf-8"?>
<!-- Generator: Adobe Illustrator 26.3.1, SVG Export Plug-In . SVG Version: 6.00 Build 0)  -->
<svg version="1.1" id="Layer_1" xmlns="http://www.w3.org/2000/svg" xmlns:xlink="http://www.w3.org/1999/xlink" x="0px" y="0px"
	 viewBox="0 0 22 22" style="enable-background:new 0 0 22 22;" xml:space="preserve">
<style type="text/css">
	.st0{fill:#606060;}
</style>
<g id="create_customer" transform="translate(-1360.557 -328.241)">
	<path id="Path_5253" class="st0" d="M1370.7,335.5c0-2.3,1.9-4.1,4.2-4s4.1,1.9,4,4.2c0,2.3-1.9,4.1-4.2,4
		C1372.5,339.7,1370.7,337.8,1370.7,335.5L1370.7,335.5z M1374.8,332.6c-1.6,0-2.9,1.3-2.9,3c0,1.6,1.3,2.9,3,2.9
		c1.6,0,2.9-1.3,2.9-2.9C1377.8,333.9,1376.5,332.6,1374.8,332.6L1374.8,332.6L1374.8,332.6z"/>
	<path id="Path_5254" class="st0" d="M1382.1,347h-1.2c0-0.7,0-1.4,0-2c0.1-1.8-1.3-3.4-3.1-3.5c-0.1,0-0.2,0-0.3,0
		c-1.8,0-3.6,0-5.4,0s-3.3,1.5-3.3,3.3c0,0,0,0,0,0.1c0,0.7,0,1.4,0,2.1h-1.3c0-1.1,0.1-2.3,0.3-3.4c0.5-1.9,2.2-3.3,4.2-3.3
		c1.9,0,3.8,0,5.7,0c2.4,0,4.4,2,4.4,4.4C1382.1,345.5,1382.1,346.2,1382.1,347z"/>
	<path id="Path_5255" class="st0" d="M1364.2,338.2v-3h1.1v2.9h3v1.2h-3v3h-1.1v-2.9h-3v-1.2H1364.2z"/>
</g>
</svg>
