<svg xmlns="http://www.w3.org/2000/svg" width="18.74" height="18.707" viewBox="0 0 18.74 18.707">
  <g id="create_delivery_slip" transform="translate(-678.665 -182.387)">
    <path id="Path_5224" data-name="Path 5224" d="M692.357,201.095c-.262-.073-.532-.125-.784-.223a2.988,2.988,0,0,1-1.634-1.493.247.247,0,0,0-.265-.156q-3.192.007-6.383,0h-.237V196.49a3.112,3.112,0,0,1-3.867-1.18,3.106,3.106,0,0,1,1.765-4.7,3.119,3.119,0,0,1,2.089.14v-5.246c-.311,0-.619,0-.927,0a.924.924,0,0,1-.893-.68,1.218,1.218,0,0,1-.036-.307q-.006-.567,0-1.134a.925.925,0,0,1,1-.993q5.862,0,11.723,0a.925.925,0,0,1,1,.994q.006.567,0,1.134a.936.936,0,0,1-1,.989c-.28,0-.56,0-.854,0v1.473c.288-.067.573-.156.864-.2a3.109,3.109,0,0,1,3.466,2.612c.009.059.025.116.037.174v.622a.86.86,0,0,0-.034.121,3.113,3.113,0,0,1-3.577,2.632c-.254-.044-.5-.122-.761-.187v2.107c.072.014.137.029.2.04a3.113,3.113,0,0,1,.536,6c-.233.082-.48.126-.72.187Zm-8.671-2.505h5.968a3.141,3.141,0,0,1,2.732-3.72v-10.6h-8.7Zm6.54-.614a2.492,2.492,0,1,0,2.5-2.49A2.489,2.489,0,0,0,690.226,197.976Zm2.8-8.116c0,.664,0,1.329,0,1.993a.238.238,0,0,0,.156.25,2.492,2.492,0,0,0,3.5-1.559,2.339,2.339,0,0,0-.8-2.582,2.4,2.4,0,0,0-2.686-.334.256.256,0,0,0-.174.276C693.03,188.556,693.025,189.208,693.025,189.86Zm-9.971,3.763c0-.67,0-1.341,0-2.011a.223.223,0,0,0-.147-.237,2.493,2.493,0,1,0,0,4.476.233.233,0,0,0,.152-.253C683.051,194.94,683.054,194.281,683.054,193.623Zm-.614-9.976h11.193v.616h-.593v.619c.289,0,.563,0,.837,0s.393-.107.4-.4c0-.329,0-.658,0-.987,0-.411-.071-.483-.474-.483H682.281c-.055,0-.11,0-.165,0a.288.288,0,0,0-.3.3c-.008.42-.005.841,0,1.262a.275.275,0,0,0,.264.3c.32.017.641.005.966.005v-.625h-.6Z" transform="translate(0)" fill="#fff"/>
    <path id="Path_5225" data-name="Path 5225" d="M852.5,262.423v2.465h-5.6v-2.465Zm-4.975,1.846h4.347v-1.222h-4.347Z" transform="translate(-161.658 -76.906)" fill="#fff"/>
    <path id="Path_5226" data-name="Path 5226" d="M883.082,342.114v.6h-4.351v-.6Z" transform="translate(-192.243 -153.481)" fill="#fff"/>
    <path id="Path_5227" data-name="Path 5227" d="M878.772,374.536v-.6h4.345v.6Z" transform="translate(-192.282 -184.056)" fill="#fff"/>
    <path id="Path_5228" data-name="Path 5228" d="M878.808,406.407v-.6h4.34v.6Z" transform="translate(-192.317 -214.683)" fill="#fff"/>
    <path id="Path_5229" data-name="Path 5229" d="M839.026,534.273v-.609h2.791c0,.173.005.342,0,.509a.137.137,0,0,1-.094.1C840.825,534.274,839.931,534.273,839.026,534.273Z" transform="translate(-154.091 -337.542)" fill="#fff"/>
    <path id="Path_5230" data-name="Path 5230" d="M841.855,566.211H839.08v-.6h2.775Z" transform="translate(-154.142 -368.241)" fill="#fff"/>
    <path id="Path_5231" data-name="Path 5231" d="M847.423,342.114v.6h-.605v-.6Z" transform="translate(-161.578 -153.481)" fill="#fff"/>
    <path id="Path_5232" data-name="Path 5232" d="M846.84,374.549v-.6h.6v.6Z" transform="translate(-161.599 -184.07)" fill="#fff"/>
    <path id="Path_5233" data-name="Path 5233" d="M847.428,406.5h-.6v-.6h.6Z" transform="translate(-161.59 -214.773)" fill="#fff"/>
    <path id="Path_5234" data-name="Path 5234" d="M927.3,533.661v.6h-.6v-.6Z" transform="translate(-238.332 -337.539)" fill="#fff"/>
    <path id="Path_5235" data-name="Path 5235" d="M927.382,566.081h-.6v-.6h.6Z" transform="translate(-238.419 -368.11)" fill="#fff"/>
    <path id="Path_5236" data-name="Path 5236" d="M1014.091,536.2h.6c.015.035.031.08.053.121a.294.294,0,0,0,.351.164.28.28,0,0,0,.233-.288.287.287,0,0,0-.232-.308.9.9,0,0,0-.162-.021.929.929,0,0,1-.8-.649.889.889,0,0,1,.31-1c.191-.129.338-.244.256-.511h.641c-.088.278.092.389.283.524a.815.815,0,0,1,.331.694h-.6a.957.957,0,0,0-.071-.153.307.307,0,1,0-.32.465c.083.017.17.017.253.034a.926.926,0,0,1,.722.717.9.9,0,0,1-.4.964.325.325,0,0,0-.2.369.458.458,0,0,1-.009.1h-.584c-.006-.007-.021-.018-.021-.026a.452.452,0,0,0-.264-.49A.816.816,0,0,1,1014.091,536.2Z" transform="translate(-322.308 -337.583)" fill="#fff"/>
    <path id="Path_5237" data-name="Path 5237" d="M1055.211,329.8h-.62c.071-.263-.066-.39-.265-.519a.82.82,0,0,1-.351-.7h.606a.873.873,0,0,0,.062.145.308.308,0,1,0,.317-.458,2.61,2.61,0,0,1-.323-.052.892.892,0,0,1-.649-.742.849.849,0,0,1,.4-.913.357.357,0,0,0,.211-.4.307.307,0,0,1,.01-.077h.583c.008.01.022.02.021.028a.43.43,0,0,0,.248.477.824.824,0,0,1,.381.722h-.609c-.048-.149-.117-.281-.3-.293a.306.306,0,0,0-.122.6.811.811,0,0,0,.179.028.92.92,0,0,1,.822.7.885.885,0,0,1-.388,1,.333.333,0,0,0-.2.385A.366.366,0,0,1,1055.211,329.8Z" transform="translate(-360.634 -138.075)" fill="#fff"/>
    <path id="Path_5238" data-name="Path 5238" d="M736.811,423c-.164,0-.3,0-.431,0-.109,0-.186-.007-.233-.135a.27.27,0,0,0-.346-.165.29.29,0,0,0-.234.308.3.3,0,0,0,.252.3c.1.023.208.017.306.045a.884.884,0,0,1,.672.761.844.844,0,0,1-.415.906.331.331,0,0,0-.2.371.477.477,0,0,1-.011.1h-.581c-.009-.013-.023-.023-.022-.031a.431.431,0,0,0-.251-.474.826.826,0,0,1-.377-.731c.188,0,.364-.006.538,0,.036,0,.08.058.1.1a.32.32,0,0,0,.37.2.312.312,0,0,0-.1-.613.926.926,0,0,1-.8-1.365.916.916,0,0,1,.332-.35.289.289,0,0,0,.177-.328.743.743,0,0,1,.009-.133h.583c.009.014.022.024.021.033a.428.428,0,0,0,.253.473A.841.841,0,0,1,736.811,423Z" transform="translate(-54.072 -230.009)" fill="#fff"/>
  </g>
</svg>
