<svg xmlns="http://www.w3.org/2000/svg" width="146.598" height="62.811" viewBox="0 0 146.598 62.811">
  <g id="easy_retail_logo" transform="translate(0 0)">
    <g id="Group_25420" data-name="Group 25420" transform="translate(65.594 17.855)">
      <path id="Path_57954" data-name="Path 57954" d="M8.607-24.646v-2.118H2.166v15.129H8.607v-2.118H4.457v-4.5h3.35v-2.118H4.457v-4.279Zm9.272,13.011L15.263-26.764H12.346L9.73-11.635h2.291l.5-3.436h2.529l.5,3.436ZM13.75-23.522h.065l.929,6.376H12.821Zm8.515-3.458a3.09,3.09,0,0,0-3.415,3.393v.367c0,1.643.692,2.874,2.723,4.755,1.491,1.362,1.924,2.053,1.924,3v.475c0,1.081-.562,1.448-1.254,1.448-.821,0-1.3-.5-1.3-1.513v-1.037l-2.2.216v.994a3.236,3.236,0,0,0,3.544,3.458,3.165,3.165,0,0,0,3.5-3.393v-.735c0-1.751-.692-2.983-2.723-4.863-1.491-1.362-1.924-2.053-1.924-2.9v-.324a1.073,1.073,0,0,1,1.145-1.232c.8,0,1.189.475,1.189,1.513v.475l2.2-.216v-.432A3.139,3.139,0,0,0,22.266-26.98Zm8.991,8.515,3.134-8.3H32.013L30.176-21.4h-.043l-1.924-5.36H25.789l3.177,8.278v6.851h2.291Zm12.751,6.83h2.421l-2.1-6.894a3.532,3.532,0,0,0,1.621-3.328v-1.081c0-2.485-1.34-3.825-3.8-3.825H38.843v15.129h2.291v-6.4h1.059ZM41.134-24.646h.929c1.1,0,1.6.584,1.6,1.859v.778c0,1.275-.5,1.859-1.6,1.859h-.929Zm13.4,0v-2.118H48.093v15.129h6.441v-2.118h-4.15v-4.5h3.35v-2.118h-3.35v-4.279Zm8.1.043v-2.161H55.463V-24.6H57.9v12.968H60.2V-24.6Zm8.018,12.968L68.041-26.764H65.124L62.508-11.635H64.8l.5-3.436h2.529l.5,3.436ZM66.528-23.522h.065l.929,6.376H65.6ZM74.59-11.635V-26.764H72.3v15.129ZM79.345-13.8V-26.764H77.054v15.129H83.17V-13.8Z" transform="translate(-2.166 26.98)" fill="#ed1c24"/>
    </g>
    <g id="Group_25422" data-name="Group 25422">
      <g id="Group_25421" data-name="Group 25421" transform="translate(0 0)">
        <path id="Polygon_1" data-name="Polygon 1" d="M13.877,1.781a1.19,1.19,0,0,0-1.029.6L1.938,21.371a1.191,1.191,0,0,0,0,1.182L12.847,41.547a1.19,1.19,0,0,0,1.029.6h21.79a1.19,1.19,0,0,0,1.029-.6L47.605,22.553a1.191,1.191,0,0,0,0-1.182L36.7,2.377a1.19,1.19,0,0,0-1.029-.6H13.877m0-1.781h21.79a2.968,2.968,0,0,1,2.574,1.49L49.149,20.484a2.968,2.968,0,0,1,0,2.956L38.241,42.434a2.968,2.968,0,0,1-2.574,1.49H13.877a2.968,2.968,0,0,1-2.574-1.49L.394,23.44a2.968,2.968,0,0,1,0-2.956L11.3,1.49A2.968,2.968,0,0,1,13.877,0Z" transform="translate(0 24.772) rotate(-30)" fill="#353c40"/>
        <path id="Polygon_2" data-name="Polygon 2" d="M26.94,0a5,5,0,0,1,4.33,2.5l7.054,12.213a5,5,0,0,1,0,5L31.27,31.927a5,5,0,0,1-4.33,2.5H12.828a5,5,0,0,1-4.33-2.5L1.444,19.714a5,5,0,0,1,0-5L8.5,2.5A5,5,0,0,1,12.828,0Z" transform="translate(6.607 26.441) rotate(-30)" fill="#ed1c24"/>
      </g>
      <path id="Subtraction_138" data-name="Subtraction 138" d="M13.236,18.261H9.045L3.627,11.521h-.2v0H0v-2.7H3.431v0H5.245c2.371,0,3.676-1.018,3.676-2.868,0-1.79-1.3-2.817-3.555-2.817H3.431V7.982H0V0H5.466A10.138,10.138,0,0,1,8.39.393a6.166,6.166,0,0,1,2.18,1.136A4.88,4.88,0,0,1,11.931,3.34a6.018,6.018,0,0,1,.47,2.42,5.379,5.379,0,0,1-1.155,3.425,6.368,6.368,0,0,1-3.893,2.138l5.881,6.937Zm-9.8,0H0v-5.9H3.431v5.9Z" transform="translate(27.858 22.585)" fill="#fff" stroke="rgba(0,0,0,0)" stroke-miterlimit="10" stroke-width="1"/>
      <path id="Path_57956" data-name="Path 57956" d="M-23852.3-11968.893h-7.752v2.7h9l-.061-2.7Z" transform="translate(23882.229 12000.298)" fill="#fff"/>
      <rect id="Rectangle_2871" data-name="Rectangle 2871" width="5.132" height="2.566" transform="translate(27.857 38.346)" fill="#fff" stroke="rgba(0,0,0,0)" stroke-miterlimit="10" stroke-width="1"/>
    </g>
    <path id="Path_58014" data-name="Path 58014" d="M.72-6.444h.756V0H.72ZM3.582-4.59h.729v.675h.036a1.544,1.544,0,0,1,.6-.581,1.739,1.739,0,0,1,.882-.238A1.62,1.62,0,0,1,7.1-4.253a1.877,1.877,0,0,1,.437,1.309V0H6.768V-2.826a1.223,1.223,0,0,0-.306-.927,1.172,1.172,0,0,0-.837-.288,1.117,1.117,0,0,0-.661.207,1.391,1.391,0,0,0-.455.545,1.613,1.613,0,0,0-.162.707V0H3.582ZM9.441-3.105h2.853v.63H9.441ZM16.191.144A2.3,2.3,0,0,1,14.8-.315,2.313,2.313,0,0,1,13.941-1.6l.729-.3a1.879,1.879,0,0,0,.567.945,1.414,1.414,0,0,0,.972.369,1.491,1.491,0,0,0,.945-.3.987.987,0,0,0,.387-.824.951.951,0,0,0-.329-.742A3.186,3.186,0,0,0,16.137-3l-.4-.144a3.228,3.228,0,0,1-1.116-.639,1.415,1.415,0,0,1-.432-1.1,1.541,1.541,0,0,1,.252-.85,1.8,1.8,0,0,1,.7-.626,2.152,2.152,0,0,1,1.008-.234,2.148,2.148,0,0,1,.972.207,2.022,2.022,0,0,1,.661.5,1.885,1.885,0,0,1,.347.585l-.72.306a1.2,1.2,0,0,0-.41-.6,1.26,1.26,0,0,0-.842-.27,1.317,1.317,0,0,0-.846.279.861.861,0,0,0-.351.7.755.755,0,0,0,.3.616,3.045,3.045,0,0,0,.9.446l.423.144a3.549,3.549,0,0,1,1.278.743,1.609,1.609,0,0,1,.459,1.211A1.682,1.682,0,0,1,18-.675a1.883,1.883,0,0,1-.805.621A2.625,2.625,0,0,1,16.191.144ZM21.645.072a1.454,1.454,0,0,1-.517-.09,1.183,1.183,0,0,1-.4-.243,1.109,1.109,0,0,1-.27-.4,1.481,1.481,0,0,1-.09-.549V-3.9h-.8V-4.59h.8v-1.3h.765v1.3h1.116V-3.9H21.132v2.5a.887.887,0,0,0,.144.558.618.618,0,0,0,.5.2.933.933,0,0,0,.5-.153v.747A1.176,1.176,0,0,1,22,.045,1.926,1.926,0,0,1,21.645.072Zm4.266.072A2.316,2.316,0,0,1,24.7-.18a2.266,2.266,0,0,1-.841-.882,2.552,2.552,0,0,1-.3-1.233,2.552,2.552,0,0,1,.3-1.233A2.266,2.266,0,0,1,24.7-4.41a2.316,2.316,0,0,1,1.215-.324,2.316,2.316,0,0,1,1.215.324,2.266,2.266,0,0,1,.842.882,2.552,2.552,0,0,1,.3,1.233,2.552,2.552,0,0,1-.3,1.233,2.266,2.266,0,0,1-.842.882A2.316,2.316,0,0,1,25.911.144Zm0-.693A1.542,1.542,0,0,0,26.7-.761a1.563,1.563,0,0,0,.585-.607A1.875,1.875,0,0,0,27.5-2.3a1.875,1.875,0,0,0-.22-.927,1.563,1.563,0,0,0-.585-.607,1.542,1.542,0,0,0-.788-.212,1.567,1.567,0,0,0-.792.212,1.553,1.553,0,0,0-.589.607,1.875,1.875,0,0,0-.221.927,1.875,1.875,0,0,0,.221.927,1.553,1.553,0,0,0,.589.607A1.567,1.567,0,0,0,25.911-.549ZM29.889-4.59h.729v.738h.036a1.231,1.231,0,0,1,.522-.626,1.481,1.481,0,0,1,.81-.247,1.453,1.453,0,0,1,.54.09v.828a1.429,1.429,0,0,0-.648-.144,1.068,1.068,0,0,0-.612.189,1.36,1.36,0,0,0-.445.508,1.468,1.468,0,0,0-.167.688V0h-.765ZM35.856.144a2.237,2.237,0,0,1-1.179-.315,2.186,2.186,0,0,1-.814-.868,2.626,2.626,0,0,1-.292-1.247,2.735,2.735,0,0,1,.274-1.224,2.222,2.222,0,0,1,.778-.891,2.073,2.073,0,0,1,1.17-.333,2.205,2.205,0,0,1,1.17.3,2,2,0,0,1,.761.833,2.681,2.681,0,0,1,.265,1.215.9.9,0,0,1-.027.234H34.335a1.815,1.815,0,0,0,.252.882,1.469,1.469,0,0,0,.571.54,1.551,1.551,0,0,0,.725.18,1.493,1.493,0,0,0,1.359-.828l.648.315a2.311,2.311,0,0,1-.806.882A2.239,2.239,0,0,1,35.856.144Zm1.323-2.925a1.49,1.49,0,0,0-.162-.576,1.231,1.231,0,0,0-.454-.486,1.422,1.422,0,0,0-.779-.2,1.294,1.294,0,0,0-.913.347,1.667,1.667,0,0,0-.491.914Zm9.5,1.692.612.8-.576.432L46.26-.468a2.082,2.082,0,0,1-1.5.612,2.381,2.381,0,0,1-1.174-.3,2.229,2.229,0,0,1-.846-.815,2.188,2.188,0,0,1-.31-1.148,2.053,2.053,0,0,1,.306-1.076,2.469,2.469,0,0,1,.828-.832l-.009-.009a3,3,0,0,1-.351-.562,1.256,1.256,0,0,1-.117-.527,1.377,1.377,0,0,1,.207-.734,1.518,1.518,0,0,1,.558-.535,1.531,1.531,0,0,1,.765-.2,1.364,1.364,0,0,1,.909.31,1.678,1.678,0,0,1,.522.779l-.657.351a1.69,1.69,0,0,0-.292-.509.6.6,0,0,0-.481-.2.771.771,0,0,0-.549.2.7.7,0,0,0-.216.536.989.989,0,0,0,.225.621l2.169,2.835.594-1.017.6.36Zm-1.926.54a1.379,1.379,0,0,0,1.08-.477L43.983-3.465a1.65,1.65,0,0,0-.621.572,1.4,1.4,0,0,0-.234.77,1.544,1.544,0,0,0,.216.81,1.519,1.519,0,0,0,.59.563A1.7,1.7,0,0,0,44.757-.549ZM54.945.144a3.228,3.228,0,0,1-1.683-.45,3.242,3.242,0,0,1-1.188-1.22,3.406,3.406,0,0,1-.432-1.7,3.413,3.413,0,0,1,.432-1.692,3.232,3.232,0,0,1,1.188-1.224,3.228,3.228,0,0,1,1.683-.45,3.228,3.228,0,0,1,1.683.45A3.266,3.266,0,0,1,57.82-4.914a3.386,3.386,0,0,1,.437,1.692,3.406,3.406,0,0,1-.432,1.7,3.232,3.232,0,0,1-1.193,1.22A3.252,3.252,0,0,1,54.945.144Zm0-.729a2.488,2.488,0,0,0,1.273-.338,2.457,2.457,0,0,0,.918-.936,2.727,2.727,0,0,0,.337-1.363,2.727,2.727,0,0,0-.337-1.364,2.457,2.457,0,0,0-.918-.936,2.488,2.488,0,0,0-1.273-.337,2.464,2.464,0,0,0-1.269.337,2.491,2.491,0,0,0-.918.941,2.706,2.706,0,0,0-.342,1.359,2.706,2.706,0,0,0,.342,1.359,2.491,2.491,0,0,0,.918.941A2.464,2.464,0,0,0,54.945-.585ZM60-4.59h.729v.675h.036a1.544,1.544,0,0,1,.6-.581,1.739,1.739,0,0,1,.882-.238,1.62,1.62,0,0,1,1.264.482,1.877,1.877,0,0,1,.437,1.309V0h-.765V-2.826a1.223,1.223,0,0,0-.306-.927,1.172,1.172,0,0,0-.837-.288,1.117,1.117,0,0,0-.661.207,1.391,1.391,0,0,0-.455.545,1.613,1.613,0,0,0-.162.707V0H60Zm5.868-1.854h.765V0h-.765Zm3.168,1.008a.528.528,0,0,1-.387-.162.528.528,0,0,1-.162-.387.514.514,0,0,1,.162-.383.536.536,0,0,1,.387-.157.536.536,0,0,1,.387.157.514.514,0,0,1,.162.383.536.536,0,0,1-.158.387A.524.524,0,0,1,69.039-5.436Zm-.378.846h.756V0h-.756Zm2.781,0h.729v.675h.036a1.544,1.544,0,0,1,.6-.581,1.739,1.739,0,0,1,.882-.238,1.62,1.62,0,0,1,1.264.482,1.877,1.877,0,0,1,.437,1.309V0h-.765V-2.826a1.223,1.223,0,0,0-.306-.927,1.172,1.172,0,0,0-.837-.288,1.117,1.117,0,0,0-.661.207,1.391,1.391,0,0,0-.454.545,1.613,1.613,0,0,0-.162.707V0h-.765ZM79.353.144a2.237,2.237,0,0,1-1.179-.315,2.186,2.186,0,0,1-.814-.868,2.626,2.626,0,0,1-.293-1.247,2.735,2.735,0,0,1,.275-1.224A2.221,2.221,0,0,1,78.12-4.4a2.073,2.073,0,0,1,1.17-.333,2.205,2.205,0,0,1,1.17.3,2,2,0,0,1,.76.833,2.681,2.681,0,0,1,.265,1.215.9.9,0,0,1-.027.234H77.832a1.815,1.815,0,0,0,.252.882,1.469,1.469,0,0,0,.571.54,1.551,1.551,0,0,0,.725.18,1.494,1.494,0,0,0,1.359-.828l.648.315a2.311,2.311,0,0,1-.805.882A2.239,2.239,0,0,1,79.353.144Zm1.323-2.925a1.49,1.49,0,0,0-.162-.576,1.231,1.231,0,0,0-.455-.486,1.422,1.422,0,0,0-.778-.2,1.294,1.294,0,0,0-.914.347,1.667,1.667,0,0,0-.49.914Z" transform="translate(64.483 43)" fill="#353c40"/>
  </g>
</svg>
