<svg id="edit" xmlns="http://www.w3.org/2000/svg" width="20.002" height="19.999" viewBox="0 0 20.002 19.999">
  <path id="Path_58019" data-name="Path 58019" d="M18.707,1.323a4.411,4.411,0,0,0-6.244,0L1.016,12.765a.573.573,0,0,0-.162.328L.006,19.375a.571.571,0,0,0,.162.482.582.582,0,0,0,.4.17.463.463,0,0,0,.077,0l3.784-.511A.576.576,0,0,0,4.28,18.37l-3.034.409L1.838,14.4,6.45,19.009a.582.582,0,0,0,.4.17.564.564,0,0,0,.4-.17L18.707,7.566a4.409,4.409,0,0,0,0-6.244ZM12.685,2.729l1.922,1.922L4.161,15.1,2.239,13.175ZM6.859,17.79,4.979,15.911,15.425,5.465,17.3,7.344ZM18.106,6.522l-4.6-4.6a3.267,3.267,0,0,1,4.6,4.6Z" transform="translate(0 -0.028)" fill="#858585"/>
</svg>
