<svg xmlns="http://www.w3.org/2000/svg" width="305.752" height="315.83" viewBox="0 0 305.752 315.83">
  <g id="gift_v" transform="translate(-1007 -266.732)" opacity="0.25">
    <ellipse id="Ellipse_170" data-name="Ellipse 170" cx="133.177" cy="133.176" rx="133.177" ry="133.176" transform="translate(1007 316.211)" fill="#ffd1d2" opacity="0.2"/>
    <path id="Path_58046" data-name="Path 58046" d="M-5539.675-16867.061l-11.713-9.711v-17.781l7.283-10.561h19l24.275,19.057,10.5-8.5,22.637,11.713,34.836,11.773,72.65,110.563.965,1.469-27.492,55.045H-5566.8v-94.674l-8.072-2.852v-65.545Z" transform="translate(6672 17207)" fill="#fff"/>
    <g id="valentines-gift-svgrepo-com" transform="translate(1044.702 266.732)" opacity="0.2">
      <g id="Group_25608" data-name="Group 25608" transform="translate(46.298)">
        <path id="Path_58035" data-name="Path 58035" d="M240.484,72.016H214.229a24.929,24.929,0,0,0-17.986-42.193,25.125,25.125,0,0,0-5.518.617,25.438,25.438,0,0,0,.605-5.5,24.925,24.925,0,0,0-46.011-13.3,24.925,24.925,0,0,0-46.011,13.3,25.411,25.411,0,0,0,.605,5.5,25.121,25.121,0,0,0-5.518-.617A24.927,24.927,0,0,0,76.41,72.016H50.156A3.858,3.858,0,0,0,46.3,75.874v64.3a3.858,3.858,0,0,0,3.858,3.858h6.43V237.91a3.858,3.858,0,0,0,3.858,3.858H230.2a3.858,3.858,0,0,0,3.858-3.858V144.032h6.43a3.858,3.858,0,0,0,3.858-3.858v-64.3A3.857,3.857,0,0,0,240.484,72.016ZM184.068,42.581a17.218,17.218,0,1,1,12.192,29.434H154.634ZM165.9,79.732v56.584H124.744V79.732ZM124.244,7.716a17.238,17.238,0,0,1,17.218,17.218,3.858,3.858,0,1,0,7.716,0,17.219,17.219,0,1,1,29.434,12.192L149.178,66.56V40.366a3.858,3.858,0,1,0-7.716,0V66.56L112.028,37.126a17.259,17.259,0,0,1,12.215-29.41ZM82.222,42.582a17.218,17.218,0,0,1,24.35,0l29.434,29.434H94.38A17.247,17.247,0,0,1,82.222,42.582ZM54.014,136.316V79.732h63.014v56.584Zm172.324,97.736H173.612V155.606a3.858,3.858,0,0,0-7.716,0v78.446H124.744V155.606a3.858,3.858,0,0,0-7.716,0v78.446H64.3v-90.02H226.338v90.02Zm10.288-97.736H173.612V79.732h63.014Z" transform="translate(-46.298)" fill="#d4d7de"/>
      </g>
    </g>
  </g>
</svg>
