<svg xmlns="http://www.w3.org/2000/svg" width="28" height="28" viewBox="0 0 28 28">
  <g id="HR_portal" transform="translate(7461 10825)">
    <rect id="Rectangle_3142" data-name="Rectangle 3142" width="28" height="28" transform="translate(-7461 -10825)" fill="none"/>
    <g id="HR_portal-2" data-name="HR_portal" transform="translate(-7184.981 -11161.799)">
      <path id="Path_57968" data-name="Path 57968" d="M-264.971,355.153c-1.877,0-3.7,0-5.529,0-1.157,0-1.518-.37-1.519-1.542q0-5.634,0-11.268c0-1.181.353-1.543,1.509-1.543H-254c1.094,0,1.478.376,1.479,1.449q0,5.725,0,11.45c0,1.06-.4,1.451-1.487,1.453q-2.437,0-4.875,0h-.657a2.219,2.219,0,0,0,1.9,2.311,1.227,1.227,0,0,1,1.208,1.207c.13,1.621.13,1.621-1.5,1.621-3.169,0-6.338-.012-9.506.011-.534,0-.748-.146-.687-.687.036-.321-.009-.65.014-.973A1.21,1.21,0,0,1-267,357.471,2.266,2.266,0,0,0-264.971,355.153Zm11.967-4.1v-.633q0-4.047,0-8.094c0-.877-.157-1.037-1.016-1.037h-16.5c-.852,0-1.011.165-1.011,1.043q0,4.047,0,8.094v.628Zm-18.462.559a.568.568,0,0,0-.055.146c-.005.629-.01,1.258-.01,1.887,0,.847.177,1.022,1.04,1.022q8.222,0,16.445,0c.142,0,.329.05.417-.021.23-.183.571-.406.593-.639.074-.781.028-1.573.028-2.4Zm3.879,8.164h10.675c0-.184,0-.342,0-.5.011-1.192-.122-1.327-1.316-1.327h-7.739C-267.624,357.948-267.728,358.061-267.587,359.774Zm2.256-2.368h6.122l-1.059-2.206h-3.993Z" transform="translate(0)" fill="#353c40" stroke="#353c40" stroke-width="0.3"/>
      <path id="Path_57969" data-name="Path 57969" d="M-220.693,352.566a3.978,3.978,0,0,1,3.993,3.969,4.005,4.005,0,0,1-4,3.972,4.005,4.005,0,0,1-3.963-3.953A3.979,3.979,0,0,1-220.693,352.566Zm-1.109,4.24a1.652,1.652,0,0,1-.065-2.4,1.608,1.608,0,0,1,2.2-.147,1.723,1.723,0,0,1,.615,1.057,6.279,6.279,0,0,1-.385,1.6l1.451,1.756a3.392,3.392,0,0,0-.343-4.715,3.5,3.5,0,0,0-4.971.255c-1.352,1.517-.968,3.791-.065,4.464Zm1.142,3.313c.552-.176,1.089-.336,1.617-.521.5-.174.531-.522.355-.97a2.154,2.154,0,0,0-1.958-1.388,2.168,2.168,0,0,0-2.009,1.4c-.2.493-.1.827.408,1S-221.214,359.952-220.66,360.118Zm-.021-5.721a1.177,1.177,0,0,0-1.175,1.2,1.189,1.189,0,0,0,1.175,1.146,1.186,1.186,0,0,0,1.206-1.175A1.179,1.179,0,0,0-220.681,354.4Z" transform="translate(-41.585 -10.334)" fill="#353c40" stroke="#353c40" stroke-width="0.3"/>
    </g>
  </g>
</svg>
