<svg xmlns="http://www.w3.org/2000/svg" width="48.052" height="50.112" viewBox="0 0 48.052 50.112">
  <path id="inactive_promo" d="M23.536,50.113a5.749,5.749,0,0,1-3.226-1.885c-.715-.738-1.486-1.421-2.209-2.15a1.8,1.8,0,0,0-1.689-.528q-1.858.3-3.726.535a4.4,4.4,0,0,1-5.2-3.952c-.2-1.19-.414-2.375-.61-3.565a1.789,1.789,0,0,0-1.028-1.39C4.719,36.6,3.6,36,2.481,35.4A4.376,4.376,0,0,1,.516,29.361c.546-1.147,1.1-2.291,1.677-3.423a1.823,1.823,0,0,0,0-1.771C1.622,23.049,1.076,21.92.533,20.789a4.388,4.388,0,0,1,2-6.1c1.092-.585,2.177-1.182,3.284-1.735A1.884,1.884,0,0,0,6.9,11.439c.2-1.255.407-2.509.66-3.754a4.382,4.382,0,0,1,5.287-3.642c1.239.2,2.483.362,3.724.541a1.652,1.652,0,0,0,1.47-.494q1.4-1.37,2.813-2.722a4.368,4.368,0,0,1,6.347,0c.921.877,1.842,1.755,2.741,2.656a1.846,1.846,0,0,0,1.734.536c1.238-.2,2.48-.391,3.726-.534a4.376,4.376,0,0,1,5.143,3.847c.215,1.186.428,2.372.611,3.564a1.879,1.879,0,0,0,1.08,1.515c1.092.547,2.162,1.139,3.24,1.714a4.4,4.4,0,0,1,2.007,6.21c-.52,1.069-1.022,2.147-1.574,3.2a1.947,1.947,0,0,0-.007,1.948c.571,1.1,1.1,2.217,1.634,3.335a4.37,4.37,0,0,1-1.959,6.037c-1.1.6-2.2,1.2-3.326,1.759a1.914,1.914,0,0,0-1.1,1.555c-.191,1.239-.4,2.477-.652,3.705a4.381,4.381,0,0,1-5.276,3.657c-1.239-.193-2.484-.359-3.725-.539a1.649,1.649,0,0,0-1.473.481c-.756.743-1.544,1.455-2.281,2.216a5.754,5.754,0,0,1-3.227,1.885Zm-3.351-6.042c.855.851,1.732,1.681,2.6,2.52a1.526,1.526,0,0,0,2.464.015c.857-.826,1.732-1.635,2.563-2.487a4.7,4.7,0,0,1,4.455-1.4c1.266.224,2.547.367,3.748.536a1.466,1.466,0,0,0,1.613-1.215c.214-1.12.454-2.238.585-3.369a5.02,5.02,0,0,1,3.086-4.3c.991-.452,1.936-1.006,2.9-1.522a1.507,1.507,0,0,0,.736-2.242c-.553-1.144-1.1-2.289-1.675-3.423a4.482,4.482,0,0,1,0-4.267c.557-1.1,1.09-2.222,1.631-3.335a1.538,1.538,0,0,0-.778-2.373c-1.122-.6-2.246-1.188-3.368-1.786a4.345,4.345,0,0,1-2.364-3.174c-.248-1.362-.479-2.727-.734-4.088a1.475,1.475,0,0,0-1.8-1.294c-1.242.174-2.485.343-3.724.543a4.607,4.607,0,0,1-4.239-1.355C27.022,5.191,26.13,4.353,25.25,3.5a1.525,1.525,0,0,0-2.464.015c-.915.883-1.828,1.77-2.743,2.652a4.3,4.3,0,0,1-3.7,1.277c-1.357-.178-2.712-.372-4.066-.569A1.5,1.5,0,0,0,10.4,8.187c-.2,1.072-.442,2.142-.562,3.225a5.033,5.033,0,0,1-3.109,4.335c-.977.445-1.907.991-2.855,1.5a1.513,1.513,0,0,0-.749,2.273c.554,1.143,1.106,2.287,1.675,3.423a4.471,4.471,0,0,1,0,4.224c-.561,1.121-1.1,2.251-1.652,3.379a1.528,1.528,0,0,0,.764,2.341c1.107.59,2.212,1.184,3.325,1.762a4.523,4.523,0,0,1,2.5,3.519c.194,1.238.421,2.472.654,3.705a1.5,1.5,0,0,0,1.931,1.35c1.241-.188,2.484-.355,3.725-.538a5.41,5.41,0,0,1,.79-.06A4.609,4.609,0,0,1,20.185,44.071ZM29.546,31.8a1.085,1.085,0,0,1-.229-.209l-5.26-5.259-5.279,5.281a1.08,1.08,0,0,1-.8.41.912.912,0,0,1-.727-1.455,2.248,2.248,0,0,1,.23-.251l5.28-5.281L17.5,19.776a1.084,1.084,0,0,1-.411-.8.873.873,0,0,1,.491-.8.864.864,0,0,1,.964.077,2.094,2.094,0,0,1,.252.229l5.261,5.26L29.3,18.5a1.1,1.1,0,0,1,.8-.411.99.99,0,0,1,.956.93c-.082.184-.155.373-.25.55a1.133,1.133,0,0,1-.209.229l-5.239,5.24,5.26,5.258a1.1,1.1,0,0,1,.412.8.991.991,0,0,1-.93.956C29.912,31.967,29.722,31.894,29.546,31.8Z" transform="translate(0 -0.001)" fill="#f96a5b"/>
</svg>
