<svg xmlns="http://www.w3.org/2000/svg" width="28" height="28" viewBox="0 0 28 28">
  <g id="inventory_portal" transform="translate(7559 10825)">
    <rect id="Rectangle_3139" data-name="Rectangle 3139" width="28" height="28" transform="translate(-7559 -10825)" fill="none"/>
    <g id="inventory_portal-2" data-name="inventory_portal" transform="translate(-7336.877 -11145.89)">
      <path id="Path_57878" data-name="Path 57878" d="M-208.034,341.452c-.528-.023-.68.222-.753.623-.257,1.4,0,1.211-1.468,1.225-.351,0-.7-.021-1.054.006-.451.034-.715-.113-.723-.6a1.514,1.514,0,0,0-1.187-1.511,1.435,1.435,0,0,0-1.765.205c-.4.39-.748.342-1.114-.094a14.135,14.135,0,0,0-1.172-1.181c-.259-.245-.332-.491-.075-.763a1.725,1.725,0,0,0,.267-2.157,1.415,1.415,0,0,0-1.377-.97c-.519-.033-.7-.267-.666-.783.041-.589.022-1.183,0-1.775-.009-.314.1-.527.417-.522a1.728,1.728,0,0,0,1.812-1.441,1.245,1.245,0,0,0-.135-1.332c-.595-.794-.567-.815.142-1.525.327-.327.665-.644.976-.985.229-.251.462-.315.713-.075a1.68,1.68,0,0,0,2.2.248,1.361,1.361,0,0,0,.913-1.162c.107-.85.147-.845,1.011-.846.5,0,1,.02,1.5-.006.443-.022.649.16.678.6.016.238.092.472.12.71.048.405.268.573.736.528q0-1.465,0-2.922c0-.911.147-1.055,1.066-1.056q4.189,0,8.377,0c.815,0,1.006.192,1.007,1.012q0,4.217,0,8.433c0,.834-.17,1-1.007,1q-4.244,0-8.488,0c-.779,0-.948-.171-.954-.938a2.767,2.767,0,0,1,0-.554c.164-.826-.316-1.206-.977-1.494a3.638,3.638,0,0,0-4.428,1.27,3.6,3.6,0,0,0,.4,4.536,3.617,3.617,0,0,0,4.58.438.792.792,0,0,0,.421-.818,6.758,6.758,0,0,1-.005-.776c0-.9.139-1.039,1.019-1.039q3.828,0,7.656,0c.333,0,.666,0,1,0a.672.672,0,0,1,.773.736q.008,4.494,0,8.988a.663.663,0,0,1-.734.723q-4.494.008-8.988,0c-.5,0-.726-.292-.724-.785C-208.031,343.573-208.034,342.521-208.034,341.452Zm.695,3.247h9.055v-9.027h-9.055Zm.013-20.127v9.054h9.027v-9.054Zm-.71,13.627c-2.244,1.1-4.129.867-5.533-.624a4.257,4.257,0,0,1-.629-4.985,4.157,4.157,0,0,1,2.741-2.084,4.373,4.373,0,0,1,3.422.619,17.2,17.2,0,0,1,.013-1.772c.064-.589-.17-.858-.723-.915a.655.655,0,0,1-.646-.685,9.388,9.388,0,0,0-.216-1.057h-1.75a9.072,9.072,0,0,0-.189,1.037.724.724,0,0,1-.618.72,9.2,9.2,0,0,0-1.525.641.667.667,0,0,1-.81-.044c-.3-.231-.631-.429-.863-.584l-1.33,1.237c.2.291.373.594.59.865a.712.712,0,0,1,.055.9c-.268.5-.411,1.065-.667,1.573a1.111,1.111,0,0,1-.555.493,7.748,7.748,0,0,1-1.15.26v1.713c.068.03.119.074.168.072,1.106-.038,1.466.634,1.884,1.566a1.788,1.788,0,0,1-.252,2.292c-.046.048-.063.124-.047.092l1.263,1.325a8.606,8.606,0,0,0,.752-.521.788.788,0,0,1,1.046-.056,6.077,6.077,0,0,0,1.43.578.728.728,0,0,1,.605.679c.049.361.133.717.2,1.062h1.767a2.64,2.64,0,0,0,.066-.3c.077-.812.271-1.522,1.269-1.628.087-.009.219-.2.222-.311C-208.026,339.663-208.036,338.966-208.036,338.2Z" transform="translate(0)" fill="#353c40"/>
      <path id="Path_57879" data-name="Path 57879" d="M-93.093,443.438c-.517,0-1.034.01-1.55,0a.975.975,0,0,1-1.023-.942.957.957,0,0,1,.982-.98q1.632-.03,3.265,0a.918.918,0,0,1,.952.993.928.928,0,0,1-.966.927C-91.985,443.451-92.539,443.438-93.093,443.438Zm.045-.67c.481,0,.963.023,1.441-.013.159-.012.307-.173.46-.266-.142-.1-.282-.292-.427-.3-1-.026-2-.024-2.994,0-.137,0-.269.172-.4.264.142.1.279.286.428.3C-94.047,442.792-93.546,442.769-93.047,442.769Z" transform="translate(-109.758 -104.559)" fill="#353c40"/>
      <path id="Path_57880" data-name="Path 57880" d="M-79.977,472.121l-.619-.335a2.578,2.578,0,0,1,.307-.543c.586-.624,1.239-.487,1.573.312.131.314-.036.453-.593.461,0,.568.028,1.14-.016,1.707-.014.179-.218.343-.335.514-.105-.164-.29-.323-.3-.493C-80,473.174-79.977,472.6-79.977,472.121Z" transform="translate(-123.155 -130.656)" fill="#353c40"/>
      <path id="Path_57881" data-name="Path 57881" d="M-93.015,341.813c.517,0,1.033-.01,1.55,0a.944.944,0,0,1,1.011.942.927.927,0,0,1-.964.987q-1.632.037-3.265,0a.956.956,0,0,1-.969-.994.977.977,0,0,1,1.032-.934C-94.086,341.8-93.55,341.814-93.015,341.813Zm-.042,1.232c.5,0,1,.023,1.5-.014.148-.011.283-.194.424-.3-.135-.091-.268-.259-.405-.262-1-.023-2-.025-2.994,0-.144,0-.284.193-.425.3.154.093.3.253.463.265C-94.02,343.068-93.538,343.045-93.057,343.045Z" transform="translate(-109.769 -15.932)" fill="#353c40"/>
      <path id="Path_57882" data-name="Path 57882" d="M-79.8,371.2c-.267-.139-.524-.192-.589-.333-.05-.109.123-.34.229-.5a3.772,3.772,0,0,1,.347-.357.412.412,0,0,1,.7.01,3.482,3.482,0,0,1,.346.358c.1.155.267.4.213.5-.078.14-.33.184-.581.3,0,.5.024,1.087-.016,1.671-.011.163-.212.312-.326.468-.109-.161-.3-.316-.311-.483C-79.824,372.268-79.8,371.694-79.8,371.2Z" transform="translate(-123.332 -40.837)" fill="#353c40"/>
    </g>
  </g>
</svg>
