<svg xmlns="http://www.w3.org/2000/svg" width="17.153" height="20.828" viewBox="0 0 17.153 20.828">
  <g id="khata" transform="translate(0 0)">
    <path id="Path_57972" data-name="Path 57972" d="M197.322,160.332a.144.144,0,0,0-.106-.041h-.7a1.593,1.593,0,0,0-.295-.663h.985a.142.142,0,0,0,.147-.148v-.47a.142.142,0,0,0-.147-.147h-3.658a.142.142,0,0,0-.147.147v.613a.149.149,0,0,0,.147.148h.58q.972,0,1.235.52h-1.815a.142.142,0,0,0-.147.147v.47a.142.142,0,0,0,.147.148h1.88a.9.9,0,0,1-.472.576,2.08,2.08,0,0,1-.979.2h-.428a.149.149,0,0,0-.147.147v.484a.275.275,0,0,0,.066.179l1.915,2.315a.136.136,0,0,0,.115.055h.9a.133.133,0,0,0,.133-.083.126.126,0,0,0-.018-.157c-.9-1.1-1.335-1.583-1.848-2.13a2.336,2.336,0,0,0,1.272-.507,1.723,1.723,0,0,0,.595-1.078h.686a.142.142,0,0,0,.148-.147v-.47a.143.143,0,0,0-.041-.106Z" transform="translate(-185.18 -147.634)" fill="#353c40"/>
    <g id="XMLID_2123_" transform="translate(0 0)">
      <g id="XMLID_2124_" transform="translate(9.546)">
        <path id="XMLID_2125_" d="M190.388,8.111a.89.89,0,0,1-.294-.05l-1.559-.541-1.559.541a.892.892,0,0,1-.293.049.835.835,0,0,1-.853-.814V0h5.412V7.3A.835.835,0,0,1,190.388,8.111Zm-1.853-1.835a.892.892,0,0,1,.293.049l1.188.412V1.225h-2.962V6.737l1.188-.412A.892.892,0,0,1,188.535,6.276Z" transform="translate(-185.829)" fill="#353c40"/>
      </g>
      <g id="XMLID_2128_" transform="translate(0)">
        <path id="XMLID_2129_" d="M45.193,20.828H32.757A2.76,2.76,0,0,1,30,18.072V2.757A2.76,2.76,0,0,1,32.757,0H45.193a1.963,1.963,0,0,1,1.96,1.96V18.868A1.963,1.963,0,0,1,45.193,20.828ZM32.757,1.225a1.533,1.533,0,0,0-1.531,1.531V18.072A1.533,1.533,0,0,0,32.757,19.6H45.193a.736.736,0,0,0,.735-.735V1.96a.736.736,0,0,0-.735-.735Z" transform="translate(-30)" fill="#353c40"/>
      </g>
      <g id="XMLID_2134_" transform="translate(2.653 0.542)">
        <rect id="XMLID_2135_" width="1.316" height="19.745" transform="translate(0 0)" fill="#353c40"/>
      </g>
    </g>
  </g>
</svg>
