<svg xmlns="http://www.w3.org/2000/svg" width="38.043" height="44.284" viewBox="0 0 38.043 44.284">
  <g id="last_month_sale" transform="translate(-45 -491.717)">
    <path id="Path_57978" data-name="Path 57978" d="M-18547.035-22298.084l-5.916.883-7.666,9.395-3.834,9.781,1.285,8.551,2,1.668h4.383l20.342.723,3.441-1.109,3.166-3.666v-8.891l-3.832-9.057-4.609-4.334-5.117-3.943Z" transform="translate(18611 22802)" fill="#f5701c"/>
    <g id="money-bag-svgrepo-com" transform="translate(45 491.717)">
      <g id="Group_25431" data-name="Group 25431" transform="translate(0)">
        <path id="Path_57970" data-name="Path 57970" d="M69.752,25.29a31.669,31.669,0,0,0-4.788-7.678,35.668,35.668,0,0,0-6.132-5.828l4.7-8.709a1.09,1.09,0,0,0-.2-1.307A5.5,5.5,0,0,0,59.385,0a9.267,9.267,0,0,0-3.572.939,6.761,6.761,0,0,1-2.246.672,1.4,1.4,0,0,1-.525-.092,16.362,16.362,0,0,0-5.506-1.3,7.463,7.463,0,0,0-5.543,2.6A1.111,1.111,0,0,0,41.864,4.2l5.064,7.651a36.264,36.264,0,0,0-6.049,5.763,31.955,31.955,0,0,0-4.788,7.678A26.108,26.108,0,0,0,33.9,35.712a8.585,8.585,0,0,0,8.572,8.571h20.9a8.585,8.585,0,0,0,8.572-8.571A26.108,26.108,0,0,0,69.752,25.29ZM44.221,3.738a4.817,4.817,0,0,1,3.314-1.326,14.346,14.346,0,0,1,4.742,1.169,3.741,3.741,0,0,0,1.28.221,8.155,8.155,0,0,0,3.094-.838,7.467,7.467,0,0,1,2.725-.773,2.922,2.922,0,0,1,1.777.608l-4.419,8.212h-7.7Zm19.15,38.336h-20.9a6.369,6.369,0,0,1-6.362-6.362c0-5.9,2.164-11.5,6.417-16.636a33.8,33.8,0,0,1,6.252-5.855h8.268A33.159,33.159,0,0,1,63.3,19.076c4.263,5.137,6.417,10.726,6.417,16.636A6.342,6.342,0,0,1,63.371,42.074Z" transform="translate(-33.9 0)" fill="#fff"/>
      </g>
    </g>
    <g id="Group_25458" data-name="Group 25458" transform="translate(1 42)">
      <path id="Polygon_4" data-name="Polygon 4" d="M4,0,8,7H0Z" transform="translate(56 475)" fill="#fff"/>
      <path id="Polygon_5" data-name="Polygon 5" d="M4,0,8,7H0Z" transform="translate(70 483) rotate(180)" fill="#fff"/>
    </g>
    <rect id="Rectangle_2904" data-name="Rectangle 2904" width="2" height="4" transform="translate(60 524)" fill="#fff"/>
    <rect id="Rectangle_2905" data-name="Rectangle 2905" width="2" height="4" transform="translate(66 514)" fill="#fff"/>
  </g>
</svg>
