<svg xmlns="http://www.w3.org/2000/svg" width="13.4" height="19.25" viewBox="0 0 13.4 19.25">
  <g id="locked" transform="translate(0.2 0.2)">
    <path id="Path_3274" data-name="Path 3274" d="M26.3,30A1.3,1.3,0,0,0,25,31.3v1.95a1.3,1.3,0,1,0,2.6,0V31.3A1.3,1.3,0,0,0,26.3,30Zm.65,3.25a.65.65,0,1,1-1.3,0V31.3a.65.65,0,0,1,1.3,0Z" transform="translate(-19.8 -20.25)" fill="#0196fd" stroke="#0196fd" stroke-width="0.4"/>
    <path id="Path_3275" data-name="Path 3275" d="M19.075,6.927V3.322A3.459,3.459,0,0,0,15.5,0a3.459,3.459,0,0,0-3.575,3.322V6.927a6.5,6.5,0,1,0,7.15,0Zm-6.5-.376V3.322A2.81,2.81,0,0,1,15.5.65a2.81,2.81,0,0,1,2.925,2.672v3.23c-.061-.031-.124-.058-.185-.087q-.192-.09-.389-.167-.127-.05-.256-.094c-.084-.029-.168-.058-.254-.083-.142-.042-.286-.078-.43-.111l-.189-.04c-.17-.033-.341-.059-.513-.079l-.117-.01c-.2-.019-.393-.03-.591-.03s-.394.012-.59.03l-.117.01c-.172.019-.343.046-.513.079-.063.012-.126.026-.189.04-.145.033-.288.069-.43.111-.086.025-.17.055-.254.083s-.171.061-.256.094c-.132.051-.262.108-.389.167C12.7,6.493,12.636,6.52,12.575,6.551ZM15.5,18.2A5.849,5.849,0,0,1,13.425,6.887c.057-.022.115-.043.173-.063.089-.031.178-.06.268-.087q.166-.048.336-.086c.083-.019.165-.035.249-.051.12-.022.241-.041.363-.056l.166-.018c.172-.015.345-.026.52-.026s.348.011.52.026l.166.018c.123.014.243.034.363.056.083.015.166.032.249.051q.17.039.336.086c.09.026.179.056.268.087.058.02.115.042.173.063A5.846,5.846,0,0,1,15.5,18.2Z" transform="translate(-9)" fill="#0196fd" stroke="#0196fd" stroke-width="0.4"/>
  </g>
</svg>
