<svg xmlns="http://www.w3.org/2000/svg" xmlns:xlink="http://www.w3.org/1999/xlink" width="683" height="670" viewBox="0 0 683 670">
  <defs>
    <clipPath id="clip-path">
      <rect id="Rectangle_2623" data-name="Rectangle 2623" width="683" height="670" transform="translate(683)" fill="none"/>
    </clipPath>
    <linearGradient id="linear-gradient" x1="0.5" x2="0.5" y2="1" gradientUnits="objectBoundingBox">
      <stop offset="0" stop-color="#0196fd"/>
      <stop offset="1" stop-color="#0196fd"/>
    </linearGradient>
  </defs>
  <g id="login_circle_big" transform="translate(-683)" clip-path="url(#clip-path)">
    <path id="Subtraction_5" data-name="Subtraction 5" d="M2994.982-4686.035a425.75,425.75,0,0,1-42.838-2.163,420.089,420.089,0,0,1-41.6-6.349c-13.5-2.762-27.009-6.236-40.153-10.325-13-4.042-25.948-8.782-38.495-14.089a419.046,419.046,0,0,1-71.17-38.63,422,422,0,0,1-62.009-51.162,421.941,421.941,0,0,1-51.161-62.008,419.013,419.013,0,0,1-38.63-71.17c-5.306-12.545-10.047-25.5-14.089-38.494-4.089-13.146-7.562-26.655-10.324-40.153a420.125,420.125,0,0,1-6.349-41.6,425.735,425.735,0,0,1-2.163-42.838,425.735,425.735,0,0,1,2.163-42.838,420.1,420.1,0,0,1,6.349-41.6c2.762-13.5,6.236-27.007,10.324-40.153,4.042-13,8.783-25.948,14.089-38.494a418.981,418.981,0,0,1,38.63-71.17,421.969,421.969,0,0,1,51.161-62.008,421.979,421.979,0,0,1,62.009-51.162,419.043,419.043,0,0,1,71.17-38.63c12.545-5.306,25.5-10.046,38.495-14.089,13.146-4.088,26.656-7.562,40.153-10.324a420.089,420.089,0,0,1,41.6-6.349,425.587,425.587,0,0,1,42.838-2.163,425.587,425.587,0,0,1,42.838,2.163,420.089,420.089,0,0,1,41.6,6.349c13.5,2.762,27.006,6.235,40.153,10.324,13,4.043,25.95,8.784,38.494,14.089a419,419,0,0,1,71.17,38.63,421.979,421.979,0,0,1,62.009,51.162,421.97,421.97,0,0,1,51.161,62.008,419.017,419.017,0,0,1,38.63,71.17c5.306,12.546,10.047,25.5,14.089,38.494,4.089,13.146,7.563,26.656,10.324,40.153a420.013,420.013,0,0,1,6.349,41.6,425.735,425.735,0,0,1,2.163,42.838,425.735,425.735,0,0,1-2.163,42.838,420.015,420.015,0,0,1-6.349,41.6c-2.762,13.5-6.236,27.007-10.324,40.153-4.043,13-8.783,25.949-14.089,38.494a419.031,419.031,0,0,1-38.63,71.17,421.957,421.957,0,0,1-51.161,62.008,422,422,0,0,1-62.009,51.162,419.014,419.014,0,0,1-71.17,38.63c-12.545,5.307-25.5,10.046-38.494,14.089-13.145,4.089-26.654,7.563-40.153,10.325a420.089,420.089,0,0,1-41.6,6.349A425.75,425.75,0,0,1,2994.982-4686.035Zm0-708.786c-159.8,0-289.8,130.005-289.8,289.8s130.005,289.8,289.8,289.8,289.8-130.005,289.8-289.8S3154.781-5394.821,2994.982-5394.821Z" transform="translate(-1704.982 5363.018)" fill="url(#linear-gradient)"/>
  </g>
</svg>
