<svg xmlns="http://www.w3.org/2000/svg" xmlns:xlink="http://www.w3.org/1999/xlink" width="441" height="255.962" viewBox="0 0 441 255.962">
  <defs>
    <filter id="Path_3448" x="198.023" y="150.828" width="16.325" height="16.39" filterUnits="userSpaceOnUse">
      <feOffset input="SourceAlpha"/>
      <feGaussianBlur stdDeviation="1.5" result="blur"/>
      <feFlood flood-opacity="0.161"/>
      <feComposite operator="in" in2="blur"/>
      <feComposite in="SourceGraphic"/>
    </filter>
    <filter id="Path_3449" x="175.92" y="150.845" width="16.319" height="16.424" filterUnits="userSpaceOnUse">
      <feOffset input="SourceAlpha"/>
      <feGaussianBlur stdDeviation="1.5" result="blur-2"/>
      <feFlood flood-opacity="0.161"/>
      <feComposite operator="in" in2="blur-2"/>
      <feComposite in="SourceGraphic"/>
    </filter>
    <filter id="Path_3450" x="186.969" y="150.806" width="16.28" height="16.419" filterUnits="userSpaceOnUse">
      <feOffset input="SourceAlpha"/>
      <feGaussianBlur stdDeviation="1.5" result="blur-3"/>
      <feFlood flood-opacity="0.161"/>
      <feComposite operator="in" in2="blur-3"/>
      <feComposite in="SourceGraphic"/>
    </filter>
    <filter id="Path_3451" x="279.793" y="112.641" width="42.974" height="43.005" filterUnits="userSpaceOnUse">
      <feOffset dy="1" input="SourceAlpha"/>
      <feGaussianBlur stdDeviation="1.5" result="blur-4"/>
      <feFlood flood-opacity="0.161"/>
      <feComposite operator="in" in2="blur-4"/>
      <feComposite in="SourceGraphic"/>
    </filter>
    <filter id="Path_3452" x="272.023" y="120.257" width="42.994" height="43.04" filterUnits="userSpaceOnUse">
      <feOffset dy="1" input="SourceAlpha"/>
      <feGaussianBlur stdDeviation="1.5" result="blur-5"/>
      <feFlood flood-opacity="0.161"/>
      <feComposite operator="in" in2="blur-5"/>
      <feComposite in="SourceGraphic"/>
    </filter>
    <filter id="Path_3453" x="309.09" y="27.668" width="74.914" height="79.283" filterUnits="userSpaceOnUse">
      <feOffset input="SourceAlpha"/>
      <feGaussianBlur stdDeviation="2" result="blur-6"/>
      <feFlood flood-opacity="0.169"/>
      <feComposite operator="in" in2="blur-6"/>
      <feComposite in="SourceGraphic"/>
    </filter>
    <filter id="Path_3454" x="303.963" y="59.717" width="32.194" height="53.31" filterUnits="userSpaceOnUse">
      <feOffset dy="3" input="SourceAlpha"/>
      <feGaussianBlur stdDeviation="3" result="blur-7"/>
      <feFlood flood-opacity="0.161"/>
      <feComposite operator="in" in2="blur-7"/>
      <feComposite in="SourceGraphic"/>
    </filter>
    <filter id="Path_3455" x="356.902" y="59.716" width="32.311" height="53.343" filterUnits="userSpaceOnUse">
      <feOffset dy="3" input="SourceAlpha"/>
      <feGaussianBlur stdDeviation="3" result="blur-8"/>
      <feFlood flood-opacity="0.161"/>
      <feComposite operator="in" in2="blur-8"/>
      <feComposite in="SourceGraphic"/>
    </filter>
    <filter id="Path_3480" x="274.589" y="128.395" width="87.919" height="119.515" filterUnits="userSpaceOnUse">
      <feOffset dy="3" input="SourceAlpha"/>
      <feGaussianBlur stdDeviation="3" result="blur-9"/>
      <feFlood flood-opacity="0.161"/>
      <feComposite operator="in" in2="blur-9"/>
      <feComposite in="SourceGraphic"/>
    </filter>
    <filter id="Path_3486" x="348.002" y="121.779" width="73.009" height="73.012" filterUnits="userSpaceOnUse">
      <feOffset dy="3" input="SourceAlpha"/>
      <feGaussianBlur stdDeviation="3" result="blur-10"/>
      <feFlood flood-opacity="0.161"/>
      <feComposite operator="in" in2="blur-10"/>
      <feComposite in="SourceGraphic"/>
    </filter>
    <filter id="Path_3487" x="359.438" y="136.187" width="47.541" height="40.62" filterUnits="userSpaceOnUse">
      <feOffset dy="3" input="SourceAlpha"/>
      <feGaussianBlur stdDeviation="3" result="blur-11"/>
      <feFlood flood-opacity="0.161"/>
      <feComposite operator="in" in2="blur-11"/>
      <feComposite in="SourceGraphic"/>
    </filter>
    <filter id="Path_3489" x="45.637" y="40.203" width="113.358" height="106.756" filterUnits="userSpaceOnUse">
      <feOffset dy="1" input="SourceAlpha"/>
      <feGaussianBlur stdDeviation="1.5" result="blur-12"/>
      <feFlood flood-opacity="0.161"/>
      <feComposite operator="in" in2="blur-12"/>
      <feComposite in="SourceGraphic"/>
    </filter>
    <filter id="Path_3490" x="87.139" y="35.852" width="30.382" height="12.566" filterUnits="userSpaceOnUse">
      <feOffset input="SourceAlpha"/>
      <feGaussianBlur stdDeviation="0.5" result="blur-13"/>
      <feFlood flood-opacity="0.161"/>
      <feComposite operator="in" in2="blur-13"/>
      <feComposite in="SourceGraphic"/>
    </filter>
    <filter id="Path_3491" x="74.457" y="65.104" width="55.689" height="58.528" filterUnits="userSpaceOnUse">
      <feOffset dy="1" input="SourceAlpha"/>
      <feGaussianBlur stdDeviation="1.5" result="blur-14"/>
      <feFlood flood-opacity="0.161"/>
      <feComposite operator="in" in2="blur-14"/>
      <feComposite in="SourceGraphic"/>
    </filter>
    <filter id="Path_3492" x="71.176" y="58.558" width="62.294" height="28.776" filterUnits="userSpaceOnUse">
      <feOffset dy="1" input="SourceAlpha"/>
      <feGaussianBlur stdDeviation="1.5" result="blur-15"/>
      <feFlood flood-opacity="0.161"/>
      <feComposite operator="in" in2="blur-15"/>
      <feComposite in="SourceGraphic"/>
    </filter>
    <filter id="Path_3493" x="95.09" y="49.055" width="14.455" height="14.446" filterUnits="userSpaceOnUse">
      <feOffset input="SourceAlpha"/>
      <feGaussianBlur stdDeviation="0.5" result="blur-16"/>
      <feFlood flood-opacity="0.161"/>
      <feComposite operator="in" in2="blur-16"/>
      <feComposite in="SourceGraphic"/>
    </filter>
    <filter id="Path_3494" x="92.178" y="42.418" width="20.335" height="10.992" filterUnits="userSpaceOnUse">
      <feOffset input="SourceAlpha"/>
      <feGaussianBlur stdDeviation="0.5" result="blur-17"/>
      <feFlood flood-opacity="0.161"/>
      <feComposite operator="in" in2="blur-17"/>
      <feComposite in="SourceGraphic"/>
    </filter>
    <filter id="Path_3506" x="54.111" y="116.415" width="23.744" height="23.694" filterUnits="userSpaceOnUse">
      <feOffset dy="1" input="SourceAlpha"/>
      <feGaussianBlur stdDeviation="1.5" result="blur-18"/>
      <feFlood flood-opacity="0.161"/>
      <feComposite operator="in" in2="blur-18"/>
      <feComposite in="SourceGraphic"/>
    </filter>
    <filter id="Path_3507" x="85.486" y="73.438" width="33.669" height="43.577" filterUnits="userSpaceOnUse">
      <feOffset dy="1" input="SourceAlpha"/>
      <feGaussianBlur stdDeviation="1.5" result="blur-19"/>
      <feFlood flood-opacity="0.161"/>
      <feComposite operator="in" in2="blur-19"/>
      <feComposite in="SourceGraphic"/>
    </filter>
    <filter id="Path_3511" x="92.138" y="90.053" width="20.343" height="20.295" filterUnits="userSpaceOnUse">
      <feOffset dy="1" input="SourceAlpha"/>
      <feGaussianBlur stdDeviation="1.5" result="blur-20"/>
      <feFlood flood-opacity="0.161"/>
      <feComposite operator="in" in2="blur-20"/>
      <feComposite in="SourceGraphic"/>
    </filter>
    <filter id="Path_3512" x="94.728" y="153.73" width="102.983" height="102.232" filterUnits="userSpaceOnUse">
      <feOffset dy="3" input="SourceAlpha"/>
      <feGaussianBlur stdDeviation="1.5" result="blur-21"/>
      <feFlood flood-opacity="0.161"/>
      <feComposite operator="in" in2="blur-21"/>
      <feComposite in="SourceGraphic"/>
    </filter>
    <filter id="Path_3513" x="89.566" y="137.952" width="80.859" height="68.244" filterUnits="userSpaceOnUse">
      <feOffset dy="3" input="SourceAlpha"/>
      <feGaussianBlur stdDeviation="3" result="blur-22"/>
      <feFlood flood-opacity="0.161"/>
      <feComposite operator="in" in2="blur-22"/>
      <feComposite in="SourceGraphic"/>
    </filter>
    <filter id="Path_3514" x="102.667" y="222.562" width="30.886" height="30.915" filterUnits="userSpaceOnUse">
      <feOffset dy="3" input="SourceAlpha"/>
      <feGaussianBlur stdDeviation="3" result="blur-23"/>
      <feFlood flood-opacity="0.161"/>
      <feComposite operator="in" in2="blur-23"/>
      <feComposite in="SourceGraphic"/>
    </filter>
    <filter id="Path_3520" x="197.845" y="155.701" width="84.954" height="83.973" filterUnits="userSpaceOnUse">
      <feOffset dy="1" input="SourceAlpha"/>
      <feGaussianBlur stdDeviation="1.5" result="blur-24"/>
      <feFlood flood-opacity="0.161"/>
      <feComposite operator="in" in2="blur-24"/>
      <feComposite in="SourceGraphic"/>
    </filter>
    <filter id="Path_3521" x="201.268" y="198.712" width="26.799" height="27.976" filterUnits="userSpaceOnUse">
      <feOffset dy="3" input="SourceAlpha"/>
      <feGaussianBlur stdDeviation="3" result="blur-25"/>
      <feFlood flood-opacity="0.161"/>
      <feComposite operator="in" in2="blur-25"/>
      <feComposite in="SourceGraphic"/>
    </filter>
    <filter id="Path_3522" x="213.641" y="210.054" width="27.012" height="27.773" filterUnits="userSpaceOnUse">
      <feOffset dy="3" input="SourceAlpha"/>
      <feGaussianBlur stdDeviation="3" result="blur-26"/>
      <feFlood flood-opacity="0.161"/>
      <feComposite operator="in" in2="blur-26"/>
      <feComposite in="SourceGraphic"/>
    </filter>
    <filter id="Path_3523" x="206.459" y="199.664" width="29.207" height="37.018" filterUnits="userSpaceOnUse">
      <feOffset dy="3" input="SourceAlpha"/>
      <feGaussianBlur stdDeviation="3" result="blur-27"/>
      <feFlood flood-opacity="0.161"/>
      <feComposite operator="in" in2="blur-27"/>
      <feComposite in="SourceGraphic"/>
    </filter>
    <filter id="Path_3524" x="240.8" y="199.634" width="32.034" height="32.085" filterUnits="userSpaceOnUse">
      <feOffset dy="3" input="SourceAlpha"/>
      <feGaussianBlur stdDeviation="3" result="blur-28"/>
      <feFlood flood-opacity="0.161"/>
      <feComposite operator="in" in2="blur-28"/>
      <feComposite in="SourceGraphic"/>
    </filter>
    <filter id="Path_3525" x="233.414" y="192.198" width="32.41" height="32.168" filterUnits="userSpaceOnUse">
      <feOffset dy="3" input="SourceAlpha"/>
      <feGaussianBlur stdDeviation="3" result="blur-29"/>
      <feFlood flood-opacity="0.161"/>
      <feComposite operator="in" in2="blur-29"/>
      <feComposite in="SourceGraphic"/>
    </filter>
  </defs>
  <g id="login_bg" transform="translate(-167 -237.5)">
    <g id="Group_1327" data-name="Group 1327" transform="translate(2196.59 1877.463)">
      <g id="Group_1318" data-name="Group 1318" transform="translate(-1867.613 -1638.463)">
        <path id="Path_3447" data-name="Path 3447" d="M-1392.087-1510.913v15.735a17.525,17.525,0,0,1-2.939.595c-2.85.1-4.682,1.253-5.429,4.179a2.806,2.806,0,0,0,.3,2.734c1.084,1.469,2.044,3.029,2.873,4.275l-11.156,11.137a13.761,13.761,0,0,1-2.037-1.373c-2.184-2.05-4.447-2.524-7.125-.878-.753.463-1.325.756-1.48,1.712-.309,1.9-.752,3.786-1.135,5.651H-1555.2v-2.2q0-50.7.025-101.395a2.037,2.037,0,0,0-1.5-2.3c-3.4-1.375-5.863-3.905-6.414-7.558a70.918,70.918,0,0,1-.37-9.991,7.644,7.644,0,0,1,.579-2.887c4.172-10.134,8.4-20.245,12.589-30.37a5.767,5.767,0,0,0,.532-2.065c.038-4.182,0-8.365-.011-12.547h110.812c-.019,4.014-.068,8.029-.032,12.043a7.076,7.076,0,0,0,.522,2.573c4.2,10.179,8.454,20.339,12.667,30.514a6.4,6.4,0,0,1,.531,2.234c.062,2.676.1,5.356,0,8.03a10.7,10.7,0,0,1-6.967,10.1,1.836,1.836,0,0,0-1.358,2.045c.041,10.094.023,20.189.027,30.284,0,.488.047.976.082,1.649h13.219a15.413,15.413,0,0,1,.609,2.773c.08,3.062,1.352,5.041,4.5,5.742.807.18,1.379.367,2.113-.163,1.571-1.134,3.212-2.171,4.69-3.159l11.122,11.127a14.175,14.175,0,0,1-1.414,2.1c-2.122,2.241-2.593,4.61-.806,7.259.03.044.014.125.049.157.413.383.78.988,1.26,1.1C-1396.143-1511.6-1394.109-1511.283-1392.087-1510.913Zm-140.987,16.035c0-3.873-.02-7.651.009-11.428a25.42,25.42,0,0,1,.234-4.831c1.134-5.576,4.558-9.163,9.978-10.821,5.264-1.61,10.546-3.159,15.814-4.757a2.712,2.712,0,0,0,1.411-.725c.606-.872-.063-4.832-.813-5.651-2.153-2.35-3.855-5.024-4.146-8.214-.342-3.761-.3-7.561-.355-11.345a16.029,16.029,0,0,1,4.226-11.13,16.578,16.578,0,0,1,18.445-4.409,16.979,16.979,0,0,1,10.464,14.85c.035,3.012.013,6.024.01,9.036a14.531,14.531,0,0,1-3.581,10,7.236,7.236,0,0,0-1.915,5.707c.058,1.058.324,1.559,1.384,1.86,4.706,1.338,9.359,2.871,14.084,4.135,5.053,1.352,9.129,3.809,11.2,8.917,1.443-1.953,1.867-3.727.07-5.657a26.49,26.49,0,0,1-2.415-3.605c2.635-2.619,5.216-5.085,7.657-7.682a4.177,4.177,0,0,0,1.074-2.583c.068-12.494.048-24.988.043-37.482,0-.534-.057-1.067-.091-1.677a11.48,11.48,0,0,1-10.927-3.509,11.211,11.211,0,0,1-8.276,3.742,11.37,11.37,0,0,1-8.256-3.671c-4.942,4.83-11.538,4.971-16.631.061-5.563,4.946-11.135,4.873-16.674-.061a11.085,11.085,0,0,1-8.248,3.669,11.541,11.541,0,0,1-8.289-3.73,11.385,11.385,0,0,1-10.887,3.515v77.48Zm84.555,22.115-10.448-10.328,4.023-6.126h-89.278v-86.235a25.526,25.526,0,0,1-3.935,2.389,2.033,2.033,0,0,0-1.532,2.295q.052,48.12.031,96.241c0,.585.057,1.169.089,1.765Zm17.284.1c.643,0,1.084.013,1.525,0,1.6-.055,3.632.445,4.686-.347.947-.712.741-2.874,1.218-4.34a2.6,2.6,0,0,1,1.313-1.383c1.88-.82,4.019-1.2,5.7-2.293,2.3-1.5,4.119-1.346,5.983.484,1.327,1.3,2.359,1.116,3.654-.289,2.819-3.056,2.939-3,.551-6.471-.7-1.018-.978-1.8-.186-2.955a10.054,10.054,0,0,0,1.866-3.885c.552-3.64,2.508-5.341,6.121-5.423a1.559,1.559,0,0,0,1.054-1.09c.114-1.824.05-3.659.05-5.565-1.4-.278-2.64-.574-3.9-.763-1.309-.2-2.218-.626-2.444-2.156a13.626,13.626,0,0,0-1.143-3.478c-.679-1.521-2.171-3.015-2.088-4.45.087-1.507,1.657-2.91,2.495-4.406a1.375,1.375,0,0,0-.054-1.248c-1.21-1.441-2.512-2.805-3.768-4.18-1.7,1.122-3.012,2.066-4.409,2.864a2.132,2.132,0,0,1-1.621.077q-4.031-1.574-7.989-3.332a2.389,2.389,0,0,1-1.19-1.294c-.475-1.525-.29-3.712-1.274-4.5-1.006-.8-3.091-.246-4.7-.279-.441-.009-.882,0-1.428,0-.346,1.591-.781,3.089-.967,4.616-.127,1.046-.667,1.3-1.533,1.62-2.542.954-5.009,2.11-7.545,3.082a2.55,2.55,0,0,1-1.9-.064c-1.4-.766-2.686-1.731-3.763-2.448l-4.715,4.612c.828,1.245,1.78,2.555,2.582,3.952a2.125,2.125,0,0,1,.059,1.618q-1.576,4.028-3.332,7.984a2.3,2.3,0,0,1-1.3,1.138c-1.535.442-3.12.713-4.764,1.067,0,1.666.088,3.229-.027,4.778-.1,1.338.337,1.922,1.706,1.994a9.352,9.352,0,0,1,2.926.622,2.991,2.991,0,0,1,1.5,1.369c1.154,2.522,2.221,5.087,3.213,7.677a2.557,2.557,0,0,1-.084,1.905c-.763,1.4-1.72,2.694-2.709,4.2,1.216,1.144,2.416,2.154,3.467,3.3.813.886,1.469,1.155,2.486.294a16.016,16.016,0,0,1,2.918-1.939,2.185,2.185,0,0,1,1.61-.031q4.029,1.568,7.991,3.3a2.124,2.124,0,0,1,1.092,1.182C-1431.872-1475.989-1431.6-1474.4-1431.235-1472.665Zm-30.53-38.672a8.28,8.28,0,0,0-5.782-5.29c-5.531-1.68-11.075-3.318-16.6-5.018a1.728,1.728,0,0,0-2.028.529c-2.668,2.763-5.4,5.464-8.17,8.249-2.812-2.809-5.515-5.542-8.27-8.222a1.971,1.971,0,0,0-1.492-.611c-6.136,1.789-12.294,3.522-18.346,5.569a7.033,7.033,0,0,0-4.928,6.741c-.159,4.732-.067,9.472-.072,14.208,0,.091.113.181.177.274h10.8v-13.514h5.576v13.546h33.139v-13.567h5.629v13.6h8.249v-15.924Zm-21.37-37.152-.3-.029c0-1.561.053-3.124-.009-4.682a11,11,0,0,0-10.8-10.6,10.929,10.929,0,0,0-11.03,10.331c-.165,3.279-.143,6.578.008,9.858a10.74,10.74,0,0,0,9.007,9.962c5.682.73,10.7-2.1,12.185-7.276C-1483.378-1543.336-1483.424-1545.961-1483.135-1548.488Zm38.444-84.243h-99.3v5.21h99.3Zm-63.234,38.371h10.642V-1621.7h-8.352C-1506.4-1612.586-1507.155-1603.549-1507.924-1594.361Zm27.109.041c-.78-9.244-1.546-18.32-2.307-27.343h-8.31v27.343Zm32.067.062c.038-.3.091-.422.06-.516q-4.332-13.069-8.7-26.126a1.452,1.452,0,0,0-1-.853c-2.435-.074-4.873-.039-7.307-.039a3.3,3.3,0,0,0-.031.7c2.125,8.641,4.247,17.284,6.427,25.911a1.511,1.511,0,0,0,1.111.878C-1455.074-1594.227-1451.954-1594.258-1448.748-1594.258Zm-74.1-27.539c-2.363,0-4.53.08-6.687-.031-1.248-.064-1.73.426-2.1,1.552-2.646,8.085-5.361,16.148-8.046,24.222-.179.54-.284,1.1-.436,1.712h10.4Zm-14.128,0c-2.369,0-4.484.072-6.591-.029a1.844,1.844,0,0,0-2.089,1.381c-1.98,4.893-4.046,9.752-6.074,14.626-1.574,3.785-3.136,7.576-4.755,11.488h10.35Zm85.2,0c3.034,9.1,5.974,17.948,8.953,26.78a1.26,1.26,0,0,0,.9.721c3.157.053,6.316.032,9.437.032.048-.189.089-.254.072-.3q-5.473-13.239-10.982-26.461a1.486,1.486,0,0,0-1.09-.743C-1446.818-1621.827-1449.152-1621.793-1451.774-1621.793Zm7.149,46.411v1.767c0,13.275.034,26.55-.044,39.825a3.179,3.179,0,0,0,1.875,3.282c1.375.711,3.653-.384,3.654-1.908q.023-19.494-.021-38.988a1.785,1.785,0,0,0-.7-1.3C-1441.354-1573.632-1442.921-1574.439-1444.625-1575.382Zm-68.9-18.949,2.284-27.458c-1.811,0-3.47-.061-5.118.049-.349.023-.841.617-.955,1.033-.777,2.837-1.478,5.7-2.191,8.55-1.478,5.915-2.947,11.833-4.439,17.827Zm48.552.009a2.61,2.61,0,0,0,0-.551q-3.224-13.024-6.483-26.04c-.085-.337-.528-.817-.823-.83-1.7-.079-3.409-.039-5.231-.039.781,9.309,1.541,18.376,2.3,27.46Zm23.268,5.754c0,2.169-.133,4.171.033,6.148a5.163,5.163,0,0,0,5.019,4.685c2.666.163,5.29-1.6,5.63-4.184a51.665,51.665,0,0,0,.058-6.649Zm-82.986,0c0,2.062-.062,3.947.015,5.827a5.25,5.25,0,0,0,4.755,4.963c2.719.3,5.4-1.26,5.861-3.827a54.218,54.218,0,0,0,.376-6.963Zm-16.508.008a48.334,48.334,0,0,0,.056,6.454,5.16,5.16,0,0,0,5.446,4.389,5.316,5.316,0,0,0,5.252-4.671,58.658,58.658,0,0,0,.043-6.173Zm66.351.017a60.267,60.267,0,0,0,.045,6.37,5.165,5.165,0,0,0,5.232,4.468,5.346,5.346,0,0,0,5.443-4.473,61.367,61.367,0,0,0,.044-6.365Zm-16.673-.027c0,2.144-.111,4.145.028,6.129a5.289,5.289,0,0,0,4.886,4.681c2.646.243,5.268-1.32,5.715-3.826a57.1,57.1,0,0,0,.425-6.983Zm-16.681.007c0,1.859-.017,3.524.011,5.188a7.315,7.315,0,0,0,.224,1.485,5.3,5.3,0,0,0,4.85,4.14c2.446.2,4.984-1.14,5.484-3.453a51.554,51.554,0,0,0,.58-7.36Zm49.819.014c0,2.03-.069,3.869.016,5.7a5.367,5.367,0,0,0,5.035,5.1,5.17,5.17,0,0,0,5.7-4.276,63.661,63.661,0,0,0,.33-6.525Zm-99.434-.008c-.029.57-.066.955-.065,1.339,0,1.5-.037,3,.043,4.5a5.249,5.249,0,0,0,4.926,4.964c2.7.226,5.358-1.444,5.721-4.022a49.353,49.353,0,0,0,.064-6.781Zm68.784,59.8a17.979,17.979,0,0,1-11-.072c.191,1.126.047,2.257.545,2.847,1.535,1.821,3.315,3.436,5.168,5.3,1.491-1.545,2.808-3.062,4.29-4.4A3.186,3.186,0,0,0-1489.033-1528.755Zm52.179,56.024c-.948-2.342-3.259-2.747-4.671-2.805-1.631-.068-3.331,1.509-5,2.372l.236.433Z" transform="translate(1563.459 1638.463)" fill="#797884" stroke="#fff" stroke-width="3"/>
        <g transform="matrix(1, 0, 0, 1, -161.98, -1.5)" filter="url(#Path_3448)">
          <path id="Path_3448-2" data-name="Path 3448" d="M-1407.905-1053.38v-5.39h5.325v5.39Z" transform="translate(1611.43 1215.1)" fill="#797884" stroke="#fff" stroke-width="2"/>
        </g>
        <g transform="matrix(1, 0, 0, 1, -161.98, -1.5)" filter="url(#Path_3449)">
          <path id="Path_3449-2" data-name="Path 3449" d="M-1490.659-1058.708h5.319v5.424h-5.319Z" transform="translate(1672.08 1215.05)" fill="#797884" stroke="#fff" stroke-width="2"/>
        </g>
        <g transform="matrix(1, 0, 0, 1, -161.98, -1.5)" filter="url(#Path_3450)">
          <path id="Path_3450-2" data-name="Path 3450" d="M-1449.292-1058.854h5.28v5.419h-5.28Z" transform="translate(1641.76 1215.16)" fill="#797884" stroke="#fff" stroke-width="2"/>
        </g>
        <g transform="matrix(1, 0, 0, 1, -161.98, -1.5)" filter="url(#Path_3451)">
          <path id="Path_3451-2" data-name="Path 3451" d="M-1071.221-1173.143l-4.309-3.088c4.591-7.595,1.906-14.382-1.7-17.894-3.923-3.816-10.568-5.774-17.672-1.459l-3.047-4.288c5.666-4.882,17.013-5.616,24.485,1.589C-1066.557-1191.617-1065.449-1180.062-1071.221-1173.143Z" transform="translate(1384.26 1321.26)" fill="#666573" stroke="#fff" stroke-width="3"/>
        </g>
        <g transform="matrix(1, 0, 0, 1, -161.98, -1.5)" filter="url(#Path_3452)">
          <path id="Path_3452-2" data-name="Path 3452" d="M-1120.882-1169.962c-3.477,7.892-2.962,13.4,1.672,17.881,4.028,3.892,10.719,5.782,17.7,1.514l3.077,4.243c-5.14,4.634-16.2,5.729-23.681-.841-7.652-6.716-9.065-18.166-3.076-25.863Z" transform="translate(1406.95 1298.84)" fill="#666573" stroke="#fff" stroke-width="3"/>
        </g>
      </g>
      <g id="Group_1319" data-name="Group 1319" transform="translate(-1716.125 -1605.776)">
        <g transform="matrix(1, 0, 0, 1, -313.46, -34.19)" filter="url(#Path_3453)">
          <path id="Path_3453-2" data-name="Path 3453" d="M-976.573-1488.39a7.837,7.837,0,0,1-5.808-12.4,7.737,7.737,0,0,1-5.6-5.468,7.421,7.421,0,0,1,.746-5.957,7.734,7.734,0,0,1,10.678-2.765,7.8,7.8,0,0,1,2.263,11.241,7.827,7.827,0,0,1,5.111,4.16,7.736,7.736,0,0,1,.076,6.68,8.169,8.169,0,0,1,4.543,1.8,7.822,7.822,0,0,1,2.59,4.129,7.872,7.872,0,0,1,9.218-.02,7.934,7.934,0,0,1,7.152-5.916,7.827,7.827,0,0,1,.07-6.628,7.773,7.773,0,0,1,5.122-4.194,7.811,7.811,0,0,1,2.685-11.483,7.768,7.768,0,0,1,10.554,3.522,7.835,7.835,0,0,1-5.132,10.918,7.651,7.651,0,0,1,.7,7.9,7.689,7.689,0,0,1-6.532,4.435c1.321,3.61.8,6.821-2.184,9.255s-6.228,2.326-9.466.305c-.175.451-.322.908-.525,1.338a7.545,7.545,0,0,1-5.3,4.324c-.506.121-.573.332-.62.785a1.855,1.855,0,0,0,1.378,2.315,8.361,8.361,0,0,1,3.982,3.875,14.605,14.605,0,0,1,2.347,8.209,8.878,8.878,0,0,1-7.494,8.132,8.79,8.79,0,0,1-10.053-7.389,10.374,10.374,0,0,1,.441-4.865,14.077,14.077,0,0,1,3.911-6.652,13.464,13.464,0,0,1,2.768-1.705c.344-.181.513-.317.491-.707-.031-.568.171-1.257-.085-1.672-.219-.355-.949-.385-1.445-.579a7.837,7.837,0,0,1-4.89-5.416c-3.281,2.041-6.561,2.143-9.561-.354C-977.381-1481.674-977.871-1484.87-976.573-1488.39Zm25.824,29.717.177-.045c-.326-1.285-.56-2.6-1-3.847a10.732,10.732,0,0,0-3.439-5.107,3.447,3.447,0,0,0-4.586-.066,9.348,9.348,0,0,0-2.679,3.281,11.54,11.54,0,0,0-1.633,6.594,6.615,6.615,0,0,0,6.737,5.839A6.593,6.593,0,0,0-950.749-1458.673Zm-6.576-16.563a5.516,5.516,0,0,0,5.5-5.53,5.506,5.506,0,0,0-5.577-5.45,5.508,5.508,0,0,0-5.466,5.495A5.512,5.512,0,0,0-957.324-1475.236Zm24.288-20.9a12.091,12.091,0,0,0-.173-1.364,5.519,5.519,0,0,0-6.411-4.1,5.454,5.454,0,0,0-4.413,6.011c.2,1.556.748,2.964,2.411,3.617a9.62,9.62,0,0,1,1.322.845,2.434,2.434,0,0,0,.762.335A5.461,5.461,0,0,0-933.037-1496.131Zm-47.456-17.711a5.483,5.483,0,0,0-5.121,3.353,5.523,5.523,0,0,0,1.158,6.015,4.72,4.72,0,0,0,5.433,1.139c.362-.146.754-.22,1.117-.366a3.492,3.492,0,0,0,.973-.5,5.5,5.5,0,0,0,1.554-6.089A5.481,5.481,0,0,0-980.493-1513.842Zm5.494,28.653a5.455,5.455,0,0,0,6.75,5.4c1.714-.434,3.157-1.3,3.547-3.257a10.47,10.47,0,0,1,.416-1.1,3.594,3.594,0,0,0,.253-1.058,5.487,5.487,0,0,0-5.486-5.457A5.508,5.508,0,0,0-975-1485.189Zm35.3.034a5.434,5.434,0,0,0-3.6-5.143,5.385,5.385,0,0,0-6.066,1.609c-1.192,1.49-1.814,3.137-.841,5.032a11.382,11.382,0,0,1,.388,1.178,3.032,3.032,0,0,0,.426.867,5.463,5.463,0,0,0,6.123,1.621A5.444,5.444,0,0,0-939.7-1485.155Zm-30.917-11.182c-.026-.188-.059-.536-.124-.879a5.5,5.5,0,0,0-5.327-4.492,5.54,5.54,0,0,0-5.444,4.371,5.45,5.45,0,0,0,3.092,6.131c1.559.675,3.145.924,4.616-.328a10.374,10.374,0,0,1,1.251-.711,3.1,3.1,0,0,0,.8-.639A5.522,5.522,0,0,0-970.615-1496.337Zm36.489-17.5a5.46,5.46,0,0,0-5.423,6.419c.349,1.849,1.188,3.437,3.3,3.875a9.267,9.267,0,0,1,1.153.458,2.935,2.935,0,0,0,.874.223,5.468,5.468,0,0,0,5.564-5.37A5.49,5.49,0,0,0-934.126-1513.837Z" transform="translate(1303.89 1550.27)" fill="#666573" stroke="#fff" stroke-width="1"/>
        </g>
        <g transform="matrix(1, 0, 0, 1, -313.46, -34.19)" filter="url(#Path_3454)">
          <path id="Path_3454-2" data-name="Path 3454" d="M-992.882-1386.034a5.638,5.638,0,0,1-.617-8.621,5.556,5.556,0,0,1,7.851.258,5.6,5.6,0,0,1-.883,8.364l.3.4a4.377,4.377,0,0,1-1.827,6.818c-.415.169-.58.358-.538.8.04.423-.075.82.527,1.027a4.356,4.356,0,0,1,1.491.927,10.377,10.377,0,0,1,3.5,7.794,6.586,6.586,0,0,1-5.907,6.4,6.506,6.506,0,0,1-7.2-5.462,9.809,9.809,0,0,1,3.975-9.194,3.543,3.543,0,0,1,.677-.4,1.08,1.08,0,0,0,.715-1.459.53.53,0,0,0-.255-.315C-994.391-1380.374-995.026-1382.947-992.882-1386.034Zm7.592,17.5a9.3,9.3,0,0,0-2.238-5.414c-1.437-1.581-2.866-1.609-4.295-.035a9.036,9.036,0,0,0-2.208,4.745,4.376,4.376,0,0,0,4.112,5.1A4.4,4.4,0,0,0-985.289-1368.532Zm-4.412-18.81a3.273,3.273,0,0,0,3.31-3.274,3.331,3.331,0,0,0-3.3-3.316,3.292,3.292,0,0,0-3.293,3.3A3.242,3.242,0,0,0-989.7-1387.342Zm2.187,4.494a2.165,2.165,0,0,0-2.171-2.233,2.178,2.178,0,0,0-2.2,2.147,2.215,2.215,0,0,0,2.177,2.25A2.2,2.2,0,0,0-987.514-1382.848Z" transform="translate(1309.74 1462.37)" fill="#666573" stroke="#fff" stroke-width="1"/>
        </g>
        <g transform="matrix(1, 0, 0, 1, -313.46, -34.19)" filter="url(#Path_3455)">
          <path id="Path_3455-2" data-name="Path 3455" d="M-794.54-1386.029a5.618,5.618,0,0,1-.757-8.5,5.553,5.553,0,0,1,7.855,0,5.631,5.631,0,0,1-.77,8.506,4.609,4.609,0,0,1,1.254,3,4.317,4.317,0,0,1-2.783,4.2.68.68,0,0,0-.517.815c.037.394-.1.782.477.984a5.943,5.943,0,0,1,2.641,2.1,11.445,11.445,0,0,1,2.385,5.817,6.677,6.677,0,0,1-5.667,7.214,6.74,6.74,0,0,1-7.475-5.323c-.656-3.238,1.842-8.784,5.127-9.9.507-.172.269-.591.273-.895,0-.232-.1-.6-.272-.681C-796.027-1380.3-796.737-1383.136-794.54-1386.029Zm-1.232,17.17a4.463,4.463,0,0,0,4.145,4.721,4.259,4.259,0,0,0,4.55-3.588,7.7,7.7,0,0,0-2.533-6.6,2.242,2.242,0,0,0-3.485-.042A8.744,8.744,0,0,0-795.772-1368.859Zm4.414-18.486a3.244,3.244,0,0,0,3.273-3.295,3.292,3.292,0,0,0-3.3-3.294,3.328,3.328,0,0,0-3.289,3.321A3.273,3.273,0,0,0-791.358-1387.345Zm2.176,4.459a2.177,2.177,0,0,0-2.148-2.2,2.16,2.16,0,0,0-2.22,2.182,2.193,2.193,0,0,0,2.206,2.214A2.219,2.219,0,0,0-789.182-1382.886Z" transform="translate(1164.42 1462.37)" fill="#666573" stroke="#fff" stroke-width="1"/>
        </g>
        <path id="Path_3456" data-name="Path 3456" d="M-883.931-1328.327a6.593,6.593,0,0,1-6.421,6.649,6.615,6.615,0,0,1-6.737-5.839,11.541,11.541,0,0,1,1.633-6.594,9.349,9.349,0,0,1,2.679-3.281,3.447,3.447,0,0,1,4.586.066,10.732,10.732,0,0,1,3.439,5.107c.438,1.245.672,2.562,1,3.847Zm-11.022-.4c-.039.95.387,1.5,1.038,1.542.635.045,1.024-.406,1.193-1.129a22,22,0,0,1,.964-3.307,4.639,4.639,0,0,1,1.9-2.435,1.045,1.045,0,0,0,.264-1.41,1.022,1.022,0,0,0-1.362-.449,3.363,3.363,0,0,0-1.112.785A11.283,11.283,0,0,0-894.953-1328.724Z" transform="translate(923.61 1385.733)" fill="#fff"/>
        <path id="Path_3457" data-name="Path 3457" d="M-887.539-1393.29a5.512,5.512,0,0,1-5.542-5.485,5.508,5.508,0,0,1,5.466-5.495,5.506,5.506,0,0,1,5.577,5.45A5.516,5.516,0,0,1-887.539-1393.29Zm-3.424-5.438a12.48,12.48,0,0,0,.506,1.529,1.048,1.048,0,0,0,1.447.489,1.1,1.1,0,0,0,.551-1.379c-.372-1.142-.125-1.578,1.028-1.812a1.077,1.077,0,0,0,.956-1.252,1.136,1.136,0,0,0-1.28-.954A3.478,3.478,0,0,0-890.962-1398.728Z" transform="translate(920.642 1434.133)" fill="#fff"/>
        <path id="Path_3458" data-name="Path 3458" d="M-811.69-1456.625a5.461,5.461,0,0,1-6.5,5.342,2.435,2.435,0,0,1-.762-.335,9.621,9.621,0,0,0-1.322-.845c-1.663-.653-2.211-2.06-2.411-3.617a5.454,5.454,0,0,1,4.413-6.011,5.519,5.519,0,0,1,6.411,4.1A12.08,12.08,0,0,1-811.69-1456.625Zm-8.866.208a8.972,8.972,0,0,0,.367,1.2,1.062,1.062,0,0,0,1.445.633,1.109,1.109,0,0,0,.608-1.469c-.332-1.1-.1-1.479,1.046-1.726a1.112,1.112,0,0,0,.959-1.208,1.061,1.061,0,0,0-1.152-1A3.383,3.383,0,0,0-820.556-1456.417Z" transform="translate(869.081 1476.572)" fill="#fff"/>
        <path id="Path_3459" data-name="Path 3459" d="M-974.312-1507.705a5.481,5.481,0,0,1,5.113,3.556,5.5,5.5,0,0,1-1.554,6.089,3.5,3.5,0,0,1-.973.5c-.363.146-.754.22-1.117.366a4.719,4.719,0,0,1-5.433-1.139,5.523,5.523,0,0,1-1.158-6.015A5.483,5.483,0,0,1-974.312-1507.705Zm-3.377,5.779a8.97,8.97,0,0,0,.419,1.288,1.088,1.088,0,0,0,1.452.525,1.124,1.124,0,0,0,.569-1.388c-.345-1.194-.148-1.543,1.028-1.813a1.08,1.08,0,0,0,.95-1.266,1.113,1.113,0,0,0-1.232-.931A3.417,3.417,0,0,0-977.689-1501.926Z" transform="translate(984.247 1509.942)" fill="#fff"/>
        <path id="Path_3460" data-name="Path 3460" d="M-938.505-1415.45a5.508,5.508,0,0,1,5.48-5.475,5.487,5.487,0,0,1,5.487,5.457,3.6,3.6,0,0,1-.253,1.058,10.449,10.449,0,0,0-.416,1.1c-.39,1.959-1.833,2.823-3.547,3.257A5.455,5.455,0,0,1-938.505-1415.45Zm2.165.279a9.531,9.531,0,0,0,.411,1.3,1.055,1.055,0,0,0,1.424.561,1.116,1.116,0,0,0,.609-1.418c-.338-1.184-.152-1.5,1.041-1.777a1.112,1.112,0,0,0,.948-1.218,1.065,1.065,0,0,0-1.166-.984A3.4,3.4,0,0,0-936.34-1415.171Z" transform="translate(953.934 1446.339)" fill="#fff"/>
        <path id="Path_3461" data-name="Path 3461" d="M-836.486-1415.351a5.444,5.444,0,0,1-3.572,5.165,5.464,5.464,0,0,1-6.123-1.621,3.037,3.037,0,0,1-.426-.868,11.388,11.388,0,0,0-.388-1.178c-.973-1.895-.35-3.542.841-5.032a5.385,5.385,0,0,1,6.066-1.609A5.434,5.434,0,0,1-836.486-1415.351Zm-8.919.013a13.522,13.522,0,0,0,.5,1.538,1.045,1.045,0,0,0,1.425.554,1.12,1.12,0,0,0,.6-1.423c-.363-1.166-.172-1.49,1.043-1.77a1.157,1.157,0,0,0,.971-1.215,1.115,1.115,0,0,0-1.186-.986A3.454,3.454,0,0,0-845.406-1415.338Z" transform="translate(887.216 1446.275)" fill="#fff"/>
        <path id="Path_3462" data-name="Path 3462" d="M-952.338-1456.9a5.521,5.521,0,0,1-1.139,3.453,3.094,3.094,0,0,1-.8.639,10.38,10.38,0,0,0-1.251.711c-1.471,1.252-3.057,1-4.616.328a5.45,5.45,0,0,1-3.092-6.131,5.54,5.54,0,0,1,5.444-4.371,5.5,5.5,0,0,1,5.327,4.492C-952.4-1457.44-952.364-1457.091-952.338-1456.9Zm-8.909.2a12.769,12.769,0,0,0,.448,1.42,1.052,1.052,0,0,0,1.448.622,1.128,1.128,0,0,0,.594-1.476,1.988,1.988,0,0,1-.1-.94c.123-.53.554-.714,1.086-.776a1.128,1.128,0,0,0,1.046-1.208,1.131,1.131,0,0,0-1.245-.995A3.43,3.43,0,0,0-961.247-1456.7Z" transform="translate(972.151 1476.645)" fill="#fff"/>
        <path id="Path_3463" data-name="Path 3463" d="M-800.615-1507.685a5.491,5.491,0,0,1,5.471,5.6,5.468,5.468,0,0,1-5.564,5.37,2.934,2.934,0,0,1-.874-.223,9.225,9.225,0,0,0-1.153-.458c-2.116-.437-2.954-2.025-3.3-3.875A5.46,5.46,0,0,1-800.615-1507.685Zm-3.446,5.522a13.856,13.856,0,0,0,.5,1.533,1.052,1.052,0,0,0,1.417.574,1.123,1.123,0,0,0,.623-1.413c-.361-1.228-.184-1.542,1.04-1.836a1.129,1.129,0,0,0,.948-1.216,1.15,1.15,0,0,0-1.271-.976A3.488,3.488,0,0,0-804.061-1502.163Z" transform="translate(856.917 1509.927)" fill="#fff"/>
        <path id="Path_3464" data-name="Path 3464" d="M-979.3-1310.883a4.4,4.4,0,0,1-4.628,4.4,4.376,4.376,0,0,1-4.112-5.1,9.036,9.036,0,0,1,2.207-4.745c1.429-1.574,2.858-1.546,4.295.035A9.293,9.293,0,0,1-979.3-1310.883Zm-6.622-.194a2.562,2.562,0,0,0,.172.736.988.988,0,0,0,1.156.54,1.135,1.135,0,0,0,.916-1.136,5.339,5.339,0,0,1,.891-2.7,1.265,1.265,0,0,0-.005-1.139,1.254,1.254,0,0,0-1.019-.49,1.73,1.73,0,0,0-1.022.7A7.1,7.1,0,0,0-985.924-1311.076Z" transform="translate(990.285 1370.536)" fill="#fff"/>
        <path id="Path_3465" data-name="Path 3465" d="M-980.665-1381.242a3.242,3.242,0,0,1-3.278-3.289,3.292,3.292,0,0,1,3.293-3.3,3.331,3.331,0,0,1,3.3,3.316A3.273,3.273,0,0,1-980.665-1381.242Z" transform="translate(987.236 1422.085)" fill="#fff"/>
        <path id="Path_3466" data-name="Path 3466" d="M-975.468-1352.46a2.2,2.2,0,0,1-2.19,2.165,2.215,2.215,0,0,1-2.178-2.25,2.178,2.178,0,0,1,2.2-2.147A2.165,2.165,0,0,1-975.468-1352.46Z" transform="translate(984.226 1397.797)" fill="#fff"/>
        <path id="Path_3467" data-name="Path 3467" d="M-789.655-1311.294a8.745,8.745,0,0,1,2.677-5.512,2.242,2.242,0,0,1,3.485.042,7.7,7.7,0,0,1,2.533,6.6,4.259,4.259,0,0,1-4.55,3.588A4.463,4.463,0,0,1-789.655-1311.294Zm2.057,0a3.738,3.738,0,0,0,.61,1.192c.7.623,1.654.08,1.766-.984a5.7,5.7,0,0,1,.878-2.631,1.406,1.406,0,0,0-.031-1.2c-.374-.7-1.363-.636-1.911.11A9.005,9.005,0,0,0-787.6-1311.294Z" transform="translate(844.84 1370.623)" fill="#fff"/>
        <path id="Path_3468" data-name="Path 3468" d="M-782.224-1381.241a3.273,3.273,0,0,1-3.315-3.268,3.328,3.328,0,0,1,3.289-3.321,3.292,3.292,0,0,1,3.3,3.294A3.244,3.244,0,0,1-782.224-1381.241Z" transform="translate(841.823 1422.084)" fill="#fff"/>
        <path id="Path_3469" data-name="Path 3469" d="M-776.965-1352.492a2.219,2.219,0,0,1-2.162,2.2,2.193,2.193,0,0,1-2.206-2.214,2.16,2.16,0,0,1,2.22-2.182A2.178,2.178,0,0,1-776.965-1352.492Z" transform="translate(838.741 1397.794)" fill="#fff"/>
        <path id="Path_3470" data-name="Path 3470" d="M-888.985-1322.643a11.282,11.282,0,0,1,2.888-6.4,3.36,3.36,0,0,1,1.112-.785,1.022,1.022,0,0,1,1.362.449,1.046,1.046,0,0,1-.264,1.41,4.64,4.64,0,0,0-1.9,2.435,21.994,21.994,0,0,0-.964,3.307c-.169.723-.557,1.175-1.193,1.13C-888.6-1321.146-889.023-1321.692-888.985-1322.643Z" transform="translate(917.642 1379.651)" fill="#666573"/>
        <path id="Path_3471" data-name="Path 3471" d="M-885.148-1392.8a3.478,3.478,0,0,1,3.208-3.378,1.137,1.137,0,0,1,1.28.953,1.078,1.078,0,0,1-.956,1.252c-1.153.234-1.4.67-1.028,1.812a1.1,1.1,0,0,1-.551,1.379,1.048,1.048,0,0,1-1.447-.489A12.5,12.5,0,0,1-885.148-1392.8Z" transform="translate(914.828 1428.203)" fill="#666573"/>
        <path id="Path_3472" data-name="Path 3472" d="M-814.592-1450.4a3.383,3.383,0,0,1,3.271-3.565,1.061,1.061,0,0,1,1.152,1,1.112,1.112,0,0,1-.959,1.209c-1.147.248-1.377.627-1.046,1.726a1.109,1.109,0,0,1-.608,1.469,1.062,1.062,0,0,1-1.445-.633A8.974,8.974,0,0,1-814.592-1450.4Z" transform="translate(863.117 1470.554)" fill="#666573"/>
        <path id="Path_3473" data-name="Path 3473" d="M-971.719-1495.911a3.418,3.418,0,0,1,3.185-3.586,1.112,1.112,0,0,1,1.232.931,1.08,1.08,0,0,1-.95,1.266c-1.176.27-1.373.619-1.028,1.813a1.124,1.124,0,0,1-.569,1.388,1.088,1.088,0,0,1-1.452-.525A8.989,8.989,0,0,1-971.719-1495.911Z" transform="translate(978.277 1503.926)" fill="#666573"/>
        <path id="Path_3474" data-name="Path 3474" d="M-930.4-1409.077a3.4,3.4,0,0,1,3.266-3.534,1.065,1.065,0,0,1,1.166.984,1.112,1.112,0,0,1-.948,1.218c-1.194.276-1.38.594-1.041,1.777a1.116,1.116,0,0,1-.609,1.418,1.055,1.055,0,0,1-1.424-.561A9.524,9.524,0,0,1-930.4-1409.077Z" transform="translate(947.994 1440.246)" fill="#666573"/>
        <path id="Path_3475" data-name="Path 3475" d="M-839.73-1409.308a3.454,3.454,0,0,1,3.349-3.3,1.114,1.114,0,0,1,1.186.986,1.157,1.157,0,0,1-.971,1.215c-1.215.28-1.406.6-1.043,1.77a1.12,1.12,0,0,1-.6,1.423,1.045,1.045,0,0,1-1.425-.554A13.517,13.517,0,0,1-839.73-1409.308Z" transform="translate(881.54 1440.245)" fill="#666573"/>
        <path id="Path_3476" data-name="Path 3476" d="M-955.449-1450.605a3.43,3.43,0,0,1,3.276-3.354,1.13,1.13,0,0,1,1.245.995,1.127,1.127,0,0,1-1.046,1.208c-.532.062-.963.246-1.086.776a1.985,1.985,0,0,0,.1.94,1.128,1.128,0,0,1-.594,1.476,1.052,1.052,0,0,1-1.448-.622A12.779,12.779,0,0,1-955.449-1450.605Z" transform="translate(966.352 1470.55)" fill="#666573"/>
        <path id="Path_3477" data-name="Path 3477" d="M-798.375-1496.162a3.488,3.488,0,0,1,3.26-3.334,1.15,1.15,0,0,1,1.271.976,1.129,1.129,0,0,1-.948,1.216c-1.224.294-1.4.607-1.04,1.836a1.123,1.123,0,0,1-.623,1.413,1.052,1.052,0,0,1-1.417-.574A13.856,13.856,0,0,1-798.375-1496.162Z" transform="translate(851.231 1503.926)" fill="#666573"/>
        <path id="Path_3478" data-name="Path 3478" d="M-979.945-1304.958a7.1,7.1,0,0,1,1.089-3.481,1.731,1.731,0,0,1,1.022-.7,1.254,1.254,0,0,1,1.019.49,1.265,1.265,0,0,1,.005,1.139,5.339,5.339,0,0,0-.891,2.7,1.135,1.135,0,0,1-.916,1.136.988.988,0,0,1-1.156-.54A2.56,2.56,0,0,1-979.945-1304.958Z" transform="translate(984.306 1364.417)" fill="#666573"/>
        <path id="Path_3479" data-name="Path 3479" d="M-781.952-1305.224a9,9,0,0,1,1.311-3.509c.548-.746,1.537-.815,1.911-.11a1.406,1.406,0,0,1,.031,1.2,5.7,5.7,0,0,0-.878,2.631c-.112,1.065-1.061,1.607-1.766.984A3.739,3.739,0,0,1-781.952-1305.224Z" transform="translate(839.194 1364.553)" fill="#666573"/>
      </g>
      <g id="Group_1320" data-name="Group 1320" transform="translate(-1745.447 -1505.069)">
        <g transform="matrix(1, 0, 0, 1, -284.14, -134.89)" filter="url(#Path_3480)">
          <path id="Path_3480-2" data-name="Path 3480" d="M-1097.74-1038.506a9.361,9.361,0,0,1-4.272-2.8,5.014,5.014,0,0,0-2.865-1.345,1.75,1.75,0,0,1-1.153-.956,1.469,1.469,0,0,1,.5-1.312c2.924-1.824,4.324-4.749,5.631-7.713,3.021-6.847,4.7-14.077,6.135-21.394a41.693,41.693,0,0,1,5.9-15.442c.686-1.025,1.519-1.95,2.321-2.968-3.089-4.382-4.627-9.423-5.767-14.609a4.27,4.27,0,0,1,.131-2.175c1.152-3.412,2.31-6.845,2.243-10.474a26.5,26.5,0,0,0-1.04-5.447c-.935-3.967-1.93-7.92-2.893-11.881-.326-1.343.178-1.974,1.571-1.984,1.079-.008,2.16.03,3.238-.011a1.516,1.516,0,0,1,1.714,1.359q1.831,7.659,3.724,15.3a1.62,1.62,0,0,0,.744,1,23.753,23.753,0,0,1,9.878,7.961,3.182,3.182,0,0,1,.214.388c1.387-1.476,2.6-2.879,3.934-4.16a19.919,19.919,0,0,1,6.214-4.032,1.586,1.586,0,0,0,1.054-1.244c1.186-5.047,2.428-10.082,3.66-15.119.3-1.218.593-1.443,1.819-1.448,1.047,0,2.093-.007,3.14,0,1.393.01,1.9.642,1.571,1.984-1.27,5.229-2.683,10.428-3.745,15.7a15.291,15.291,0,0,0,.294,5.7c.43,2.263,1.248,4.45,1.867,6.679a3.143,3.143,0,0,1,.145,1.427,45.683,45.683,0,0,1-4.444,12.8c-.443.795-.961,1.547-1.479,2.373a24.094,24.094,0,0,1,5.885,10.057c1.278,4.063,2.239,8.234,3.18,12.393,1.589,7.018,3.424,13.942,6.86,20.328a11.361,11.361,0,0,0,3.946,4.53,1.823,1.823,0,0,1,.695,1.356c0,.681-.567,1.045-1.283,1.087a4.449,4.449,0,0,0-3.059,1.561,8.88,8.88,0,0,1-3.99,2.531h-2.355a9.96,9.96,0,0,1-4.364-2.819,3.655,3.655,0,0,0-5.545-.021,11.19,11.19,0,0,1-4.226,2.839h-2.552a10.641,10.641,0,0,1-4.333-2.859,3.632,3.632,0,0,0-5.469,0,10.726,10.726,0,0,1-4.332,2.862h-2.552a10.73,10.73,0,0,1-4.083-2.707c-1.949-1.868-3.881-1.858-5.832.021a9.538,9.538,0,0,1-4.219,2.686Zm-4.046-6.014c.764.663,1.5,1.258,2.187,1.908,2.135,2.023,4.007,2.027,6.145-.038a8.439,8.439,0,0,1,3.56-2.342.981.981,0,0,0,.558-.661c.19-1.126.3-2.265.443-3.4q.378-2.914.772-5.826a1.241,1.241,0,0,1,1.375-1.232,1.238,1.238,0,0,1,1.179,1.5c-.03.391-.074.78-.123,1.169-.353,2.78-.709,5.559-1.072,8.4,1.673.4,2.795,1.544,4,2.6a5.6,5.6,0,0,0,2.076,1.184c1.593.449,2.784-.384,3.928-1.428a12.886,12.886,0,0,1,2.93-2.059,1.239,1.239,0,0,0,.875-1.345c-.039-2.812-.029-5.626-.008-8.438.008-1.007.565-1.622,1.35-1.605.749.016,1.246.6,1.306,1.556.014.228,0,.458,0,.687,0,2.682-.011,5.364.016,8.046,0,.294.172.788.366.846a9.916,9.916,0,0,1,3.821,2.66,3.691,3.691,0,0,0,5.5.012,9.246,9.246,0,0,1,4.117-2.723c-.176-1.381-.345-2.673-.505-3.965-.237-1.911-.488-3.821-.691-5.736a1.181,1.181,0,0,1,1.124-1.359,1.22,1.22,0,0,1,1.4,1.078,10.7,10.7,0,0,1,.179,1.063c.345,2.721.674,5.444,1.04,8.162.038.282.234.727.435.776,1.749.431,2.913,1.676,4.164,2.826a3.68,3.68,0,0,0,5.215.016c.882-.773,1.749-1.563,2.486-2.223-1.156-1.933-2.463-3.82-3.468-5.855a74.422,74.422,0,0,1-5.881-17.994c-.968-4.665-1.8-9.353-3.567-13.806a24.9,24.9,0,0,0-4.578-7.924,2.522,2.522,0,0,0-2.038-.9c-6.345.041-12.7.215-19.031-.064-2.915-.129-4.484,1.136-5.78,3.337q-.075.127-.151.252a44.6,44.6,0,0,0-4.955,13.124c-1.117,4.759-2.062,9.566-3.39,14.265C-1096.036-1054.436-1098.053-1049.05-1101.786-1044.519Zm15.615-74.645c-.054.235-.109.454-.156.675-.608,2.833-1.053,5.714-1.885,8.479a7.506,7.506,0,0,0-.107,4.443c1.13,3.964,2.323,7.888,4.721,11.328a1.708,1.708,0,0,0,1.622.788c6.51-.025,13.022-.1,19.529.038a3.524,3.524,0,0,0,3.616-2.064,43.766,43.766,0,0,0,4.318-12.122,2.265,2.265,0,0,0-.128-1.028c-.5-1.756-1.081-3.49-1.505-5.262-.415-1.735-.672-3.508-1.043-5.5a14.117,14.117,0,0,0-3.191.536,19.688,19.688,0,0,0-9.506,8.16c-1.273,2.1-2.315,1.969-3.507-.023a20.75,20.75,0,0,0-8.508-7.759A6.54,6.54,0,0,0-1086.17-1119.165Zm-3.857-17.217,3.535,14.41h1.237l-3.486-14.41Zm33.259,14.421,3.522-14.41h-1.284l-3.475,14.41Z" transform="translate(1390.2 1273.92)" fill="#666573" stroke="#fff" stroke-width="1"/>
        </g>
        <path id="Path_3481" data-name="Path 3481" d="M-1090.065-912.641c3.733-4.531,5.75-9.917,7.314-15.454,1.328-4.7,2.272-9.507,3.39-14.265a44.6,44.6,0,0,1,4.955-13.124q.076-.126.151-.252c1.3-2.2,2.865-3.466,5.78-3.337,6.333.28,12.687.105,19.031.064a2.522,2.522,0,0,1,2.038.9,24.9,24.9,0,0,1,4.578,7.924c1.769,4.452,2.6,9.141,3.567,13.805a74.422,74.422,0,0,0,5.881,17.994c1.005,2.035,2.311,3.921,3.468,5.855-.737.659-1.6,1.45-2.486,2.223a3.68,3.68,0,0,1-5.215-.016c-1.251-1.15-2.415-2.4-4.164-2.826-.2-.05-.4-.494-.435-.776-.366-2.718-.695-5.441-1.04-8.162a10.69,10.69,0,0,0-.179-1.063,1.22,1.22,0,0,0-1.4-1.078,1.181,1.181,0,0,0-1.124,1.359c.2,1.915.455,3.825.692,5.736.16,1.292.329,2.584.505,3.965a9.246,9.246,0,0,0-4.117,2.723,3.691,3.691,0,0,1-5.5-.012,9.916,9.916,0,0,0-3.821-2.66c-.194-.059-.363-.552-.366-.846-.028-2.682-.017-5.364-.017-8.046,0-.229.01-.459,0-.687-.06-.952-.557-1.54-1.306-1.556-.784-.017-1.342.6-1.35,1.605-.021,2.812-.032,5.626.008,8.438a1.239,1.239,0,0,1-.875,1.345,12.886,12.886,0,0,0-2.93,2.059c-1.144,1.043-2.335,1.877-3.928,1.428a5.6,5.6,0,0,1-2.076-1.184c-1.205-1.054-2.327-2.2-4-2.6.363-2.84.719-5.62,1.072-8.4.049-.389.093-.778.123-1.169a1.238,1.238,0,0,0-1.179-1.5A1.241,1.241,0,0,0-1076.4-923q-.4,2.912-.772,5.826c-.147,1.133-.253,2.273-.443,3.4a.981.981,0,0,1-.558.661,8.439,8.439,0,0,0-3.56,2.342c-2.138,2.064-4.01,2.061-6.145.038C-1088.564-911.383-1089.3-911.977-1090.065-912.641Z" transform="translate(1094.336 1007.143)" fill="#fff"/>
        <path id="Path_3482" data-name="Path 3482" d="M-1038.279-1065.293a6.539,6.539,0,0,1,4.271.689,20.75,20.75,0,0,1,8.508,7.759c1.192,1.992,2.233,2.124,3.507.023a19.687,19.687,0,0,1,9.506-8.16,14.115,14.115,0,0,1,3.191-.536c.37,1.992.628,3.765,1.043,5.5.424,1.773,1.009,3.506,1.505,5.262a2.264,2.264,0,0,1,.128,1.028,43.761,43.761,0,0,1-4.317,12.122,3.524,3.524,0,0,1-3.616,2.064c-6.507-.134-13.019-.063-19.529-.038a1.708,1.708,0,0,1-1.622-.788c-2.4-3.44-3.591-7.364-4.721-11.328a7.507,7.507,0,0,1,.107-4.444c.832-2.765,1.277-5.646,1.885-8.479C-1038.388-1064.838-1038.333-1065.058-1038.279-1065.293Z" transform="translate(1058.166 1085.149)" fill="#fff"/>
        <path id="Path_3483" data-name="Path 3483" d="M-1046.04-1129.138h1.286l3.486,14.41h-1.237Z" transform="translate(1062.07 1131.778)" fill="#fff"/>
        <path id="Path_3484" data-name="Path 3484" d="M-924.911-1114.685h-1.238l3.475-14.41h1.284Z" transform="translate(974.2 1131.746)" fill="#fff"/>
      </g>
      <g id="Group_1323" data-name="Group 1323" transform="translate(-1672.588 -1512.184)">
        <g id="Group_1321" data-name="Group 1321" transform="translate(0)">
          <path id="Path_3485" data-name="Path 3485" d="M-776.7-1135.714A26.615,26.615,0,0,1-803.32-1109.1a26.614,26.614,0,0,1-26.614-26.615,26.616,26.616,0,0,1,26.614-26.617A26.616,26.616,0,0,1-776.7-1135.714Z" transform="translate(830.824 1163.221)" fill="#fff"/>
          <g transform="matrix(1, 0, 0, 1, -357, -127.78)" filter="url(#Path_3486)">
            <path id="Path_3486-2" data-name="Path 3486" d="M-805.761-1110.651a27.536,27.536,0,0,1-27.5-27.5,27.537,27.537,0,0,1,27.5-27.507,27.537,27.537,0,0,1,27.5,27.507A27.536,27.536,0,0,1-805.761-1110.651Zm0-53.232a25.755,25.755,0,0,0-25.724,25.727,25.754,25.754,0,0,0,25.724,25.725,25.755,25.755,0,0,0,25.725-25.725A25.755,25.755,0,0,0-805.761-1163.883Z" transform="translate(1190.27 1293.44)" fill="#666573"/>
          </g>
        </g>
        <g id="Group_1322" data-name="Group 1322" transform="translate(11.437 14.408)">
          <g transform="matrix(1, 0, 0, 1, -368.44, -142.19)" filter="url(#Path_3487)">
            <path id="Path_3487-2" data-name="Path 3487" d="M-773.446-1089.128a.889.889,0,0,1-.588-.041l-15.873-6.85a.892.892,0,0,1-.464-1.17.9.9,0,0,1,1.17-.465l15.212,6.793,11.493-20.155a.758.758,0,0,1,1.143-.59.889.889,0,0,1,.332,1.214l-11.887,20.847A.888.888,0,0,1-773.446-1089.128Z" transform="translate(1158.88 1253.9)" fill="#9ecb5b"/>
          </g>
        </g>
      </g>
      <g id="Group_1324" data-name="Group 1324" transform="translate(-1978.453 -1601.861)">
        <path id="Path_3488" data-name="Path 3488" d="M-1875.314-1437.207v1.233q0,13.937,0,27.874c0,2.711,1.248,3.974,3.963,3.976q14.237.009,28.473,0c2.649,0,3.925-1.288,3.926-3.915q0-13.987,0-27.974v-1.194l2.433,1.433,1.711-2.764c-.228-.167-.4-.315-.594-.433q-10.532-6.489-21.058-12.987a1.173,1.173,0,0,0-1.436.079q-10.358,6.4-20.731,12.768c-.275.169-.541.353-.843.55l1.74,2.793Zm-5.742-3.5c.427-.248.772-.442,1.111-.645q11.035-6.62,22.06-13.255a1.247,1.247,0,0,1,1.511-.005q9.177,5.555,18.387,11.053c1.564.938,3.13,1.874,4.776,2.86l1.707-2.835c-.38-.238-.711-.453-1.049-.655q-11.847-7.108-23.684-14.231a1.478,1.478,0,0,0-1.788.007q-11.913,7.2-23.86,14.343c-.28.168-.552.349-.869.55Zm23.978-29.494a4.979,4.979,0,0,0-5.032,4.876,5.051,5.051,0,0,0,4.97,5.07,5.054,5.054,0,0,0,4.984-4.959A4.985,4.985,0,0,0-1857.078-1470.2Zm-7.687-2.919,2.245,2.414a7.117,7.117,0,0,1,5.441-2.757,7.183,7.183,0,0,1,5.236,2.607l2.366-2.246C-1853.856-1478.081-1860.469-1478.08-1864.765-1473.121Z" transform="translate(1908.314 1483.404)" fill="#fff"/>
        <g transform="matrix(1, 0, 0, 1, -51.14, -38.1)" filter="url(#Path_3489)">
          <path id="Path_3489-2" data-name="Path 3489" d="M-1978.453-1410.141a15.3,15.3,0,0,1,1.234-2.121,4.5,4.5,0,0,1,3.676-1.7c1.791.008,3.582,0,5.407,0-.675-1.988-1.428-3.869-1.956-5.812a47.116,47.116,0,0,1,1.218-29.783,2.4,2.4,0,0,0-.413-2.744c-1.168-1.321-2.222-2.742-3.327-4.119-2.694-3.357-3.4-7.065-1.6-11.011,1.823-3.99,5.133-5.906,9.472-6a24.149,24.149,0,0,1,4.574.255,9.894,9.894,0,0,1,6.294,4.1,44.228,44.228,0,0,1,11.2-5.888l1.027,2.9c-2.644,1.364-5.176,2.671-7.708,3.979-.118.061-.223.148-.34.209-1.748.914-2.938,1.9-2.448,4.335.5,2.459-.59,4.767-2.146,6.751-1.233,1.572-2.53,3.1-3.715,4.7a4.011,4.011,0,0,0-.621,1.788c-.126.917.045,1.889-.158,2.781a4.924,4.924,0,0,1-7.488,3.039l-.776-.48c-.414,2.171-.946,4.194-1.165,6.25a44.58,44.58,0,0,0,2.348,21.124c.359.929.8,1.828,1.143,2.763a1.187,1.187,0,0,0,1.33.88c3.131-.044,6.264-.027,9.4-.017a4.976,4.976,0,0,1,5.295,5.324c.011,3.632.016,7.264-.01,10.9a1.24,1.24,0,0,0,.7,1.263,40.964,40.964,0,0,0,24.644,5.391,41.313,41.313,0,0,0,16.435-5.153,1.8,1.8,0,0,0,1.1-1.844c-.058-4-.027-8-.024-12,0-2.612,1.253-3.88,3.833-3.883,3.632,0,7.264-.019,10.9.015a1.178,1.178,0,0,0,1.269-.818,41.7,41.7,0,0,0,3.807-16.5,43.171,43.171,0,0,0-1.611-13.816c-.036-.115-.07-.23-.142-.469-2.858,2.7-6.32,1.941-9.568,1.7a5.529,5.529,0,0,1-4.8-4.135,5.618,5.618,0,0,1,1.308-6.2,4.9,4.9,0,0,0,1.637-4.394,35.716,35.716,0,0,1-.008-4.2,1.655,1.655,0,0,0-.667-1.441,40.679,40.679,0,0,0-12.183-7.295c-.271-.1-.535-.227-.881-.376l1.093-3.087a44.1,44.1,0,0,1,12.623,6.956c0-.755,0-1.329,0-1.9,0-1.1-.017-2.2,0-3.3a3.341,3.341,0,0,1,3.526-3.5c.833-.006,1.666,0,2.5,0,2.412,0,3.414.79,4.023,3.241h6.42v3.333h-6.46v3.291h6.495v3.308h-6.5v3.291h6.5v3.308h-6.711c.226.575.272,1.078.547,1.33a9.612,9.612,0,0,1,3,5.256c.551,2.52,1.672,4.917,2.191,7.441a47.118,47.118,0,0,1-2.354,27.816c-.113.277-.222.556-.324.837a1.246,1.246,0,0,0,0,.3q3.225,0,6.45,0c2.641,0,3.844,1.2,3.844,3.834q0,9.446,0,18.893c0,2.4-1.288,3.676-3.71,3.679-1.995,0-3.99,0-6.068,0v3.2h3.1v3.32h-16.391v-3.229h3.2v-3.295h-5.468c-3.357,0-4.4-1.042-4.414-4.416,0-.293,0-.585,0-.965-14.286,7.2-28.491,7.218-42.847,0,0,.971.007,1.88,0,2.788a42.652,42.652,0,0,1-.1,4.89,4.8,4.8,0,0,1-5.034,4.3q-9.647.01-19.292,0a4.931,4.931,0,0,1-5.149-3.58c-.032-.083-.12-.143-.182-.214Zm3.393,6.145c-.02.4-.047.693-.047.986q0,8.287,0,16.574c0,1.656.479,2.132,2.132,2.132q9.385.005,18.771,0c1.634,0,2.149-.516,2.149-2.136q0-8.287,0-16.574V-1404Zm72.632-6.6v13.021h22.921v-13.021Zm6.535-62.729v1.211c0,4.828-.111,9.661.05,14.484.072,2.16-.3,3.9-2.135,5.161a2.21,2.21,0,0,0-.346.359,2.913,2.913,0,0,0-.609,3.237,2.814,2.814,0,0,0,2.721,1.842c1.3.035,2.6.032,3.9,0a2.885,2.885,0,0,0,2.786-1.913,2.891,2.891,0,0,0-.7-3.22,22.122,22.122,0,0,0-1.7-1.691,2.052,2.052,0,0,1-.735-1.733c.031-5.528.017-11.056.017-16.583v-1.156Zm-66.007,19.937c.527-.29.9-.381,1.092-.619,1.433-1.753,2.922-3.47,4.221-5.32a6.8,6.8,0,0,0-4.507-10.613,18.806,18.806,0,0,0-4.279-.123,6.575,6.575,0,0,0-5.878,4.145,6.642,6.642,0,0,0,1.02,7.12c1.209,1.549,2.433,3.087,3.692,4.595a6.066,6.066,0,0,0,1.287.839c0-1.235-.039-2.1.013-2.957a1.141,1.141,0,0,0-.723-1.229,4.821,4.821,0,0,1-2.334-5.871,4.95,4.95,0,0,1,4.789-3.4,5,5,0,0,1,4.756,3.857,5.013,5.013,0,0,1-2.353,5.4c-.32.195-.729.545-.76.856C-1961.961-1455.726-1961.9-1454.727-1961.9-1453.385Zm9.729,45.969c.432-2.532-.142-3.241-2.582-3.241q-8.891,0-17.781,0a2.717,2.717,0,0,0-1.274.1,2.877,2.877,0,0,0-1.221,1.24,5.675,5.675,0,0,0-.047,1.9Zm49.713,16.458h22.968v-3.126h-22.968Zm9.961,3.44v3.161h3.123v-3.161Zm-69.508-62.7h-3.232c.035,1.12-.346,2.331.845,2.926a2.066,2.066,0,0,0,1.737-.1C-1961.6-1448.063-1962.054-1449.2-1962-1450.218Zm-1.579-13.273a1.711,1.711,0,0,0-1.654,1.671,1.622,1.622,0,0,0,1.622,1.566,1.543,1.543,0,0,0,1.615-1.535A1.617,1.617,0,0,0-1963.582-1463.491Z" transform="translate(2029.59 1521.42)" fill="#666573" stroke="#fff" stroke-width="2"/>
        </g>
        <g transform="matrix(1, 0, 0, 1, -51.14, -38.1)" filter="url(#Path_3490)">
          <path id="Path_3490-2" data-name="Path 3490" d="M-1819.406-1501.422c1.468.4,2.968.7,4.4,1.208a15.983,15.983,0,0,1,6.237,4.137l-2.424,2.234a14.141,14.141,0,0,0-10.157-4.235,14.207,14.207,0,0,0-10.4,4.389l-2.257-2.478c.673-.57,1.435-1.3,2.279-1.917a16.777,16.777,0,0,1,7.76-3.157,3.312,3.312,0,0,0,.563-.181Z" transform="translate(1923.72 1539.52)" fill="#666573" stroke="#fff" stroke-width="1.5"/>
        </g>
        <g transform="matrix(1, 0, 0, 1, -51.14, -38.1)" filter="url(#Path_3491)">
          <path id="Path_3491-2" data-name="Path 3491" d="M-1866.3-1369.515l-2.416,1.438-1.74-2.793c.3-.2.568-.381.843-.55q10.367-6.381,20.731-12.767a1.173,1.173,0,0,1,1.436-.079q10.514,6.517,21.058,12.987c.192.119.366.266.594.433l-1.711,2.764-2.434-1.433v1.194q0,13.987,0,27.974c0,2.627-1.276,3.913-3.925,3.915q-14.236.01-28.473,0c-2.716,0-3.963-1.265-3.963-3.976q0-13.937,0-27.874Zm32.942,29.7c.023-.308.058-.566.058-.824q0-15.092.017-30.184a1.289,1.289,0,0,0-.735-1.251q-6.689-4.082-13.345-8.219a1.219,1.219,0,0,0-1.509.009q-6.607,4.117-13.26,8.16a1.507,1.507,0,0,0-.826,1.5q.037,14.892.019,29.784c0,.325.027.649.044,1.026Z" transform="translate(1950.44 1453.81)" fill="#666573" stroke="#fff" stroke-width="1.5"/>
        </g>
        <g transform="matrix(1, 0, 0, 1, -51.14, -38.1)" filter="url(#Path_3492)">
          <path id="Path_3492-2" data-name="Path 3492" d="M-1881.056-1390.988l-1.7-2.815c.316-.2.589-.382.869-.55q11.934-7.165,23.86-14.343a1.478,1.478,0,0,1,1.788-.007q11.823,7.147,23.684,14.231c.338.2.669.417,1.049.655l-1.707,2.835c-1.646-.985-3.211-1.921-4.776-2.86q-9.2-5.518-18.387-11.052a1.247,1.247,0,0,0-1.511.005q-11.016,6.651-22.06,13.255C-1880.284-1391.43-1880.628-1391.236-1881.056-1390.988Z" transform="translate(1959.45 1471.79)" fill="#666573" stroke="#fff" stroke-width="1.5"/>
        </g>
        <g transform="matrix(1, 0, 0, 1, -51.14, -38.1)" filter="url(#Path_3493)">
          <path id="Path_3493-2" data-name="Path 3493" d="M-1800.431-1451.988a4.985,4.985,0,0,1,4.922,4.988,5.054,5.054,0,0,1-4.984,4.959,5.051,5.051,0,0,1-4.97-5.07A4.979,4.979,0,0,1-1800.431-1451.988Zm1.558,4.934a1.566,1.566,0,0,0-1.665-1.573,1.559,1.559,0,0,0-1.561,1.578,1.622,1.622,0,0,0,1.614,1.652A1.628,1.628,0,0,0-1798.873-1447.054Z" transform="translate(1902.8 1503.29)" fill="#666573" stroke="#fff" stroke-width="1.5"/>
        </g>
        <g transform="matrix(1, 0, 0, 1, -51.14, -38.1)" filter="url(#Path_3494)">
          <path id="Path_3494-2" data-name="Path 3494" d="M-1815.4-1473.121c4.3-4.959,10.91-4.961,15.288.017l-2.366,2.246a7.183,7.183,0,0,0-5.236-2.607,7.117,7.117,0,0,0-5.441,2.757Z" transform="translate(1910.09 1521.51)" fill="#666573" stroke="#fff" stroke-width="1.5"/>
        </g>
        <path id="Path_3495" data-name="Path 3495" d="M-1965.883-1204.448h23.007v.983q0,8.287,0,16.574c0,1.62-.516,2.135-2.149,2.136q-9.386.005-18.771,0c-1.653,0-2.131-.477-2.132-2.132q-.006-8.287,0-16.574C-1965.93-1203.755-1965.9-1204.048-1965.883-1204.448Zm11.5,3.245a6.616,6.616,0,0,0-6.672,6.526,6.646,6.646,0,0,0,6.544,6.668,6.594,6.594,0,0,0,6.7-6.59A6.561,6.561,0,0,0-1954.38-1201.2Z" transform="translate(1969.276 1283.766)" fill="#fff"/>
        <path id="Path_3496" data-name="Path 3496" d="M-1693.806-1229.147h22.921v13.021h-22.921Z" transform="translate(1769.831 1301.868)" fill="#fff"/>
        <path id="Path_3497" data-name="Path 3497" d="M-1678.351-1464.012h3.248v1.156c0,5.528.015,11.056-.017,16.583a2.052,2.052,0,0,0,.735,1.733,22.141,22.141,0,0,1,1.7,1.691,2.892,2.892,0,0,1,.7,3.22,2.885,2.885,0,0,1-2.786,1.913c-1.3.029-2.6.032-3.9,0a2.815,2.815,0,0,1-2.721-1.842,2.913,2.913,0,0,1,.609-3.236,2.211,2.211,0,0,1,.346-.359c1.836-1.26,2.207-3,2.135-5.161-.161-4.823-.05-9.655-.05-14.484Z" transform="translate(1760.912 1474.004)" fill="#fff"/>
        <path id="Path_3498" data-name="Path 3498" d="M-1943.8-1435.3c0-1.342-.062-2.341.036-3.325.031-.312.44-.661.76-.856a5.013,5.013,0,0,0,2.353-5.4,5,5,0,0,0-4.756-3.857,4.95,4.95,0,0,0-4.789,3.4,4.821,4.821,0,0,0,2.333,5.871,1.141,1.141,0,0,1,.723,1.229c-.052.858-.013,1.722-.013,2.957a6.07,6.07,0,0,1-1.287-.839c-1.259-1.508-2.483-3.046-3.692-4.595a6.642,6.642,0,0,1-1.02-7.12,6.576,6.576,0,0,1,5.878-4.145,18.806,18.806,0,0,1,4.279.123,6.8,6.8,0,0,1,4.507,10.613c-1.3,1.849-2.788,3.567-4.221,5.32C-1942.9-1435.685-1943.275-1435.593-1943.8-1435.3Z" transform="translate(1960.356 1465.232)" fill="#fff"/>
        <path id="Path_3499" data-name="Path 3499" d="M-1943.066-1226.2h-22.905a5.681,5.681,0,0,1,.047-1.9,2.878,2.878,0,0,1,1.221-1.24,2.715,2.715,0,0,1,1.274-.1q8.891-.007,17.781,0C-1943.208-1229.443-1942.634-1228.735-1943.066-1226.2Z" transform="translate(1969.349 1302.1)" fill="#fff"/>
        <path id="Path_3500" data-name="Path 3500" d="M-1693.917-1164.21v-3.126h22.969v3.126Z" transform="translate(1769.913 1256.566)" fill="#fff"/>
        <path id="Path_3501" data-name="Path 3501" d="M-1656.621-1142.753h3.122v3.161h-3.122Z" transform="translate(1742.578 1238.549)" fill="#fff"/>
        <path id="Path_3502" data-name="Path 3502" d="M-1925.822-1377.509c-.05,1.015.4,2.155-.65,2.83a2.067,2.067,0,0,1-1.736.1c-1.192-.6-.811-1.807-.845-2.926Z" transform="translate(1942.271 1410.605)" fill="#fff"/>
        <path id="Path_3503" data-name="Path 3503" d="M-1927.316-1427.206a1.617,1.617,0,0,1,1.583,1.7,1.543,1.543,0,0,1-1.615,1.535,1.623,1.623,0,0,1-1.622-1.566A1.711,1.711,0,0,1-1927.316-1427.206Z" transform="translate(1942.187 1447.028)" fill="#fff"/>
        <path id="Path_3504" data-name="Path 3504" d="M-1812.784-1329.051h-29.537c-.017-.377-.044-.7-.044-1.026q0-14.892-.019-29.784a1.507,1.507,0,0,1,.826-1.5q6.657-4.036,13.26-8.16a1.219,1.219,0,0,1,1.509-.009q6.65,4.146,13.345,8.219a1.289,1.289,0,0,1,.735,1.251q-.032,15.092-.017,30.184C-1812.726-1329.617-1812.762-1329.359-1812.784-1329.051Zm-14.76-3.239c2.7,0,5.4.026,8.095-.009a3.272,3.272,0,0,0,3.475-3.333q.037-8.245,0-16.49a2.774,2.774,0,0,0-1.878-2.907c-1.455-.373-1.536-1.218-1.458-2.349a2.261,2.261,0,0,0-.017-.3,8.269,8.269,0,0,0-7.521-7.646,8.276,8.276,0,0,0-8.651,6.083,30.135,30.135,0,0,0-.329,3.063,1.081,1.081,0,0,1-.489.777c-2.059.668-2.807,1.634-2.808,3.781q0,7.745,0,15.49c0,2.534,1.271,3.826,3.786,3.836C-1832.741-1332.28-1830.143-1332.288-1827.544-1332.29Z" transform="translate(1878.726 1404.945)" fill="#fff"/>
        <path id="Path_3505" data-name="Path 3505" d="M-1789.64-1437.834a1.628,1.628,0,0,1-1.612,1.656,1.622,1.622,0,0,1-1.614-1.652,1.559,1.559,0,0,1,1.561-1.578A1.566,1.566,0,0,1-1789.64-1437.834Z" transform="translate(1842.434 1455.971)" fill="#fff"/>
        <g transform="matrix(1, 0, 0, 1, -51.14, -38.1)" filter="url(#Path_3506)">
          <path id="Path_3506-2" data-name="Path 3506" d="M-1940.99-1192.3a6.561,6.561,0,0,1,6.572,6.6,6.594,6.594,0,0,1-6.7,6.59,6.646,6.646,0,0,1-6.544-6.668A6.616,6.616,0,0,1-1940.99-1192.3Zm-.137,9.841a3.263,3.263,0,0,0,3.4-3.176,3.278,3.278,0,0,0-3.245-3.332,3.248,3.248,0,0,0-3.324,3.132A3.235,3.235,0,0,0-1941.127-1182.458Z" transform="translate(2007.02 1312.96)" fill="#666573" stroke="#fff" stroke-width="1.5"/>
        </g>
        <g transform="matrix(1, 0, 0, 1, -51.14, -38.1)" filter="url(#Path_3507)">
          <path id="Path_3507-2" data-name="Path 3507" d="M-1818.608-1320.128c-2.6,0-5.2.009-7.8,0-2.516-.01-3.785-1.3-3.786-3.836q0-7.745,0-15.49c0-2.147.749-3.113,2.808-3.781a1.081,1.081,0,0,0,.489-.777,30.138,30.138,0,0,1,.329-3.062,8.276,8.276,0,0,1,8.651-6.083,8.269,8.269,0,0,1,7.521,7.646,2.238,2.238,0,0,1,.017.3c-.079,1.131,0,1.976,1.458,2.349a2.774,2.774,0,0,1,1.878,2.907q.03,8.245,0,16.49a3.272,3.272,0,0,1-3.475,3.333C-1813.211-1320.1-1815.91-1320.129-1818.608-1320.128Zm-8.166-19.771v16.409h16.309V-1339.9Zm13.064-3.42c.223-2.5-.231-4.6-2.484-5.865a4.664,4.664,0,0,0-5.421.387c-1.819,1.376-2.118,3.313-1.873,5.478Z" transform="translate(1920.93 1430.89)" fill="#666573" stroke="#fff" stroke-width="1.5"/>
        </g>
        <path id="Path_3508" data-name="Path 3508" d="M-1931.91-1173.312a3.235,3.235,0,0,1-3.174-3.376,3.248,3.248,0,0,1,3.324-3.132,3.278,3.278,0,0,1,3.245,3.332A3.263,3.263,0,0,1-1931.91-1173.312Z" transform="translate(1946.668 1265.716)" fill="#fff"/>
        <path id="Path_3509" data-name="Path 3509" d="M-1817.4-1303.416h16.309v16.409H-1817.4Zm9.82,13.111c0-1.9.038-3.7-.017-5.488-.025-.808.183-1.157,1.044-1.077.741.069,1.494.014,2.231.014v-3.244h-9.843v3.244c.77,0,1.5.048,2.213-.013.812-.069,1.11.185,1.08,1.042-.063,1.82-.019,3.643-.019,5.522Z" transform="translate(1860.411 1356.301)" fill="#fff"/>
        <path id="Path_3510" data-name="Path 3510" d="M-1795.517-1334.205h-9.778c-.245-2.166.054-4.1,1.873-5.478a4.665,4.665,0,0,1,5.421-.387C-1795.748-1338.808-1795.294-1336.7-1795.517-1334.205Z" transform="translate(1851.598 1383.67)" fill="#fff"/>
        <g transform="matrix(1, 0, 0, 1, -51.14, -38.1)" filter="url(#Path_3511)">
          <path id="Path_3511-2" data-name="Path 3511" d="M-1798.7-1281.206h-3.311c0-1.879-.044-3.7.019-5.522.03-.857-.268-1.111-1.08-1.042-.717.061-1.444.013-2.213.013V-1291h9.843v3.244c-.738,0-1.491.055-2.232-.015-.861-.08-1.069.269-1.044,1.077C-1798.661-1284.9-1798.7-1283.108-1798.7-1281.206Z" transform="translate(1902.67 1385.3)" fill="#666573" stroke="#fff" stroke-width="1.5"/>
        </g>
      </g>
      <g id="Group_1325" data-name="Group 1325" transform="translate(-1930.287 -1495.313)">
        <g transform="matrix(1, 0, 0, 1, -99.3, -144.65)" filter="url(#Path_3512)">
          <path id="Path_3512-2" data-name="Path 3512" d="M-1820.343-957.243a26.555,26.555,0,0,1-3.029-1.237,9.029,9.029,0,0,1-4.426-5.84q-.94-3.54-1.842-7.09a1.564,1.564,0,0,1,.972-2.1,1.538,1.538,0,0,1,1.938,1.28c.618,2.258,1.176,4.532,1.774,6.8.829,3.14,3.018,5.111,6.025,5.1a22.31,22.31,0,0,0,4.436-.758c2.063-.433,4.113-.924,6.168-1.393a6.726,6.726,0,0,0,4.9-8.7c-3.065-8.284-6.187-16.547-9.288-24.818a1.962,1.962,0,0,0-.174-.263c-1.174.326-2.386.654-3.594,1-2.8.8-5.593,1.611-8.4,2.4-2.828.792-4.748,2.477-5.193,5.469a8.3,8.3,0,0,0,.2,2.871c.381,1.8.9,3.567,1.353,5.351.282,1.113-.119,1.961-1.009,2.178a1.527,1.527,0,0,1-1.9-1.33,53.374,53.374,0,0,1-1.725-7.517c-.458-4.569,2.473-8.459,7.079-9.833,4.134-1.233,8.325-2.289,12.424-3.628a38.885,38.885,0,0,0,5.69-2.7c.257-.134.381-.733.384-1.118.027-4.094.021-8.188.016-12.281a6.191,6.191,0,0,1,3.51-6.066,5.623,5.623,0,0,1,2.108-.565,46.611,46.611,0,0,1,4.727-.041,6.088,6.088,0,0,1,6.044,6.23c.034,1.595.006,3.191.006,4.948a22.429,22.429,0,0,0,2.327-1.27,1.41,1.41,0,0,0,.353-1.024c.023-4.631.01-9.261.017-13.892a6.973,6.973,0,0,1,3.882-6.744c3.342-1.711,8.789-.782,10.976,1.853a7.44,7.44,0,0,1,1.559,4.973q0,14.9,0,29.8v1.156c.13.065.188.122.237.115,2.444-.335,2.444-.336,2.444-2.791q0-21.442,0-42.884c0-2.991,1.106-5.366,3.865-6.738a6.491,6.491,0,0,1,2.495-.657,19.467,19.467,0,0,1,4.61.119c3.328.642,5.32,3.282,5.439,6.89.042,1.274.027,2.551,0,3.825-.025,1.2-.584,1.869-1.507,1.89-.962.022-1.556-.677-1.578-1.923-.024-1.342.02-2.685-.017-4.026a3.708,3.708,0,0,0-3.829-3.8c-.872-.019-1.745-.023-2.617,0a3.7,3.7,0,0,0-3.73,3.481c-.039.4-.049.8-.049,1.205q0,21.241,0,42.482v1.3c1.131-.679,2.1-1.186,2.993-1.812,2.249-1.581,4.48-3.189,6.665-4.857a1.9,1.9,0,0,0,.556-1.351c.033-8.355.022-16.711.03-25.066a2.578,2.578,0,0,1,.166-1.368c.329-.461.915-1.022,1.388-1.019s1.05.572,1.374,1.036a2.623,2.623,0,0,1,.159,1.37q.012,11.174.006,22.348v1.349c.624-.323,1.132-.607,1.656-.854,6.186-2.917,10.859,2.169,10.671,6.874a6.851,6.851,0,0,1-2.671,5.107q-8.487,7.027-17.061,13.948c-2.792,2.251-6.208,3.046-9.6,3.87-9.98,2.42-19.951,4.873-29.986,7.328,0,.964.076,1.928-.013,2.875a8.914,8.914,0,0,1-6.549,7.938c-3.419.926-6.9,1.623-10.351,2.426a3.079,3.079,0,0,0-.458.185Zm19.289-16.362a2.957,2.957,0,0,0,.373-.033c10.17-2.488,20.334-5,30.51-7.458,2.979-.721,5.923-1.485,8.358-3.474q8.183-6.682,16.342-13.394a5.319,5.319,0,0,0,.8-.9,4.129,4.129,0,0,0-2-6.536,4.349,4.349,0,0,0-4.077.745c-3.83,2.713-7.685,5.39-11.512,8.108a18.238,18.238,0,0,1-7.651,3.391c-4.961.793-9.971.377-14.961.326a3.048,3.048,0,0,1-2.977-2.3,3.287,3.287,0,0,1,1.131-3.7c.792-.674,1.6-1.323,2.415-1.974a11.758,11.758,0,0,0,4.154-7.031,2.856,2.856,0,0,0-.016-1.189c-.5-2.154-2.555-2.9-4.77-1.723q-12.117,6.422-24.226,12.859c-.26.138-.5.308-.813.5Zm15.688-40.389c.368-.1.557-.161.749-.209a5.856,5.856,0,0,1,7.5,6.091,16.269,16.269,0,0,1-1.446,4.966c-1.144,2.725-3.445,4.486-5.7,6.242a11.6,11.6,0,0,1-.984.623l.261.347h9.839v-1.06q0-15,0-30c0-.368-.015-.738-.051-1.1a3.546,3.546,0,0,0-3.018-3.288,18.522,18.522,0,0,0-2.906-.132c-2.74.011-4.228,1.5-4.241,4.227-.014,3.053,0,6.106,0,9.16Zm-19.1,9.952c.151.02.23.058.276.033,3.193-1.682,6.387-3.362,9.568-5.068a.849.849,0,0,0,.393-.611c.009-2.208.071-4.423-.071-6.624a2.921,2.921,0,0,0-3.126-2.757q-1.908-.026-3.817,0a3.049,3.049,0,0,0-3.217,3.21c-.023,1.774-.006,3.549-.006,5.324Q-1804.471-1007.283-1804.471-1004.041Z" transform="translate(1933.13 1205.01)" fill="#666573" stroke="#fff" stroke-width="1.4"/>
        </g>
        <g transform="matrix(1, 0, 0, 1, -99.3, -144.65)" filter="url(#Path_3513)">
          <path id="Path_3513-2" data-name="Path 3513" d="M-1790.507-1081.924a5.2,5.2,0,0,1-3.673-1.268,4.475,4.475,0,0,1-1.009-5.012,4.132,4.132,0,0,1,3.915-2.988c4.325-.1,8.654-.083,12.979-.012a4.162,4.162,0,0,1,4.127,4.225q.07,6.389,0,12.779a4.548,4.548,0,0,1-4.062,4.4,4.184,4.184,0,0,1-4.747-2.981,23.889,23.889,0,0,1-.582-2.685c-.236.21-.482.414-.712.635q-5.295,5.092-10.586,10.187c-2.106,2.028-3.879,2.3-6.457.97-1.427-.734-2.852-1.474-4.542-2.349a6.27,6.27,0,0,1-.657.942q-10.3,10.4-20.624,20.787c-1.252,1.262-2.614,2.172-4.533,1.8a4.667,4.667,0,0,1-2.77-7.633c.192-.232.4-.449.615-.663q11.692-11.788,23.387-23.573c2.241-2.258,3.9-2.508,6.758-1.032,1.219.63,2.425,1.289,3.669,1.864a1.14,1.14,0,0,0,1.019-.112c2.755-2.6,5.474-5.243,8.2-7.878A3.167,3.167,0,0,0-1790.507-1081.924Zm13.345,1.276c0-1.946.014-3.892-.006-5.837-.012-1.187-.479-1.718-1.613-1.725q-5.938-.04-11.876,0a1.669,1.669,0,0,0-1.8,1.648,1.672,1.672,0,0,0,1.862,1.57q1.711.031,3.422,0c.848-.017,1.625.064,2.007.976.392.937-.185,1.511-.781,2.084q-5.875,5.652-11.745,11.308c-.984.948-1.43,1.009-2.682.367-1.639-.84-3.274-1.687-4.914-2.526-1.5-.769-1.664-.742-2.863.465q-11.666,11.748-23.33,23.5c-1.187,1.2-1.347,2.034-.555,2.855.738.764,1.685.574,2.826-.575q10.848-10.929,21.694-21.859c1.081-1.089,1.483-1.152,2.828-.461,1.579.811,3.153,1.629,4.73,2.442,1.473.759,1.792.708,3-.455q6.82-6.556,13.639-13.114c.553-.532,1.118-.985,1.954-.633.862.363.986,1.082.972,1.905-.023,1.308-.018,2.617,0,3.925.015,1.23.585,1.914,1.572,1.936,1.034.023,1.644-.677,1.653-1.955C-1777.15-1076.756-1777.161-1078.7-1777.162-1080.647Z" transform="translate(1934.86 1235.91)" fill="#666573" stroke="#fff" stroke-width="1.4"/>
        </g>
        <g transform="matrix(1, 0, 0, 1, -99.3, -144.65)" filter="url(#Path_3514)">
          <path id="Path_3514-2" data-name="Path 3514" d="M-1781.483-763.3a5.914,5.914,0,0,1-5.909-5.965,5.976,5.976,0,0,1,5.956-5.95,6.019,6.019,0,0,1,5.931,6A5.971,5.971,0,0,1-1781.483-763.3Zm.046-3.058a2.911,2.911,0,0,0,2.9-2.856,2.949,2.949,0,0,0-2.939-2.93,2.917,2.917,0,0,0-2.88,2.874A2.9,2.9,0,0,0-1781.437-766.358Z" transform="translate(1899.56 1004.28)" fill="#666573" stroke="#fff" stroke-width="1"/>
        </g>
        <path id="Path_3515" data-name="Path 3515" d="M-1737.3-869.908l-8.916-23.786c.309-.19.552-.36.813-.5q12.111-6.433,24.226-12.859c2.215-1.174,4.272-.431,4.77,1.723a2.855,2.855,0,0,1,.016,1.189,11.758,11.758,0,0,1-4.154,7.031c-.811.651-1.623,1.3-2.415,1.974a3.287,3.287,0,0,0-1.131,3.7,3.047,3.047,0,0,0,2.977,2.3c4.99.051,10,.467,14.961-.326a18.24,18.24,0,0,0,7.651-3.391c3.827-2.718,7.682-5.4,11.512-8.108a4.349,4.349,0,0,1,4.077-.745,4.129,4.129,0,0,1,2,6.536,5.315,5.315,0,0,1-.8.9q-8.162,6.708-16.342,13.394c-2.436,1.989-5.38,2.753-8.358,3.474-10.176,2.462-20.341,4.97-30.51,7.458A2.932,2.932,0,0,1-1737.3-869.908Z" transform="translate(1770.079 956.658)" fill="#fff"/>
        <path id="Path_3516" data-name="Path 3516" d="M-1654.11-965.762v-4.133c0-3.053-.011-6.107,0-9.16.013-2.731,1.5-4.216,4.24-4.227a18.529,18.529,0,0,1,2.906.132,3.547,3.547,0,0,1,3.018,3.288c.036.366.051.736.051,1.1q0,15,0,30v1.06h-9.839l-.261-.347a11.564,11.564,0,0,0,.984-.623c2.257-1.756,4.558-3.517,5.7-6.242a16.269,16.269,0,0,0,1.446-4.966,5.856,5.856,0,0,0-7.5-6.091C-1653.553-965.923-1653.742-965.865-1654.11-965.762Z" transform="translate(1702.574 1012.123)" fill="#fff"/>
        <path id="Path_3517" data-name="Path 3517" d="M-1725.645-921.69q0-3.236,0-6.494c0-1.775-.017-3.55.006-5.324a3.049,3.049,0,0,1,3.217-3.21q1.908-.024,3.817,0a2.922,2.922,0,0,1,3.126,2.757c.142,2.2.08,4.415.07,6.624a.849.849,0,0,1-.393.611c-3.181,1.705-6.374,3.386-9.568,5.068C-1725.415-921.632-1725.494-921.669-1725.645-921.69Z" transform="translate(1755.005 978.003)" fill="#fff"/>
        <path id="Path_3518" data-name="Path 3518" d="M-1768.84-1072.329c0,1.946.011,3.891,0,5.837-.01,1.278-.619,1.978-1.653,1.955-.987-.022-1.557-.706-1.572-1.936-.016-1.308-.021-2.617,0-3.925.014-.823-.109-1.542-.972-1.905-.836-.352-1.4.1-1.954.633q-6.817,6.56-13.639,13.114c-1.21,1.163-1.529,1.214-3,.455-1.577-.812-3.152-1.631-4.73-2.442-1.345-.691-1.747-.629-2.828.461q-10.849,10.928-21.694,21.859c-1.14,1.149-2.088,1.339-2.826.575-.793-.821-.632-1.659.555-2.855q11.664-11.75,23.33-23.5c1.2-1.207,1.361-1.234,2.863-.465,1.639.839,3.274,1.686,4.914,2.526,1.253.642,1.7.58,2.682-.367q5.873-5.654,11.745-11.308c.6-.574,1.173-1.148.781-2.085-.382-.911-1.159-.992-2.007-.975-1.14.022-2.281.021-3.422,0a1.672,1.672,0,0,1-1.862-1.571,1.669,1.669,0,0,1,1.8-1.648q5.938-.04,11.876,0c1.134.008,1.6.538,1.613,1.725C-1768.826-1076.22-1768.84-1074.275-1768.84-1072.329Z" transform="translate(1827.233 1082.943)" fill="#fff"/>
        <path id="Path_3519" data-name="Path 3519" d="M-1773.12-757.93a2.9,2.9,0,0,1-2.924-2.912,2.918,2.918,0,0,1,2.88-2.874,2.949,2.949,0,0,1,2.939,2.93A2.911,2.911,0,0,1-1773.12-757.93Z" transform="translate(1791.939 851.199)" fill="#fff"/>
      </g>
      <g id="Group_1326" data-name="Group 1326" transform="translate(-1826.995 -1480.481)">
        <g transform="matrix(1, 0, 0, 1, -202.6, -159.48)" filter="url(#Path_3520)">
          <path id="Path_3520-2" data-name="Path 3520" d="M-1335.925-970.122a7.282,7.282,0,0,1-2.021,2.826q-9.677,9.646-19.328,19.317c-2.057,2.057-4.171,2.064-6.217.019q-5.157-5.155-10.3-10.321a2.969,2.969,0,0,1-.391-.7l-.311.225v1.512c0,2.259.008,4.518,0,6.777a3.835,3.835,0,0,1-4.125,4.143c-9.526.01-19.052-.013-28.578.015a4.039,4.039,0,0,1-4.177-4.21c.085-5.941.03-11.883.032-17.824,0-.813.331-1.264.954-1.334a1.067,1.067,0,0,1,1.243,1.114c.021.883.006,1.768.006,2.651q0,7.624,0,15.247c0,1.542.537,2.08,2.077,2.08q14.142,0,28.284,0c1.562,0,2.061-.505,2.061-2.078q0-20.071.011-40.142a1.627,1.627,0,0,0-.521-1.284c-2.4-2.359-4.761-4.752-7.156-7.114a1.416,1.416,0,0,0-.866-.424c-4.739-.025-9.477-.017-14.216-.015-.1,0-.191.026-.529.076.786.991,1.436,1.928,2.206,2.752a11.748,11.748,0,0,0,4.639,3.026c.184.067.366.14.543.225a1.037,1.037,0,0,1,.637,1.323,1.051,1.051,0,0,1-1.327.755,4.016,4.016,0,0,1-.7-.221,14.864,14.864,0,0,1-7.647-6.489c-.086-.146-.181-.287-.308-.488-.158.141-.3.254-.427.381-2.12,2.116-4.248,4.224-6.343,6.365a1.6,1.6,0,0,0-.4,1.013c-.025,5.6-.017,11.2-.018,16.794a4.3,4.3,0,0,1-.012.662,1.032,1.032,0,0,1-1.1.973,1.01,1.01,0,0,1-1.08-.985c-.05-.536-.016-1.079-.016-1.619,0-5.475.011-10.95-.014-16.425a2.157,2.157,0,0,1,.708-1.679c2.448-2.413,4.866-4.857,7.306-7.277a.886.886,0,0,0,.281-1.018,14.974,14.974,0,0,1,11.4-18.932,14.978,14.978,0,0,1,17.714,12.155c.225,1.517.192,3.071.285,4.72h1.912c1.35,0,2.7-.043,4.05.025a2.121,2.121,0,0,1,1.287.523q6.339,6.265,12.619,12.588c.6.6.67,1.268.219,1.751-.488.522-1.156.471-1.8-.171q-5.995-5.984-11.974-11.984a1.627,1.627,0,0,0-1.279-.543q-4.971.04-9.943,0a1.531,1.531,0,0,0-1.28.533c-.454.509-.972.961-1.526,1.5,2,1.986,3.928,3.947,5.918,5.84a2.937,2.937,0,0,1,.987,2.386c-.057,3.164-.021,6.329-.021,9.679.292-.263.484-.421.659-.6q3.257-3.254,6.51-6.511a4.45,4.45,0,0,1,.54-.5,1.02,1.02,0,0,1,1.407.091,1.043,1.043,0,0,1,.163,1.4,3.144,3.144,0,0,1-.487.548q-4.137,4.144-8.285,8.277a1.558,1.558,0,0,0-.519,1.214q.029,7.328,0,14.657a1.566,1.566,0,0,0,.5,1.227q6.084,6.051,12.141,12.129c1.081,1.081,1.858,1.077,2.95-.014q10-10,20-20c1.047-1.048,1.044-1.833-.01-2.888q-6.092-6.1-12.188-12.186c-.122-.121-.246-.241-.364-.365-.6-.629-.644-1.25-.139-1.743s1.107-.444,1.74.188c4.274,4.267,8.558,8.526,12.8,12.827a9.424,9.424,0,0,1,1.158,1.927ZM-1376-1003.558a34.636,34.636,0,0,0-.017-3.57,12.729,12.729,0,0,0-14.615-11.2,12.756,12.756,0,0,0-10.439,15.718c.148.575.388.709.943.707,4.786-.022,9.572,0,14.358-.018,1.061,0,2.135-.119,2.867,1.051.76-.782,1.407-1.521,2.138-2.164a2.184,2.184,0,0,1,1.221-.5C-1378.448-1003.6-1377.342-1003.558-1376-1003.558Z" transform="translate(1613.97 1180.24)" fill="#666573" stroke="#fff" stroke-width="0.5"/>
        </g>
        <g transform="matrix(1, 0, 0, 1, -202.6, -159.48)" filter="url(#Path_3521)">
          <path id="Path_3521-2" data-name="Path 3521" d="M-1377.542-840.449a4.429,4.429,0,0,1-4.168-4.782,4.749,4.749,0,0,1,1.377-3.308,3.788,3.788,0,0,1,5.466-.042c2.513,2.446,1.563,6.98-1.671,7.948A8.982,8.982,0,0,1-1377.542-840.449Zm-1.925-4.64c.01.171,0,.344.031.512a2.1,2.1,0,0,0,1.86,1.871,2.036,2.036,0,0,0,1.832-1.882,3.688,3.688,0,0,0,0-1.019,1.985,1.985,0,0,0-1.841-1.861,2.047,2.047,0,0,0-1.853,1.866C-1379.465-845.433-1379.458-845.26-1379.468-845.088Z" transform="translate(1592.23 1054.89)" fill="#666573" stroke="#fff" stroke-width="0.5"/>
        </g>
        <g transform="matrix(1, 0, 0, 1, -202.6, -159.48)" filter="url(#Path_3522)">
          <path id="Path_3522-2" data-name="Path 3522" d="M-1326.325-803.38a4.863,4.863,0,0,1-1.748,3.76,3.82,3.82,0,0,1-5.58-.749,5.029,5.029,0,0,1,.129-6.139,3.705,3.705,0,0,1,3.726-1.4,4.184,4.184,0,0,1,3.243,3.163A10.179,10.179,0,0,1-1326.325-803.38Zm-2.26.015a2.257,2.257,0,0,0-1.916-2.4,2.248,2.248,0,0,0-1.91,2.331c0,.049,0,.1,0,.147a2.25,2.25,0,0,0,1.916,2.327A2.268,2.268,0,0,0-1328.585-803.365Z" transform="translate(1557.73 1024.3)" fill="#666573" stroke="#fff" stroke-width="0.5"/>
        </g>
        <g transform="matrix(1, 0, 0, 1, -202.6, -159.48)" filter="url(#Path_3523)">
          <path id="Path_3523-2" data-name="Path 3523" d="M-1360.932-828.348a1.132,1.132,0,0,1-1.146-1.725c.613-1.226,1.262-2.434,1.9-3.649q3.161-6.054,6.324-12.108a3.362,3.362,0,0,1,.375-.627,1.034,1.034,0,0,1,1.334-.256,1,1,0,0,1,.552,1.23,2.894,2.894,0,0,1-.254.606q-4.076,7.813-8.156,15.625C-1360.254-828.776-1360.523-828.349-1360.932-828.348Z" transform="translate(1577.96 1052.78)" fill="#666573" stroke="#fff" stroke-width="0.5"/>
        </g>
        <g transform="matrix(1, 0, 0, 1, -202.6, -159.48)" filter="url(#Path_3524)">
          <path id="Path_3524-2" data-name="Path 3524" d="M-1232.359-833.436c-1.048-.023-1.568-.917-1.152-1.645a3.071,3.071,0,0,1,.52-.611q5.378-5.385,10.765-10.762c.222-.222.483-.551.737-.562a1.669,1.669,0,0,1,1.218.332c.223.269.14.833.1,1.259-.017.177-.263.339-.418.494q-5.431,5.436-10.872,10.862A5.5,5.5,0,0,1-1232.359-833.436Z" transform="translate(1483.72 1052.9)" fill="#666573" stroke="#fff" stroke-width="0.5"/>
        </g>
        <g transform="matrix(1, 0, 0, 1, -202.6, -159.48)" filter="url(#Path_3525)">
          <path id="Path_3525-2" data-name="Path 3525" d="M-1247.506-873.853a5.486,5.486,0,0,1-.6.971q-5.626,5.655-11.279,11.284a1.114,1.114,0,0,1-1.635.1,1.127,1.127,0,0,1,.094-1.686c3.755-3.766,7.509-7.533,11.3-11.264a1.5,1.5,0,0,1,1.228-.3C-1248.06-874.659-1247.82-874.188-1247.506-873.853Z" transform="translate(1504.02 1073.25)" fill="#666573" stroke="#fff" stroke-width="0.5"/>
        </g>
        <path id="Path_3526" data-name="Path 3526" d="M-1361.446-890.187a7.057,7.057,0,0,1,.733,0,1.066,1.066,0,0,1,1,1.14,1,1,0,0,1-1,1.049,10.8,10.8,0,0,1-1.392.01,1.1,1.1,0,0,1-1.128-1.1,1.12,1.12,0,0,1,1.131-1.106c.219-.013.44,0,.66,0Z" transform="translate(1376.095 925.066)"/>
        <path id="Path_3527" data-name="Path 3527" d="M-1390.114-888.006c-.245,0-.491.018-.733,0a1.109,1.109,0,0,1-1.054-1.1,1.119,1.119,0,0,1,1.071-1.093,12.594,12.594,0,0,1,1.32,0,1.079,1.079,0,0,1,1.141,1.08,1.074,1.074,0,0,1-1.158,1.131c-.2.01-.391,0-.587,0Z" transform="translate(1397.103 925.087)"/>
        <path id="Path_3528" data-name="Path 3528" d="M-1332.817-888.013a7.209,7.209,0,0,1-.733,0,1.034,1.034,0,0,1-1.012-1.051,1.067,1.067,0,0,1,1-1.138,11.1,11.1,0,0,1,1.393-.008,1.084,1.084,0,0,1,1.12,1.1,1.076,1.076,0,0,1-1.112,1.1c-.219.014-.44,0-.66,0Z" transform="translate(1355.081 925.092)"/>
        <path id="Path_3529" data-name="Path 3529" d="M-1304.16-888.012a7.068,7.068,0,0,1-.733,0,1.022,1.022,0,0,1-1.008-1.049,1.055,1.055,0,0,1,1-1.141,11.222,11.222,0,0,1,1.393-.008,1.1,1.1,0,0,1,1.13,1.1,1.1,1.1,0,0,1-1.119,1.106c-.219.014-.44,0-.66,0Z" transform="translate(1334.074 925.092)"/>
        <path id="Path_3530" data-name="Path 3530" d="M-1348.815-997.3c-1.339,0-2.444-.046-3.543.023a2.183,2.183,0,0,0-1.221.5c-.731.643-1.377,1.382-2.138,2.164-.733-1.17-1.806-1.055-2.867-1.052-4.786.013-9.572,0-14.358.018-.556,0-.8-.131-.943-.707a12.756,12.756,0,0,1,10.438-15.718,12.729,12.729,0,0,1,14.615,11.2A34.635,34.635,0,0,1-1348.815-997.3Z" transform="translate(1384.19 1014.493)" fill="#fff"/>
        <path id="Path_3531" data-name="Path 3531" d="M-1373.3-838.891c.009-.171,0-.344.029-.512a2.048,2.048,0,0,1,1.853-1.866,1.985,1.985,0,0,1,1.841,1.861,3.688,3.688,0,0,1,0,1.019,2.036,2.036,0,0,1-1.832,1.882,2.1,2.1,0,0,1-1.86-1.871A5.1,5.1,0,0,1-1373.3-838.891Z" transform="translate(1383.473 889.208)" fill="#fff"/>
        <path id="Path_3532" data-name="Path 3532" d="M-1322.484-797.237a2.268,2.268,0,0,1-1.909,2.407,2.25,2.25,0,0,1-1.916-2.327c0-.049,0-.1,0-.147a2.247,2.247,0,0,1,1.91-2.331A2.257,2.257,0,0,1-1322.484-797.237Z" transform="translate(1349.032 858.693)" fill="#fff"/>
      </g>
    </g>
    <rect id="Rectangle_539" data-name="Rectangle 539" width="30" height="2" rx="1" transform="translate(193 274)" fill="#0196fd"/>
    <rect id="Rectangle_550" data-name="Rectangle 550" width="30" height="2" rx="1" transform="translate(557 273)" fill="#0196fd"/>
    <rect id="Rectangle_541" data-name="Rectangle 541" width="30" height="2" rx="1" transform="translate(167 323)" fill="#0196fd"/>
    <rect id="Rectangle_542" data-name="Rectangle 542" width="30" height="2" rx="1" transform="translate(186 341)" fill="#0196fd"/>
    <rect id="Rectangle_547" data-name="Rectangle 547" width="30" height="2" rx="1" transform="translate(570 311)" fill="#0196fd"/>
    <rect id="Rectangle_551" data-name="Rectangle 551" width="30" height="2" rx="1" transform="translate(559 351)" fill="#0196fd"/>
    <rect id="Rectangle_540" data-name="Rectangle 540" width="10" height="2" rx="1" transform="translate(184 308)" fill="#0196fd"/>
    <rect id="Rectangle_549" data-name="Rectangle 549" width="10" height="2" rx="1" transform="translate(598 298)" fill="#0196fd"/>
    <g id="Group_1328" data-name="Group 1328" transform="translate(-38 -30)">
      <rect id="Rectangle_543" data-name="Rectangle 543" width="15" height="2" rx="1" transform="translate(218.321 382.661) rotate(47)" fill="#0196fd"/>
      <rect id="Rectangle_544" data-name="Rectangle 544" width="15" height="2" rx="1" transform="matrix(-0.719, 0.695, -0.695, -0.719, 228.795, 384.338)" fill="#0196fd"/>
    </g>
    <g id="Group_1330" data-name="Group 1330" transform="translate(298.804 39.683)">
      <rect id="Rectangle_543-2" data-name="Rectangle 543" width="8.094" height="1.079" rx="0.54" transform="translate(217.536 382.661) rotate(47)" fill="#0196fd"/>
      <rect id="Rectangle_544-2" data-name="Rectangle 544" width="8.094" height="1.079" rx="0.54" transform="matrix(-0.719, 0.695, -0.695, -0.719, 223.188, 383.566)" fill="#0196fd"/>
    </g>
    <rect id="Rectangle_545" data-name="Rectangle 545" width="10" height="2" rx="1" transform="translate(172 376)" fill="#0196fd"/>
    <rect id="Rectangle_546" data-name="Rectangle 546" width="10" height="2" rx="1" transform="translate(441 428)" fill="#0196fd"/>
    <g id="Ellipse_47" data-name="Ellipse 47" transform="translate(273 383)" fill="#fff" stroke="#0196fd" stroke-width="1.5">
      <circle cx="4.5" cy="4.5" r="4.5" stroke="none"/>
      <circle cx="4.5" cy="4.5" r="3.75" fill="none"/>
    </g>
    <g id="Ellipse_50" data-name="Ellipse 50" transform="translate(322 266)" fill="#fff" stroke="#0196fd" stroke-width="1.5">
      <circle cx="4.5" cy="4.5" r="4.5" stroke="none"/>
      <circle cx="4.5" cy="4.5" r="3.75" fill="none"/>
    </g>
    <g id="Ellipse_51" data-name="Ellipse 51" transform="translate(463 262)" fill="#fff" stroke="#0196fd" stroke-width="1.5">
      <circle cx="4.5" cy="4.5" r="4.5" stroke="none"/>
      <circle cx="4.5" cy="4.5" r="3.75" fill="none"/>
    </g>
    <g id="Ellipse_48" data-name="Ellipse 48" transform="translate(350 469)" fill="#fff" stroke="#0196fd" stroke-width="1.5">
      <circle cx="4.5" cy="4.5" r="4.5" stroke="none"/>
      <circle cx="4.5" cy="4.5" r="3.75" fill="none"/>
    </g>
    <g id="Ellipse_49" data-name="Ellipse 49" transform="translate(455 417)" fill="#fff" stroke="#0196fd" stroke-width="1.5">
      <circle cx="4.5" cy="4.5" r="4.5" stroke="none"/>
      <circle cx="4.5" cy="4.5" r="3.75" fill="none"/>
    </g>
  </g>
</svg>
