<svg xmlns="http://www.w3.org/2000/svg" xmlns:xlink="http://www.w3.org/1999/xlink" width="154" height="129" viewBox="0 0 154 129">
  <defs>
    <clipPath id="clip-path">
      <rect id="Rectangle_2622" data-name="Rectangle 2622" width="154" height="129" transform="translate(0 541)" fill="none"/>
    </clipPath>
  </defs>
  <g id="login_bg_circle" transform="translate(0 -541)" clip-path="url(#clip-path)">
    <path id="Subtraction_22" data-name="Subtraction 22" d="M2690.484-5295.034a113.78,113.78,0,0,1-44.562-9,114.45,114.45,0,0,1-19.447-10.555,115.3,115.3,0,0,1-16.943-13.979,115.279,115.279,0,0,1-13.979-16.943A114.447,114.447,0,0,1,2585-5364.955a113.761,113.761,0,0,1-9-44.562,113.763,113.763,0,0,1,9-44.562,114.412,114.412,0,0,1,10.555-19.447,115.3,115.3,0,0,1,13.979-16.943,115.3,115.3,0,0,1,16.943-13.98A114.586,114.586,0,0,1,2645.921-5515a113.782,113.782,0,0,1,44.563-9,113.778,113.778,0,0,1,44.561,9,114.519,114.519,0,0,1,19.446,10.555,115.294,115.294,0,0,1,16.943,13.98,115.3,115.3,0,0,1,13.979,16.943,114.448,114.448,0,0,1,10.556,19.447,113.767,113.767,0,0,1,9,44.562,113.766,113.766,0,0,1-9,44.562,114.45,114.45,0,0,1-10.556,19.446,115.3,115.3,0,0,1-13.979,16.943,115.272,115.272,0,0,1-16.943,13.979,114.52,114.52,0,0,1-19.446,10.555A113.777,113.777,0,0,1,2690.484-5295.034Zm0-171.932a57.515,57.515,0,0,0-57.45,57.449,57.514,57.514,0,0,0,57.45,57.448,57.513,57.513,0,0,0,57.447-57.448A57.513,57.513,0,0,0,2690.484-5466.966Z" transform="translate(-2651.465 6064.518)" fill="#96dbf9" opacity="0.27"/>
  </g>
</svg>
