<svg xmlns="http://www.w3.org/2000/svg" width="118.373" height="114.619" viewBox="0 0 118.373 114.619">
  <g id="logo_icon" transform="translate(0 0)">
    <g id="Group_25421" data-name="Group 25421" transform="translate(0 0)">
      <path id="Polygon_1" data-name="Polygon 1" d="M25.322,3.249a2.172,2.172,0,0,0-1.879,1.087L3.537,39a2.174,2.174,0,0,0,0,2.158L23.444,75.817A2.172,2.172,0,0,0,25.322,76.9H65.086a2.172,2.172,0,0,0,1.879-1.087L86.872,41.156a2.174,2.174,0,0,0,0-2.158L66.965,4.337a2.172,2.172,0,0,0-1.879-1.087H25.322m0-3.249H65.086a5.416,5.416,0,0,1,4.7,2.719L89.689,37.379a5.416,5.416,0,0,1,0,5.394L69.783,77.435a5.416,5.416,0,0,1-4.7,2.719H25.322a5.416,5.416,0,0,1-4.7-2.719L.719,42.774a5.416,5.416,0,0,1,0-5.394L20.626,2.719A5.416,5.416,0,0,1,25.322,0Z" transform="translate(0 45.204) rotate(-30)" fill="#353c40"/>
      <path id="Polygon_2" data-name="Polygon 2" d="M51.542,0a5,5,0,0,1,4.33,2.5L71.127,28.911a5,5,0,0,1,0,5L55.872,60.324a5,5,0,0,1-4.33,2.5H21.029a5,5,0,0,1-4.33-2.5L1.444,33.912a5,5,0,0,1,0-5L16.7,2.5A5,5,0,0,1,21.029,0Z" transform="translate(12.057 48.25) rotate(-30)" fill="#ed1c24"/>
    </g>
    <path id="Subtraction_138" data-name="Subtraction 138" d="M24.153,33.324H16.5L6.62,21.023H6.261l0,0H0V16.1H6.261l0,0H9.571c4.327,0,6.709-1.858,6.709-5.233,0-3.267-2.364-5.141-6.487-5.141H6.261v8.84H0V0H9.974A18.5,18.5,0,0,1,15.31.718,11.252,11.252,0,0,1,19.288,2.79,8.906,8.906,0,0,1,21.772,6.1a10.981,10.981,0,0,1,.858,4.416,9.815,9.815,0,0,1-2.107,6.25,11.621,11.621,0,0,1-7.1,3.9L24.152,33.322Zm-17.892,0H0V22.558H6.261V33.323Z" transform="translate(50.836 41.214)" fill="#fff" stroke="rgba(0,0,0,0)" stroke-miterlimit="10" stroke-width="1"/>
    <path id="Path_57956" data-name="Path 57956" d="M-23845.906-11968.893h-14.145v4.931h16.416l-.111-4.931Z" transform="translate(23900.521 12026.202)" fill="#fff"/>
    <rect id="Rectangle_2871" data-name="Rectangle 2871" width="9.364" height="4.682" transform="translate(50.835 69.975)" fill="#fff" stroke="rgba(0,0,0,0)" stroke-miterlimit="10" stroke-width="1"/>
  </g>
</svg>
