<svg xmlns="http://www.w3.org/2000/svg" width="50.188" height="50.201" viewBox="0 0 50.188 50.201">
  <g id="loyalty_promo" transform="translate(0)">
    <g id="Group_245" data-name="Group 245" transform="translate(0 0)">
      <g id="Group_237" data-name="Group 237" transform="translate(13.893 10.64)">
        <path id="Path_129" data-name="Path 129" d="M605,125.43A5.914,5.914,0,0,0,598,122.624a6.034,6.034,0,0,0-3.077,2.363c-.187.262-.26.279-.458,0a5.78,5.78,0,0,0-4.846-2.64,5.582,5.582,0,0,0-3.665,1.25,6.879,6.879,0,0,0-2.057,7.643,10.4,10.4,0,0,0,1.988,3.242q.275.315.568.618.342.353.694.7l.307-.115a2.915,2.915,0,0,0,1.455-1.129c-.422-.4-.841-.806-1.233-1.234a8.43,8.43,0,0,1-1.518-2.189,4.741,4.741,0,0,1,.525-5.281,3.71,3.71,0,0,1,6.089.426,7.581,7.581,0,0,1,.881,1.76,1.091,1.091,0,0,0,1.022.813,1.077,1.077,0,0,0,1.056-.817,7.083,7.083,0,0,1,1.351-2.343,3.741,3.741,0,0,1,6.058.771,4.642,4.642,0,0,1,.612,2.382,5.719,5.719,0,0,1-1.4,3.673q-.318.41-.661.793c-.388.438-.8.853-1.221,1.256a2.913,2.913,0,0,0,1.458,1.123l.323.12c.436-.421.856-.854,1.249-1.312a11.584,11.584,0,0,0,1.5-2.166A6.974,6.974,0,0,0,605,125.43Z" transform="translate(-583.486 -122.342)" fill="#119fda"/>
      </g>
      <g id="Group_239" data-name="Group 239" transform="translate(13.532 17.857)">
        <g id="Group_238" data-name="Group 238">
          <path id="Path_130" data-name="Path 130" d="M601.844,216.73c.082-.184.164-.369.248-.552a4.85,4.85,0,0,0,.257-.751l.013-.045v-.959l-.009-.037a3.034,3.034,0,0,0-2.168-2.331c-.184-.06-.37-.129-.553-.2l-.239-.092c-.22-.086-.448-.174-.677-.254a1.387,1.387,0,0,1-.893-.841c-.009-.026-.02-.051-.029-.078-.206-.585-.428-1.178-.68-1.813a2.885,2.885,0,0,0-3.859-1.616c-.661.282-1.312.585-1.8.817a1.386,1.386,0,0,1-1.265,0c-.545-.258-1.182-.556-1.825-.827a2.877,2.877,0,0,0-2.276,0,2.911,2.911,0,0,0-1.583,1.67l-.158.418c-.17.447-.345.91-.509,1.369-.009.025-.018.049-.028.073a1.371,1.371,0,0,1-.867.823c-.309.11-.619.226-.924.34l-.308.117-.534.2a2.894,2.894,0,0,0-1.681,3.888c.276.648.568,1.276.818,1.8a1.382,1.382,0,0,1,0,1.264c-.321.678-.575,1.238-.8,1.763a2.894,2.894,0,0,0,1.664,3.927l.063.025c.556.212,1.132.432,1.7.637a1.376,1.376,0,0,1,.893.9c.148.419.309.841.463,1.248l.128.339a3.972,3.972,0,0,0,.339.734,3,3,0,0,0,1.952,1.336l.038.009h.958l.044-.012a10.367,10.367,0,0,0,1.8-.732c.184-.089.375-.18.562-.266a1.5,1.5,0,0,1,1.386,0c.355.174.72.338,1.073.5q.283.125.565.254a4.644,4.644,0,0,0,.733.248l.044.013h.959l.037-.009a3.025,3.025,0,0,0,2.336-2.186c.042-.133.1-.265.154-.405a4.4,4.4,0,0,0,.219-.619,1.91,1.91,0,0,1,1.515-1.514,4.412,4.412,0,0,0,.619-.219c.14-.057.272-.112.405-.154a3.029,3.029,0,0,0,2.186-2.336l.009-.037v-.958l-.012-.044a10.488,10.488,0,0,0-.735-1.806c-.087-.181-.178-.368-.262-.552a1.5,1.5,0,0,1,0-1.4C601.526,217.441,601.687,217.08,601.844,216.73Zm-2.109,2.909c.19.439.393.882.589,1.309.084.183.168.365.251.549a1.237,1.237,0,0,1-.714,1.754c-.37.143-.749.285-1.116.422l-.743.279a2.892,2.892,0,0,0-1.741,1.77l-.117.317c-.189.507-.383,1.031-.581,1.542a1.194,1.194,0,0,1-1.182.8h-.023a1.126,1.126,0,0,1-.52-.13l-.376-.172c-.477-.218-.97-.444-1.459-.659a2.907,2.907,0,0,0-1.183-.259,2.946,2.946,0,0,0-1.212.271q-.9.4-1.795.812a1.322,1.322,0,0,1-1.051.053,1.284,1.284,0,0,1-.706-.76c-.222-.571-.439-1.156-.648-1.723l-.035-.093a2.933,2.933,0,0,0-1.829-1.8c-.665-.241-1.245-.459-1.773-.665a1.288,1.288,0,0,1-.76-.707,1.322,1.322,0,0,1,.054-1.051c.087-.189.172-.38.258-.571.161-.361.328-.734.5-1.1a2.983,2.983,0,0,0,0-2.672c-.171-.36-.338-.731-.5-1.091q-.129-.288-.259-.575a1.243,1.243,0,0,1,.738-1.775l.622-.233.852-.318.307-.115a2.914,2.914,0,0,0,1.455-1.129,3.222,3.222,0,0,0,.341-.676c.214-.582.437-1.172.653-1.743l.021-.056a1.234,1.234,0,0,1,1.735-.719l1.226.556.585.266a2.82,2.82,0,0,0,2.374.026c.539-.234,1.08-.483,1.6-.724l.216-.1a1.245,1.245,0,0,1,1.8.742q.333.891.667,1.782a3.158,3.158,0,0,0,.335.655,2.912,2.912,0,0,0,1.458,1.123l.323.12c.5.186,1.012.377,1.516.57a1.228,1.228,0,0,1,.7,1.679c-.165.374-.338.753-.505,1.12-.113.25-.228.5-.341.75A2.806,2.806,0,0,0,599.734,219.639Z" transform="translate(-579.25 -206.916)" fill="#119fda"/>
        </g>
      </g>
      <g id="Group_243" data-name="Group 243" transform="translate(20.454 24.009)">
        <g id="Group_240" data-name="Group 240" transform="translate(1.542 0.782)">
          <path id="Path_131" data-name="Path 131" d="M678.5,296.818a.4.4,0,0,0,.355.614c.2.012.3-.134.4-.291q1.469-2.313,2.941-4.624l2.323-3.65a.467.467,0,0,0,.1-.37.391.391,0,0,0-.308-.318.418.418,0,0,0-.477.241l-4.733,7.436C678.9,296.176,678.691,296.492,678.5,296.818Z" transform="translate(-678.434 -288.167)" fill="#119fda"/>
        </g>
        <g id="Group_241" data-name="Group 241" transform="translate(5.385 6.927)">
          <path id="Path_132" data-name="Path 132" d="M723.474,362.131a1.968,1.968,0,0,0,1.949,1.959,1.953,1.953,0,0,0-.006-3.905A1.967,1.967,0,0,0,723.474,362.131Zm3.069.007a1.126,1.126,0,0,1-1.115,1.134,1.135,1.135,0,1,1,0-2.269A1.122,1.122,0,0,1,726.543,362.138Z" transform="translate(-723.474 -360.184)" fill="#119fda"/>
        </g>
        <g id="Group_242" data-name="Group 242" transform="translate(0 0)">
          <path id="Path_133" data-name="Path 133" d="M662.3,282.911a1.951,1.951,0,0,0,.011-3.9,1.978,1.978,0,0,0-1.949,1.9A1.951,1.951,0,0,0,662.3,282.911Zm-.011-3.083a1.134,1.134,0,1,1,.012,2.269,1.135,1.135,0,0,1-.012-2.269Z" transform="translate(-660.365 -279.009)" fill="#119fda"/>
        </g>
      </g>
      <g id="Group_244" data-name="Group 244" transform="translate(0 0)">
        <path id="Path_134" data-name="Path 134" d="M445.751,47.854c-.54,0-1.075-.009-1.6-.027a2.83,2.83,0,0,1-2.9-3.047c0-.271,0-.542,0-.814,0-.413,0-.839,0-1.254a.59.59,0,0,0-.46-.657,23.829,23.829,0,0,1-5.132-2.119.6.6,0,0,0-.845.137c-.261.25-.524.516-.778.773-.237.239-.482.486-.731.727a2.761,2.761,0,0,1-4.148-.01c-.9-.888-1.59-1.578-2.235-2.237a2.759,2.759,0,0,1,.016-4.109c.232-.236.468-.471.7-.7.254-.253.517-.514.768-.772.372-.382.353-.584.164-.922a23.34,23.34,0,0,1-2.1-5.085c-.068-.243-.2-.469-.7-.475-.4,0-.8,0-1.2,0h-.821a2.872,2.872,0,0,1-3.069-2.995c-.01-.351-.007-.7-.005-1.077,0-.18,0-.37,0-.574l0-.077c.011-.146.006-.336,0-.538a5.961,5.961,0,0,1,.1-1.5,2.783,2.783,0,0,1,2.7-2.253c.456-.012.911-.01,1.351-.008.314,0,.639,0,.955,0a.608.608,0,0,0,.686-.488,23.394,23.394,0,0,1,2.1-5.084c.179-.322.2-.526-.146-.884-.247-.255-.507-.513-.758-.762s-.523-.519-.783-.787a2.747,2.747,0,0,1,.008-4.026c.841-.861,1.612-1.632,2.357-2.355a2.727,2.727,0,0,1,3.983.008c.295.284.584.575.863.857.214.216.436.439.654.653.419.41.614.368.959.174a23.055,23.055,0,0,1,5.036-2.082c.309-.087.5-.239.506-.728,0-.378,0-.765,0-1.14,0-.294,0-.587,0-.881A2.813,2.813,0,0,1,444.1-2.312c1.121-.047,2.244-.046,3.337,0A2.821,2.821,0,0,1,450.27.673c0,.311,0,.623,0,.934,0,.392,0,.8,0,1.191a.6.6,0,0,0,.46.657,23.4,23.4,0,0,1,5.136,2.12c.268.15.473.219.874-.17.254-.247.512-.506.761-.757s.495-.5.749-.746a2.738,2.738,0,0,1,4.068,0c.85.833,1.608,1.59,2.316,2.316a2.75,2.75,0,0,1-.005,4.027c-.27.28-.547.554-.815.82-.229.227-.466.463-.692.695-.374.383-.356.584-.17.917a23.315,23.315,0,0,1,2.1,5.085c.069.246.2.475.695.481.385,0,.779,0,1.161,0,.3,0,.608,0,.912,0a2.839,2.839,0,0,1,3.009,2.873c.042,1.106.042,2.209,0,3.277a2.842,2.842,0,0,1-3.016,2.864c-.3,0-.6,0-.9,0-.385,0-.783,0-1.17,0-.554.006-.64.317-.673.434a24.047,24.047,0,0,1-2.137,5.182c-.138.249-.207.454.163.836.242.25.5.5.743.747.262.26.534.529.8.8a2.75,2.75,0,0,1,0,4.025c-.848.87-1.62,1.64-2.358,2.356a2.73,2.73,0,0,1-3.985-.008c-.293-.282-.58-.571-.857-.851-.216-.218-.44-.443-.66-.659-.419-.41-.614-.368-.958-.174a22.972,22.972,0,0,1-5.037,2.082c-.309.087-.5.239-.506.727,0,.373,0,.756,0,1.126,0,.3,0,.6,0,.9a2.828,2.828,0,0,1-2.906,3.038C446.824,47.846,446.285,47.854,445.751,47.854ZM435.294,37.773a2.794,2.794,0,0,1,1.357.371,21.778,21.778,0,0,0,4.69,1.938,2.633,2.633,0,0,1,1.958,2.6c.006.433.005.868,0,1.29,0,.267,0,.533,0,.8,0,.814.354.989.918,1.009,1,.035,2.034.035,3.075,0,.569-.019.922-.193.926-1,0-.294,0-.588,0-.882,0-.375,0-.764,0-1.148a2.667,2.667,0,0,1,2-2.679,20.924,20.924,0,0,0,4.587-1.9,2.645,2.645,0,0,1,3.4.5c.231.226.46.457.681.68.269.272.548.553.824.819a.711.711,0,0,0,1.139.012c.725-.7,1.483-1.46,2.317-2.315a.719.719,0,0,0,0-1.173c-.249-.258-.513-.52-.767-.772s-.516-.512-.773-.777a2.62,2.62,0,0,1-.483-3.253,21.99,21.99,0,0,0,1.956-4.74,2.631,2.631,0,0,1,2.622-1.932c.4,0,.807,0,1.2,0,.3,0,.591,0,.886,0,.785,0,.96-.362.981-.9.04-1.015.041-2.064,0-3.118-.02-.539-.194-.9-.974-.9-.3,0-.6,0-.9,0-.389,0-.791,0-1.189,0a2.636,2.636,0,0,1-2.643-1.974,21.269,21.269,0,0,0-1.916-4.638,2.646,2.646,0,0,1,.49-3.349c.238-.244.481-.485.715-.718.26-.258.53-.526.785-.79a.725.725,0,0,0,.011-1.174c-.7-.715-1.443-1.461-2.282-2.283a.731.731,0,0,0-1.206,0c-.242.236-.488.484-.726.723-.255.257-.519.523-.787.783a2.615,2.615,0,0,1-3.3.487,21.341,21.341,0,0,0-4.686-1.934,2.634,2.634,0,0,1-1.956-2.6c-.006-.411,0-.825,0-1.225,0-.3,0-.609,0-.914,0-.65-.258-.926-.874-.953-1.036-.045-2.1-.045-3.163,0-.541.022-.877.2-.881,1,0,.289,0,.578,0,.867,0,.38,0,.774,0,1.163a2.669,2.669,0,0,1-2,2.679,21,21,0,0,0-4.588,1.9,2.646,2.646,0,0,1-3.4-.5c-.229-.224-.455-.453-.675-.673-.272-.274-.552-.556-.831-.824a.709.709,0,0,0-1.136-.014c-.732.711-1.49,1.468-2.318,2.317a.717.717,0,0,0,0,1.171c.245.253.5.51.754.758s.526.522.788.792a2.623,2.623,0,0,1,.463,3.3,21.347,21.347,0,0,0-1.919,4.638,2.633,2.633,0,0,1-2.635,1.986c-.332,0-.666,0-.988,0-.425,0-.865,0-1.289.007a.73.73,0,0,0-.753.65,4.159,4.159,0,0,0-.047.993c.006.232.013.471,0,.709,0,.195,0,.377,0,.551,0,.371,0,.691,0,1.007.02.738.29,1,1.03,1,.27,0,.539,0,.809,0,.4,0,.814,0,1.224,0a2.633,2.633,0,0,1,2.646,1.971,21.287,21.287,0,0,0,1.916,4.638,2.652,2.652,0,0,1-.486,3.349c-.263.27-.532.537-.791.8-.224.223-.456.453-.678.68-.455.464-.459.789-.016,1.241.637.65,1.319,1.333,2.211,2.212.481.475.793.474,1.284,0,.235-.228.472-.467.7-.7.263-.265.535-.539.813-.807A2.724,2.724,0,0,1,435.294,37.773Z" transform="translate(-420.676 2.347)" fill="#119fda"/>
      </g>
    </g>
  </g>
</svg>
