<svg xmlns="http://www.w3.org/2000/svg" width="15.477" height="11.148" viewBox="0 0 15.477 11.148">
  <g id="mail" transform="translate(0.25 0.25)">
    <g id="Group_1165" data-name="Group 1165" transform="translate(2.609 5.134)">
      <path id="Path_3276" data-name="Path 3276" d="M21.876,18.2a.239.239,0,0,1-.165-.066l-2.779-2.607a.241.241,0,1,1,.331-.352l2.779,2.607a.241.241,0,0,1-.166.417Z" transform="translate(-12.358 -15.111)" fill="#0196fd" stroke="#0196fd" stroke-width="0.5"/>
      <path id="Path_3277" data-name="Path 3277" d="M5.643,18.2a.241.241,0,0,1-.166-.417l2.78-2.607a.241.241,0,1,1,.331.352l-2.78,2.607A.239.239,0,0,1,5.643,18.2Z" transform="translate(-5.402 -15.112)" fill="#0196fd" stroke="#0196fd" stroke-width="0.5"/>
    </g>
    <path id="Path_3278" data-name="Path 3278" d="M13.77,15.13H1.207A1.209,1.209,0,0,1,0,13.922V5.689A1.209,1.209,0,0,1,1.207,4.482H13.77a1.209,1.209,0,0,1,1.207,1.207v8.233A1.209,1.209,0,0,1,13.77,15.13ZM1.207,4.965a.725.725,0,0,0-.724.724v8.233a.725.725,0,0,0,.724.724H13.77a.725.725,0,0,0,.724-.724V5.689a.725.725,0,0,0-.724-.724Z" transform="translate(0 -4.482)" fill="#0196fd" stroke="#0196fd" stroke-width="0.5"/>
    <path id="Path_3279" data-name="Path 3279" d="M7.829,11.431a1.351,1.351,0,0,1-.887-.32L.741,5.7a.241.241,0,1,1,.317-.364l6.2,5.409a.9.9,0,0,0,1.138,0l6.193-5.4a.242.242,0,0,1,.318.364l-6.193,5.4A1.349,1.349,0,0,1,7.829,11.431Z" transform="translate(-0.34 -4.894)" fill="#0196fd" stroke="#0196fd" stroke-width="0.5"/>
  </g>
</svg>
