<?xml version="1.0" encoding="utf-8"?>
<!-- Generator: Adobe Illustrator 25.4.1, SVG Export Plug-In . SVG Version: 6.00 Build 0)  -->
<svg version="1.1" id="Layer_1" xmlns="http://www.w3.org/2000/svg" xmlns:xlink="http://www.w3.org/1999/xlink" x="0px" y="0px"
	 viewBox="0 0 36.1 41.1" style="enable-background:new 0 0 36.1 41.1;" xml:space="preserve">
<style type="text/css">
	.st0{fill:#606060;}
</style>
<g id="notes_add" transform="translate(0 0)">
	<g id="Path_86">
		<path class="st0" d="M21.9,32.9h0.4c0.3,0,0.5-0.2,0.5-0.5c0-0.2-0.2-0.4-0.5-0.5H6.5V1h18.9V8c0,0.3,0.2,0.5,0.4,0.5h6.8v18.7
			c0,0.3,0.2,0.5,0.5,0.5c0.2,0,0.4-0.2,0.5-0.5V8c0,0,0-0.1,0-0.1c0,0,0,0,0,0c0-0.1,0-0.1-0.1-0.1l0,0l0,0l-7.2-7.5
			C26.1,0,26,0,25.9,0H6C5.8,0,5.6,0.2,5.6,0.5c0,0,0,0,0,0V32H0.5C0.2,32,0,32.2,0,32.4c0,0,0,0,0,0c0,3.4,2.4,6.1,5.3,6.1h17
			c0.3,0,0.5-0.2,0.5-0.5c0-0.3-0.2-0.5-0.5-0.5c0,0,0,0,0,0h-17c-2.3,0-4.2-2.1-4.4-4.7L21.9,32.9L21.9,32.9z M26.4,1.7L32,7.6
			h-5.6V1.7z"/>
	</g>
	<g id="Path_87">
		<path class="st0" d="M31.1,26.7v-14c0-0.3-0.2-0.5-0.5-0.5l0,0H8.5c-0.3,0-0.5,0.2-0.5,0.5l0,0v14c0,0.3,0.2,0.5,0.4,0.5h22.2
			C30.9,27.2,31.1,27,31.1,26.7C31.1,26.7,31.1,26.7,31.1,26.7z M30.2,15.1H15.5v-1.8h14.7V15.1z M12.3,15.1v-1.8h2.2V15L12.3,15.1z
			 M14.5,16v10.2h-2.2V16L14.5,16z M8.9,13.2h2.4V15H8.9L8.9,13.2z M8.9,16h2.4v10.2H8.9L8.9,16z M15.5,26.2V16h14.7v10.2L15.5,26.2
			z"/>
	</g>
	<g id="Path_88">
		<path class="st0" d="M22.7,29.1c0-0.3-0.2-0.5-0.4-0.5h-1.7c-0.3,0-0.5,0.2-0.5,0.5c0,0.3,0.2,0.5,0.5,0.5h1.6
			C22.5,29.6,22.7,29.4,22.7,29.1C22.7,29.1,22.7,29.1,22.7,29.1C22.7,29.1,22.7,29.1,22.7,29.1z"/>
	</g>
	<g id="Path_89">
		<path class="st0" d="M18.7,29.1c0,0.2,0.2,0.4,0.4,0.4s0.4-0.2,0.4-0.4c0-0.2-0.2-0.4-0.4-0.4l0,0C18.9,28.7,18.7,28.9,18.7,29.1
			L18.7,29.1L18.7,29.1z"/>
	</g>
	<g id="Path_90">
		<path class="st0" d="M8.1,5.7h5.2c0.3,0,0.5-0.2,0.5-0.5c0-0.2-0.2-0.4-0.5-0.5H8.1C7.8,4.8,7.6,5,7.6,5.3
			C7.7,5.5,7.9,5.7,8.1,5.7z"/>
	</g>
	<g id="Path_91">
		<path class="st0" d="M8.1,7.4h7c0.3,0,0.5-0.2,0.5-0.5s-0.2-0.5-0.5-0.5h-7C7.8,6.5,7.6,6.7,7.6,7S7.8,7.4,8.1,7.4z"/>
	</g>
	<g id="Path_92">
		<path class="st0" d="M16.9,7c0-0.2-0.2-0.4-0.4-0.4c-0.2,0-0.4,0.2-0.4,0.4c0,0.2,0.2,0.4,0.4,0.4l0,0C16.7,7.4,16.9,7.2,16.9,7
			L16.9,7z"/>
	</g>
	<g id="Path_94">
		<path class="st0" d="M35.8,30.4c-1.8-1-3.8-1.7-5.8-2.2c-0.1,0-0.2,0-0.2,0c-2,0.5-4,1.3-5.8,2.2c-0.2,0.1-0.2,0.3-0.2,0.5
			c0,0.5,0.1,0.9,0.1,1.4c0.4,3.8,0.8,8.6,6,8.9h0.1c5.3-0.3,5.7-4.6,6-8.5c0-0.6,0.1-1.2,0.2-1.8C36.1,30.7,36,30.5,35.8,30.4z
			 M34.9,32.5c-0.3,3.8-0.6,7.4-5,7.6c-4.3-0.3-4.7-4.2-5-8c0-0.4-0.1-0.7-0.1-1.1c1.7-0.8,3.4-1.4,5.2-1.9c1.8,0.5,3.5,1.1,5.2,1.9
			C35,31.6,35,32,34.9,32.5L34.9,32.5z"/>
	</g>
	<g id="Line_1">
		<path class="st0" d="M33.1,35.2h-5.1c-0.3,0-0.5-0.2-0.5-0.5s0.2-0.5,0.5-0.5h5.1c0.3,0,0.5,0.2,0.5,0.5S33.3,35.2,33.1,35.2z"/>
	</g>
	<g id="Line_70">
		<path class="st0" d="M30.5,38c-0.3,0-0.5-0.2-0.5-0.5v-5.2c0-0.3,0.2-0.5,0.5-0.5S31,32,31,32.2v5.2C31,37.7,30.7,38,30.5,38z"/>
	</g>
</g>
</svg>
