<?xml version="1.0" encoding="utf-8"?>
<!-- Generator: Adobe Illustrator 25.4.1, SVG Export Plug-In . SVG Version: 6.00 Build 0)  -->
<svg version="1.1" id="notes" xmlns="http://www.w3.org/2000/svg" xmlns:xlink="http://www.w3.org/1999/xlink" x="0px" y="0px"
	 viewBox="0 0 37 42.1" style="enable-background:new 0 0 37 42.1;" xml:space="preserve">
<style type="text/css">
	.st0{fill:#606060;}
</style>
<g>
	<g id="Path_86">
		<path class="st0" d="M22.4,33.7h0.4c0.3,0,0.5-0.2,0.5-0.5s-0.2-0.5-0.5-0.5H6.7V1H26v7.2c0,0.3,0.2,0.5,0.4,0.5c0,0,0,0,0,0h7
			v19.1c0,0.3,0.2,0.5,0.5,0.5s0.5-0.2,0.5-0.5V8.2c0,0,0-0.1,0-0.1c0,0,0,0,0,0c0-0.1,0-0.1-0.1-0.1l0,0l0,0l-7.4-7.7
			C26.8,0,26.6,0,26.5,0H6.2C5.9,0,5.7,0.2,5.7,0.5v32.3H0.5C0.2,32.8,0,33,0,33.2l0,0c0,0,0,0,0,0c0,3.4,2.5,6.3,5.5,6.3h17.4
			c0.3,0,0.5-0.2,0.5-0.5s-0.2-0.5-0.5-0.5H5.5c-2.3,0-4.3-2.1-4.5-4.8L22.4,33.7L22.4,33.7z M27,1.7l5.8,6H27V1.7z"/>
	</g>
	<g id="Path_87">
		<path class="st0" d="M31.9,27.4V13c0-0.3-0.2-0.5-0.5-0.5c0,0,0,0,0,0H8.7c-0.3,0-0.5,0.2-0.5,0.5c0,0,0,0,0,0v14.3
			c0,0.3,0.2,0.5,0.4,0.5c0,0,0,0,0,0h22.8C31.7,27.9,31.9,27.7,31.9,27.4C31.9,27.4,31.9,27.4,31.9,27.4z M30.9,15.4H15.8v-1.9
			h15.1V15.4z M12.6,15.4v-1.9h2.2v1.9H12.6z M14.9,16.4v10.5h-2.2V16.4H14.9z M9.2,13.5h2.5v1.9H9.2V13.5z M9.2,16.4h2.5v10.5H9.2
			V16.4z M15.8,26.9V16.4h15.1v10.5H15.8z"/>
	</g>
	<g id="Path_88">
		<path class="st0" d="M23.3,29.8c0-0.3-0.2-0.5-0.4-0.5c0,0,0,0,0,0h-1.7c-0.3,0-0.5,0.2-0.5,0.5s0.2,0.5,0.5,0.5c0,0,0,0,0,0h1.7
			C23.1,30.3,23.3,30.1,23.3,29.8C23.3,29.8,23.3,29.8,23.3,29.8C23.3,29.8,23.3,29.8,23.3,29.8z"/>
	</g>
	<g id="Path_89">
		<path class="st0" d="M19.2,29.8c0,0.2,0.2,0.4,0.4,0.4S20,30,20,29.8c0-0.2-0.2-0.4-0.4-0.4l0,0C19.4,29.4,19.2,29.6,19.2,29.8
			L19.2,29.8z"/>
	</g>
	<g id="Path_90">
		<path class="st0" d="M8.3,5.9h5.3c0.3,0,0.5-0.2,0.5-0.5s-0.2-0.5-0.5-0.5H8.3C8,4.9,7.8,5.1,7.8,5.4S8,5.9,8.3,5.9L8.3,5.9z"/>
	</g>
	<g id="Path_91">
		<path class="st0" d="M8.3,7.6h7.1c0.3,0,0.5-0.2,0.5-0.5c0-0.3-0.2-0.5-0.5-0.5H8.3C8,6.7,7.8,6.9,7.8,7.1C7.8,7.4,8,7.6,8.3,7.6
			L8.3,7.6z"/>
	</g>
	<g id="Path_92">
		<path class="st0" d="M17.4,7.1c0-0.2-0.2-0.4-0.4-0.4c-0.2,0-0.4,0.2-0.4,0.4c0,0.2,0.2,0.4,0.4,0.4l0,0
			C17.2,7.6,17.4,7.4,17.4,7.1L17.4,7.1z"/>
	</g>
	<g id="Path_94">
		<path class="st0" d="M36.7,31.2c-1.9-1-3.9-1.7-5.9-2.3c-0.1,0-0.2,0-0.3,0c-2.1,0.5-4.1,1.3-5.9,2.3c-0.2,0.1-0.2,0.3-0.2,0.5
			c0,0.5,0.1,0.9,0.1,1.4c0.4,3.9,0.8,8.8,6.1,9.1h0.1c5.4-0.3,5.8-4.8,6.1-8.7c0-0.6,0.1-1.2,0.2-1.8C37,31.4,36.9,31.3,36.7,31.2z
			 M35.8,33.3c-0.3,3.9-0.6,7.5-5.1,7.8c-4.4-0.3-4.8-4.3-5.1-8.2c0-0.4-0.1-0.7-0.1-1.1c1.7-0.8,3.5-1.5,5.3-2
			c1.8,0.5,3.6,1.1,5.3,2C35.9,32.3,35.8,32.8,35.8,33.3L35.8,33.3z"/>
	</g>
	<g id="Line_1">
		<path class="st0" d="M32.8,36.6h-4.2c-0.6,0-1-0.4-1-1s0.4-1,1-1h4.2c0.6,0,1,0.4,1,1S33.4,36.6,32.8,36.6z"/>
	</g>
</g>
</svg>
