<svg xmlns="http://www.w3.org/2000/svg" width="20.013" height="20" viewBox="0 0 20.013 20">
  <g id="print" transform="translate(0 -0.163)">
    <g id="Group_25635" data-name="Group 25635" transform="translate(0 0.163)">
      <path id="Path_58059" data-name="Path 58059" d="M111.2,3.208h-1.9a.57.57,0,0,1-.4-.973l1.9-1.9a.57.57,0,0,1,.973.4v1.9A.57.57,0,0,1,111.2,3.208Z" transform="translate(-104.475 -0.163)" fill="#858585"/>
      <path id="Path_58060" data-name="Path 58060" d="M228.653,6.642a.57.57,0,0,1-.57-.57V1.3h-5.369a.57.57,0,0,1,0-1.14h5.449a1.062,1.062,0,0,1,1.061,1.061V6.072A.57.57,0,0,1,228.653,6.642Z" transform="translate(-213.46 -0.163)" fill="#858585"/>
      <path id="Path_58061" data-name="Path 58061" d="M109.3,6.642a.57.57,0,0,1-.57-.57V2.637a.57.57,0,0,1,.167-.4l1.9-1.9a.57.57,0,0,1,.806.806l-1.737,1.737v3.2A.57.57,0,0,1,109.3,6.642Z" transform="translate(-104.476 -0.163)" fill="#858585"/>
      <path id="Path_58062" data-name="Path 58062" d="M119.669,342.234H109.3a.57.57,0,0,1-.57-.57v-5.759a.57.57,0,0,1,.57-.57h10.373a.57.57,0,1,1,0,1.14h-9.8v4.618h9.8a.57.57,0,0,1,0,1.14Z" transform="translate(-104.476 -322.234)" fill="#858585"/>
      <path id="Path_58063" data-name="Path 58063" d="M18.211,155.779H15.193a.57.57,0,0,1-.57-.57v-1.687H5.39v1.687a.57.57,0,0,1-.57.57H1.8a1.8,1.8,0,0,1-1.8-1.8v-7.236a1.8,1.8,0,0,1,1.8-1.8H18.211a1.8,1.8,0,0,1,1.8,1.8v7.236A1.8,1.8,0,0,1,18.211,155.779Zm-2.448-1.14h2.448a.662.662,0,0,0,.662-.662v-7.236a.662.662,0,0,0-.662-.662H1.8a.662.662,0,0,0-.662.662v7.236a.662.662,0,0,0,.662.662H4.25v-1.687a.57.57,0,0,1,.57-.57H15.193a.57.57,0,0,1,.57.57v1.687Z" transform="translate(0 -139.28)" fill="#858585"/>
    </g>
    <path id="Path_58064" data-name="Path 58064" d="M14.587,283.6v3.618a1.232,1.232,0,0,0,1.232,1.232h3.018V286.19H29.209v2.257h3.018a1.232,1.232,0,0,0,1.232-1.232V283.6Z" transform="translate(-14.017 -272.357)" fill="#ededed"/>
    <path id="Path_58065" data-name="Path 58065" d="M18.211,275H15.193a.57.57,0,0,1-.57-.57v-1.687H5.39v1.687a.57.57,0,0,1-.57.57H1.8A1.8,1.8,0,0,1,0,273.2v-3.618a.57.57,0,0,1,.57-.57H19.442a.57.57,0,0,1,.57.57V273.2A1.8,1.8,0,0,1,18.211,275Zm-2.448-1.14h2.448a.662.662,0,0,0,.662-.662v-3.048H1.14V273.2a.662.662,0,0,0,.662.662H4.25v-1.687a.57.57,0,0,1,.57-.57H15.193a.57.57,0,0,1,.57.57Z" transform="translate(0 -258.34)" fill="#858585"/>
  </g>
</svg>
