<svg xmlns="http://www.w3.org/2000/svg" width="15.36" height="15.36" viewBox="0 0 15.36 15.36">
  <path id="print" d="M13.44,5.76V2.317a.961.961,0,0,0-.281-.679L11.8.281A.96.96,0,0,0,11.122,0H2.88a.96.96,0,0,0-.96.96v4.8A1.92,1.92,0,0,0,0,7.68v3.36a.48.48,0,0,0,.48.48H1.92V14.4a.96.96,0,0,0,.96.96h9.6a.96.96,0,0,0,.96-.96V11.52h1.44a.48.48,0,0,0,.48-.48V7.68A1.92,1.92,0,0,0,13.44,5.76Zm-1.92,7.68H3.84V10.56h7.68Zm0-6.72H3.84V1.92H9.6V3.36a.48.48,0,0,0,.48.48h1.44Zm1.44,2.16a.72.72,0,1,1,.72-.72A.72.72,0,0,1,12.96,8.88Z" fill="#ed1c24"/>
</svg>
