<svg xmlns="http://www.w3.org/2000/svg" width="18.711" height="19.369" viewBox="0 0 18.711 19.369">
  <g id="promo" transform="translate(-563.155 -240.439)">
    <path id="Path_5243" data-name="Path 5243" d="M723.123,426.091c0,.951,0,1.9,0,2.854a.368.368,0,0,1-.3.4c-1.625.512-3.248,1.03-4.874,1.541a.478.478,0,0,1-.27,0q-2.419-.761-4.836-1.531c-.281-.089-.322-.145-.323-.438q0-2.854-.006-5.707a.316.316,0,0,1,.24-.34c1.619-.509,3.237-1.021,4.859-1.522a.749.749,0,0,1,.418,0c1.615.5,3.227,1.011,4.84,1.518a.324.324,0,0,1,.249.353c0,.958,0,1.916,0,2.873Zm-5.594,4.158c0-.08.01-.138.01-.2,0-1.644,0-3.288,0-4.932,0-.151-.058-.2-.187-.241q-1.988-.624-3.973-1.257c-.1-.03-.194-.054-.29-.081a.285.285,0,0,0-.01.041q0,2.565-.005,5.13c0,.12.052.152.153.184q1.993.626,3.984,1.26C717.313,430.188,717.413,430.215,717.528,430.249Zm5.042-6.71c-.045.012-.07.018-.094.026-1.411.446-2.822.9-4.235,1.335-.151.047-.127.14-.127.241q0,2.446,0,4.892v.2a.855.855,0,0,0,.135-.017c1.4-.442,2.794-.888,4.192-1.326.117-.037.132-.1.132-.2,0-.806,0-1.611,0-2.417Zm-.665-.386c-.074-.031-.1-.046-.133-.056q-1.906-.605-3.814-1.206a.475.475,0,0,0-.267,0q-1.881.587-3.758,1.185c-.051.016-.1.039-.184.071,1.352.427,2.662.842,3.974,1.254a.331.331,0,0,0,.186.006C719.228,424,720.546,423.583,721.905,423.154Z" transform="translate(-141.361 -171.2)" fill="#797884" stroke="#797884" stroke-width="0.2"/>
    <path id="Path_5244" data-name="Path 5244" d="M563.256,245.3c0-.958,0-1.916,0-2.873a.306.306,0,0,1,.245-.331c1.613-.507,3.224-1.022,4.838-1.525a.784.784,0,0,1,.439,0c1.614.5,3.225,1.018,4.837,1.526a.311.311,0,0,1,.244.334q0,2.844-.006,5.687c0,.322-.033.369-.34.466q-2.427.771-4.855,1.537a.368.368,0,0,1-.208,0c-1.638-.516-3.274-1.038-4.912-1.553a.356.356,0,0,1-.281-.392c.005-.958,0-1.916,0-2.873Zm.566-2.542v5.319l4.436,1.4c.005-.056.01-.082.01-.108q0-2.527,0-5.054c0-.125-.047-.167-.159-.2-1-.311-2-.63-3-.946Zm9.469.011c-.062.017-.112.028-.161.043-1.367.432-2.733.868-4.1,1.293a.225.225,0,0,0-.188.263c.005,1.631,0,3.261,0,4.892,0,.068.006.137.01.21a.7.7,0,0,0,.081-.013q2.115-.668,4.23-1.334c.123-.038.14-.105.14-.216q0-2.485,0-4.971C573.3,242.889,573.3,242.838,573.291,242.772Zm-8.808-.408c.072.03.106.048.143.059,1.255.4,2.51.8,3.767,1.187a.611.611,0,0,0,.342,0c1.227-.38,2.451-.769,3.676-1.157.064-.02.125-.05.222-.089-1.355-.428-2.671-.845-3.988-1.258a.3.3,0,0,0-.17,0C567.157,241.519,565.841,241.935,564.483,242.364Z" transform="translate(0 0)" fill="#797884" stroke="#797884" stroke-width="0.2"/>
    <path id="Path_5245" data-name="Path 5245" d="M785.854,262.775c0,.185.006.331,0,.475-.011.2-.13.319-.289.312s-.259-.133-.259-.334a8.457,8.457,0,0,0-.959-3.984,8.591,8.591,0,0,0-5.238-4.352c-.069-.022-.166-.031-.2-.08-.057-.091-.125-.225-.1-.307a.355.355,0,0,1,.268-.169,1.013,1.013,0,0,1,.381.094,9.13,9.13,0,0,1,6.266,7.283C785.8,262.074,785.817,262.446,785.854,262.775Z" transform="translate(-204.137 -13.062)" fill="#797884" stroke="#797884" stroke-width="0.2"/>
    <path id="Path_5246" data-name="Path 5246" d="M564.119,416.98c0-.118,0-.23,0-.342,0-.214.1-.342.272-.345s.276.123.279.336a8.4,8.4,0,0,0,.731,3.4,8.558,8.558,0,0,0,5.082,4.685c.283.1.377.211.321.387-.062.192-.214.238-.5.131a9.088,9.088,0,0,1-6.065-7.2C564.173,417.689,564.158,417.33,564.119,416.98Z" transform="translate(-0.818 -166.443)" fill="#797884" stroke="#797884" stroke-width="0.2"/>
  </g>
</svg>
