<svg xmlns="http://www.w3.org/2000/svg" width="28" height="28" viewBox="0 0 28 28">
  <g id="promotions_loyal" transform="translate(7632 10825)">
    <rect id="Rectangle_3137" data-name="Rectangle 3137" width="28" height="28" transform="translate(-7632 -10825)" fill="none"/>
    <g id="promotions_loyal-2" data-name="promotions_loyal" transform="translate(-8130.268 -11038.959)">
      <path id="Path_5239" data-name="Path 5239" d="M512.039,238.786a2.609,2.609,0,0,1-1.456-.83c-.322-.325-.67-.626-1-.947a.825.825,0,0,0-.763-.233q-.838.132-1.681.236a1.976,1.976,0,0,1-2.344-1.741c-.088-.524-.187-1.046-.275-1.57a.791.791,0,0,0-.464-.612c-.511-.254-1.017-.518-1.521-.785a1.907,1.907,0,0,1-.887-2.66c.246-.505.5-1.009.756-1.508a.786.786,0,0,0,0-.78c-.256-.492-.5-.99-.748-1.488a1.913,1.913,0,0,1,.9-2.688c.492-.258.982-.521,1.482-.764a.832.832,0,0,0,.488-.667c.089-.553.183-1.105.3-1.654a1.974,1.974,0,0,1,2.385-1.6c.559.086,1.12.159,1.68.238a.757.757,0,0,0,.663-.218q.63-.6,1.269-1.2a2,2,0,0,1,2.864,0c.415.387.831.773,1.237,1.17a.845.845,0,0,0,.783.236c.559-.089,1.119-.172,1.681-.235a1.967,1.967,0,0,1,2.32,1.695c.1.523.193,1.045.276,1.57a.829.829,0,0,0,.487.667c.493.241.975.5,1.462.755a1.917,1.917,0,0,1,.906,2.736c-.235.471-.462.946-.71,1.41a.839.839,0,0,0,0,.858c.258.484.5.977.737,1.469a1.905,1.905,0,0,1-.884,2.66c-.5.264-.995.528-1.5.774a.845.845,0,0,0-.5.685c-.086.546-.181,1.091-.294,1.633A1.973,1.973,0,0,1,517.311,237c-.559-.085-1.121-.158-1.681-.238a.755.755,0,0,0-.664.212c-.341.327-.7.641-1.029.976a2.611,2.611,0,0,1-1.456.83Zm5.63-3.021a.659.659,0,0,0,.728-.535c.1-.493.2-.986.264-1.484a2.216,2.216,0,0,1,1.392-1.893c.447-.2.874-.443,1.308-.67a.658.658,0,0,0,.332-.988c-.249-.5-.5-1.008-.756-1.508a1.933,1.933,0,0,1,0-1.88c.252-.487.492-.979.736-1.469a.672.672,0,0,0-.351-1.046c-.506-.263-1.013-.523-1.519-.787a1.918,1.918,0,0,1-1.067-1.4c-.112-.6-.216-1.2-.332-1.8a.664.664,0,0,0-.811-.57c-.56.076-1.121.151-1.68.239a2.109,2.109,0,0,1-1.913-.6c-.389-.382-.791-.751-1.188-1.125a.7.7,0,0,0-1.112.007q-.619.584-1.238,1.169a1.969,1.969,0,0,1-1.668.563c-.612-.079-1.223-.164-1.835-.251a.673.673,0,0,0-.847.576c-.092.472-.2.944-.253,1.421a2.222,2.222,0,0,1-1.4,1.91c-.441.2-.86.437-1.288.66a.661.661,0,0,0-.338,1c.25.5.5,1.008.756,1.508a1.929,1.929,0,0,1,0,1.861c-.253.494-.5.992-.746,1.489a.667.667,0,0,0,.345,1.031c.5.26,1,.522,1.5.776a2,2,0,0,1,1.126,1.55c.088.546.19,1.089.3,1.632a.677.677,0,0,0,.871.595c.56-.083,1.121-.156,1.681-.237a2.113,2.113,0,0,1,1.866.612c.386.375.781.741,1.173,1.11a.7.7,0,0,0,1.112.007c.386-.364.781-.721,1.156-1.1a2.151,2.151,0,0,1,2.01-.616C516.55,235.627,517.128,235.69,517.67,235.765Z" transform="translate(0.01 0.01)" fill="#353c40"/>
      <path id="Path_5239_-_Outline" data-name="Path 5239 - Outline" d="M512.5,238.955l-.481,0a2.726,2.726,0,0,1-1.548-.877c-.173-.175-.358-.346-.537-.512-.151-.14-.308-.285-.458-.433a.656.656,0,0,0-.617-.187c-.577.091-1.144.171-1.686.236a2.977,2.977,0,0,1-.358.022,2.1,2.1,0,0,1-2.17-1.9c-.045-.267-.093-.539-.14-.8s-.091-.512-.135-.768a.627.627,0,0,0-.374-.494c-.549-.273-1.078-.551-1.523-.787a2.073,2.073,0,0,1-.957-2.872c.286-.586.526-1.066.758-1.511a.629.629,0,0,0,0-.633c-.268-.516-.527-1.04-.749-1.491a2.063,2.063,0,0,1,.972-2.9l.3-.155c.388-.2.788-.415,1.19-.611a.667.667,0,0,0,.4-.546c.085-.525.18-1.089.3-1.66a2.1,2.1,0,0,1,2.139-1.767,2.866,2.866,0,0,1,.434.034c.383.059.775.113,1.153.165l.524.073a.59.59,0,0,0,.522-.173c.414-.4.841-.8,1.27-1.2a2.171,2.171,0,0,1,3.092,0l.057.054c.39.363.793.739,1.181,1.119a.676.676,0,0,0,.637.191c.461-.073,1.069-.167,1.688-.236a3.033,3.033,0,0,1,.338-.019,2.1,2.1,0,0,1,2.164,1.846c.1.53.194,1.05.276,1.574a.664.664,0,0,0,.4.546c.361.177.723.367,1.072.551l.393.206a2.084,2.084,0,0,1,.977,2.95q-.093.187-.185.374c-.169.342-.343.7-.527,1.04a.68.68,0,0,0,0,.707c.247.464.481.944.707,1.408l.032.066a2.074,2.074,0,0,1-.954,2.872l-.018.01c-.484.257-.984.522-1.487.767a.681.681,0,0,0-.405.564c-.1.611-.193,1.148-.3,1.64a2.107,2.107,0,0,1-2.139,1.772,2.873,2.873,0,0,1-.429-.033c-.362-.055-.731-.106-1.088-.155l-.591-.082a.588.588,0,0,0-.523.167c-.133.127-.269.254-.4.377-.208.193-.423.393-.625.6a2.729,2.729,0,0,1-1.548.877Zm-.441-.326h.414a2.426,2.426,0,0,0,1.349-.78c.207-.208.424-.41.634-.606.131-.122.267-.248.4-.373a.925.925,0,0,1,.805-.257l.589.082c.358.049.728.1,1.092.156a2.53,2.53,0,0,0,.378.029,1.77,1.77,0,0,0,1.813-1.511c.1-.487.2-1.018.292-1.625a1,1,0,0,1,.586-.806c.5-.242.995-.506,1.476-.762l.018-.01a1.747,1.747,0,0,0,.812-2.446l-.032-.066c-.225-.461-.457-.938-.7-1.4a1,1,0,0,1,0-1.009c.181-.339.355-.69.522-1.03l.185-.375a1.762,1.762,0,0,0-.834-2.52l-.394-.207c-.347-.183-.706-.371-1.063-.546a.994.994,0,0,1-.577-.788c-.082-.52-.177-1.037-.275-1.566a1.768,1.768,0,0,0-1.836-1.579,2.7,2.7,0,0,0-.3.017c-.612.069-1.215.161-1.672.234a1.008,1.008,0,0,1-.927-.282c-.385-.377-.787-.751-1.176-1.113l-.057-.054a1.833,1.833,0,0,0-2.632,0c-.428.4-.854.8-1.267,1.2a.927.927,0,0,1-.8.263l-.523-.073c-.38-.052-.773-.107-1.159-.166a2.525,2.525,0,0,0-.382-.03,1.767,1.767,0,0,0-1.812,1.506c-.118.565-.212,1.125-.3,1.646a1,1,0,0,1-.578.787c-.4.194-.8.4-1.181.607l-.3.156a1.759,1.759,0,0,0-.83,2.473c.221.449.479.972.745,1.484a.944.944,0,0,1,0,.928c-.23.442-.47.92-.754,1.5a1.747,1.747,0,0,0,.815,2.446c.443.235.97.511,1.516.783a.949.949,0,0,1,.552.731c.043.255.089.51.134.765s.1.536.141.805a1.79,1.79,0,0,0,1.841,1.625,2.635,2.635,0,0,0,.316-.02c.538-.065,1.1-.144,1.674-.235a.987.987,0,0,1,.907.279c.147.144.3.288.451.427.181.168.369.342.547.522A2.423,2.423,0,0,0,512.063,238.63Zm.208-.946a1,1,0,0,1-.677-.325l-.33-.311c-.278-.261-.565-.53-.844-.8a1.937,1.937,0,0,0-1.723-.566l-.729.1c-.312.043-.634.088-.95.135a1.452,1.452,0,0,1-.212.016.809.809,0,0,1-.848-.742c-.1-.517-.205-1.072-.3-1.637a1.833,1.833,0,0,0-1.038-1.431c-.408-.207-.82-.422-1.219-.63l-.282-.147a.825.825,0,0,1-.416-1.246l.169-.339c.188-.378.382-.769.578-1.151a1.768,1.768,0,0,0,0-1.714c-.233-.453-.462-.917-.685-1.365l-.072-.145a.815.815,0,0,1,.409-1.216c.119-.062.237-.126.356-.189.3-.163.618-.332.941-.475a2.069,2.069,0,0,0,1.305-1.779c.042-.376.118-.751.191-1.114.021-.106.043-.212.063-.318A.841.841,0,0,1,507,219.59c.578.082,1.2.169,1.831.25a2.017,2.017,0,0,0,.256.017,1.8,1.8,0,0,0,1.273-.535l.685-.647.552-.521a1,1,0,0,1,.676-.325.98.98,0,0,1,.667.318l.337.316c.282.264.573.536.854.812a1.935,1.935,0,0,0,1.767.551c.494-.077,1-.146,1.482-.212l.2-.027a1.2,1.2,0,0,1,.161-.011.815.815,0,0,1,.836.713c.067.349.132.7.194,1.048q.068.377.138.753a1.746,1.746,0,0,0,.981,1.283l.9.466.619.32a.828.828,0,0,1,.422,1.26l-.187.376c-.178.36-.362.732-.55,1.1a1.774,1.774,0,0,0,0,1.732c.239.461.472.934.7,1.391l.059.119a.813.813,0,0,1-.4,1.2l-.353.188c-.311.167-.633.34-.964.487a2.063,2.063,0,0,0-1.295,1.763c-.049.411-.131.821-.211,1.219q-.028.139-.055.277a.826.826,0,0,1-.9.667l-.018,0-.5-.066c-.39-.05-.792-.1-1.193-.171a1.978,1.978,0,0,0-1.86.57c-.267.267-.547.527-.818.779l-.342.319A.979.979,0,0,1,512.272,237.683Zm-3.242-2.352a2.276,2.276,0,0,1,1.627.685c.276.268.563.537.839.8l.331.311a.69.69,0,0,0,.445.233.671.671,0,0,0,.435-.226l.343-.321c.269-.25.546-.509.809-.771a2.282,2.282,0,0,1,1.661-.707,2.928,2.928,0,0,1,.5.044c.393.068.792.119,1.178.169l.5.065a.49.49,0,0,0,.55-.4q.027-.139.055-.278c.078-.391.159-.8.207-1.194a2.368,2.368,0,0,1,1.488-2.022c.319-.142.635-.312.941-.476.119-.064.237-.127.356-.19a.5.5,0,0,0,.261-.773l-.059-.119c-.225-.456-.458-.927-.7-1.386a2.1,2.1,0,0,1,0-2.026c.187-.361.37-.732.547-1.09l.187-.377c.2-.407.132-.617-.279-.83l-.618-.32-.9-.467a2.08,2.08,0,0,1-1.151-1.512q-.07-.377-.138-.755c-.062-.343-.126-.7-.193-1.045a.49.49,0,0,0-.508-.447.858.858,0,0,0-.115.008l-.2.027c-.484.066-.985.134-1.475.211a2.284,2.284,0,0,1-2.056-.643c-.277-.273-.567-.544-.848-.806l-.338-.317a.672.672,0,0,0-.435-.227.689.689,0,0,0-.445.233l-.551.521-.686.648a2.14,2.14,0,0,1-1.8.607c-.633-.081-1.256-.169-1.836-.251a1,1,0,0,0-.139-.01.487.487,0,0,0-.519.455c-.021.107-.042.214-.064.321-.072.356-.146.725-.187,1.087a2.373,2.373,0,0,1-1.5,2.04c-.311.138-.62.3-.919.464-.12.064-.239.128-.359.191a.507.507,0,0,0-.266.787l.072.145c.222.447.451.91.683,1.361a2.094,2.094,0,0,1,0,2.006c-.195.381-.388.77-.576,1.147l-.169.339c-.2.4-.125.609.273.816l.282.147c.4.207.809.422,1.216.628a2.166,2.166,0,0,1,1.214,1.669c.09.56.195,1.113.294,1.627.064.33.224.477.52.477a1.11,1.11,0,0,0,.161-.013c.318-.047.641-.092.953-.135l.727-.1A2.676,2.676,0,0,1,509.029,235.331Z" transform="translate(0 0)" fill="#fff"/>
      <path id="Path_5240" data-name="Path 5240" d="M617.332,332.2c-.056.125-.106.254-.171.375a.754.754,0,0,1-.142.156q-4.024,4.025-8.048,8.05a.737.737,0,0,1-.546.28.621.621,0,0,1-.5-.991,1.48,1.48,0,0,1,.157-.172q4.024-4.025,8.048-8.05a.747.747,0,0,1,.546-.281A.675.675,0,0,1,617.332,332.2Z" transform="translate(-100.281 -108.559)" fill="#353c40"/>
      <path id="Path_5240_-_Outline" data-name="Path 5240 - Outline" d="M616.683,331.418h.01a.839.839,0,0,1,.809.778l0,.042-.017.039-.046.107c-.039.092-.08.187-.13.279a.632.632,0,0,1-.135.16l-.035.033L614.7,335.3l-5.607,5.609a.9.9,0,0,1-.644.327h-.018a.753.753,0,0,1-.686-.421.745.745,0,0,1,.065-.824,1.426,1.426,0,0,1,.156-.173l2.767-2.768,5.3-5.3A.908.908,0,0,1,616.683,331.418Zm.495.769a.509.509,0,0,0-.489-.449h-.006a.6.6,0,0,0-.425.234l-5.3,5.3-2.768,2.768a1.17,1.17,0,0,0-.122.134.432.432,0,0,0-.04.489.438.438,0,0,0,.41.249h.011a.6.6,0,0,0,.418-.233l5.607-5.609,2.441-2.441.042-.04a.4.4,0,0,0,.072-.078c.043-.079.079-.164.117-.253Z" transform="translate(-100.291 -108.569)" fill="#fff"/>
      <path id="Path_5241" data-name="Path 5241" d="M609.385,319.552a2.291,2.291,0,1,1,2.3-2.273A2.285,2.285,0,0,1,609.385,319.552Zm.018-3.323a1.038,1.038,0,0,0-1.049,1.022,1.04,1.04,0,1,0,2.08.016A1.035,1.035,0,0,0,609.4,316.229Z" transform="translate(-99.761 -92.918)" fill="#353c40"/>
      <path id="Path_5241_-_Outline" data-name="Path 5241 - Outline" d="M609.408,319.722h-.013a2.451,2.451,0,0,1,.008-4.9h.026a2.45,2.45,0,0,1-.02,4.9Zm-.006-4.581a2.131,2.131,0,0,0-.006,4.261h.012a2.131,2.131,0,0,0,.017-4.261Zm.006,3.336a1.209,1.209,0,0,1-.859-.367,1.192,1.192,0,0,1,.857-2.03h.008a1.2,1.2,0,0,1-.006,2.4Zm0-2.077a.879.879,0,0,0,0,1.757.9.9,0,0,0,.879-.88.877.877,0,0,0-.872-.877Z" transform="translate(-99.773 -92.93)" fill="#fff"/>
      <path id="Path_5242" data-name="Path 5242" d="M703.675,440.845a2.29,2.29,0,1,1-2.295,2.276A2.282,2.282,0,0,1,703.675,440.845Zm-.014,3.321a1.036,1.036,0,0,0,1.049-1.021,1.04,1.04,0,1,0-2.08-.017A1.034,1.034,0,0,0,703.661,444.166Z" transform="translate(-188.763 -211.964)" fill="#353c40"/>
      <path id="Path_5242_-_Outline" data-name="Path 5242 - Outline" d="M703.679,440.695h.006a2.445,2.445,0,0,1,1.722,4.178,2.424,2.424,0,0,1-1.726.722h-.02a2.45,2.45,0,0,1,.017-4.9Zm0,4.58a2.14,2.14,0,0,0,2.125-2.132,2.133,2.133,0,0,0-2.123-2.128h-.006a2.13,2.13,0,0,0-.015,4.26Zm-.005-3.335a1.21,1.21,0,0,1,.86.367,1.192,1.192,0,0,1-.859,2.029h-.008a1.2,1.2,0,0,1,.007-2.4Zm0,2.076a.879.879,0,0,0,.882-.865.868.868,0,0,0-.252-.62.875.875,0,0,0-1.508.608.877.877,0,0,0,.872.877Z" transform="translate(-188.771 -211.973)" fill="#fff"/>
    </g>
  </g>
</svg>
