<svg id="qr_new" xmlns="http://www.w3.org/2000/svg" width="20.76" height="20.76" viewBox="0 0 20.76 20.76">
  <g id="Group_25552" data-name="Group 25552" transform="translate(2.076 2.076)">
    <g id="Group_25551" data-name="Group 25551">
      <rect id="Rectangle_3059" data-name="Rectangle 3059" width="2.076" height="2.076" fill="#353c40"/>
    </g>
  </g>
  <g id="Group_25554" data-name="Group 25554" transform="translate(13.494)">
    <g id="Group_25553" data-name="Group 25553">
      <path id="Path_58025" data-name="Path 58025" d="M333.838,0V1.038H332.8V2.076h1.038V6.228h1.038V7.266h-1.038V8.3h2.076V6.228h3.114V7.266h1.038V0Zm5.19,5.19h-4.152V1.038h4.152Z" transform="translate(-332.8)" fill="#353c40"/>
    </g>
  </g>
  <g id="Group_25556" data-name="Group 25556" transform="translate(16.608 2.076)">
    <g id="Group_25555" data-name="Group 25555">
      <rect id="Rectangle_3060" data-name="Rectangle 3060" width="2.076" height="2.076" fill="#353c40"/>
    </g>
  </g>
  <g id="Group_25558" data-name="Group 25558" transform="translate(2.076 16.608)">
    <g id="Group_25557" data-name="Group 25557">
      <rect id="Rectangle_3061" data-name="Rectangle 3061" width="2.076" height="2.076" fill="#353c40"/>
    </g>
  </g>
  <g id="Group_25560" data-name="Group 25560" transform="translate(14.532 14.532)">
    <g id="Group_25559" data-name="Group 25559">
      <rect id="Rectangle_3062" data-name="Rectangle 3062" width="1.038" height="1.038" fill="#353c40"/>
    </g>
  </g>
  <g id="Group_25562" data-name="Group 25562" transform="translate(9.342 19.722)">
    <g id="Group_25561" data-name="Group 25561">
      <rect id="Rectangle_3063" data-name="Rectangle 3063" width="1.038" height="1.038" fill="#353c40"/>
    </g>
  </g>
  <g id="Group_25564" data-name="Group 25564" transform="translate(10.38 15.57)">
    <g id="Group_25563" data-name="Group 25563">
      <rect id="Rectangle_3064" data-name="Rectangle 3064" width="1.038" height="1.038" fill="#353c40"/>
    </g>
  </g>
  <g id="Group_25566" data-name="Group 25566" transform="translate(10.38 17.646)">
    <g id="Group_25565" data-name="Group 25565">
      <rect id="Rectangle_3065" data-name="Rectangle 3065" width="1.038" height="1.038" fill="#353c40"/>
    </g>
  </g>
  <g id="Group_25568" data-name="Group 25568" transform="translate(19.722 12.456)">
    <g id="Group_25567" data-name="Group 25567">
      <rect id="Rectangle_3066" data-name="Rectangle 3066" width="1.038" height="1.038" fill="#353c40"/>
    </g>
  </g>
  <g id="Group_25570" data-name="Group 25570" transform="translate(0 12.456)">
    <g id="Group_25569" data-name="Group 25569">
      <rect id="Rectangle_3067" data-name="Rectangle 3067" width="1.038" height="1.038" fill="#353c40"/>
    </g>
  </g>
  <g id="Group_25572" data-name="Group 25572" transform="translate(0 7.266)">
    <g id="Group_25571" data-name="Group 25571">
      <rect id="Rectangle_3068" data-name="Rectangle 3068" width="1.038" height="1.038" fill="#353c40"/>
    </g>
  </g>
  <g id="Group_25574" data-name="Group 25574" transform="translate(9.342 1.038)">
    <g id="Group_25573" data-name="Group 25573">
      <path id="Path_58026" data-name="Path 58026" d="M232.476,25.6v1.038H230.4v1.038h3.114V25.6Z" transform="translate(-230.4 -25.6)" fill="#353c40"/>
    </g>
  </g>
  <g id="Group_25576" data-name="Group 25576" transform="translate(7.266 8.304)">
    <g id="Group_25575" data-name="Group 25575">
      <path id="Path_58027" data-name="Path 58027" d="M191.656,204.8v1.038H189.58v1.038h-3.114v-1.038h-1.038v1.038h-2.076v1.038h3.114v1.038h-3.114v-1.038h-1.038v1.038h-1.038v-1.038h-1.038v1.038H179.2v1.038h2.076v1.038h1.038V209.99h2.076v1.038h-1.038v1.038h1.038v2.076h1.038v1.038h1.038v-1.038h3.114v-2.076h1.038v-1.038H189.58v-2.076H187.5v-1.038h2.076v1.038h1.038v-1.038h1.038v-1.038h1.038V204.8Zm-3.114,5.19V213.1h-3.114V209.99Z" transform="translate(-179.2 -204.8)" fill="#353c40"/>
    </g>
  </g>
  <g id="Group_25578" data-name="Group 25578" transform="translate(11.418 6.228)">
    <g id="Group_25577" data-name="Group 25577">
      <path id="Path_58028" data-name="Path 58028" d="M283.676,153.6h-1.038v1.038H281.6v2.076h1.038v-1.038h1.038v-1.038h1.038V153.6Z" transform="translate(-281.6 -153.6)" fill="#353c40"/>
    </g>
  </g>
  <g id="Group_25580" data-name="Group 25580" transform="translate(11.418 19.722)">
    <g id="Group_25579" data-name="Group 25579">
      <rect id="Rectangle_3069" data-name="Rectangle 3069" width="2.076" height="1.038" fill="#353c40"/>
    </g>
  </g>
  <g id="Group_25582" data-name="Group 25582" transform="translate(8.304 1.038)">
    <g id="Group_25581" data-name="Group 25581">
      <rect id="Rectangle_3070" data-name="Rectangle 3070" width="1.038" height="1.038" fill="#353c40"/>
    </g>
  </g>
  <g id="Group_25584" data-name="Group 25584" transform="translate(16.608 8.304)">
    <g id="Group_25583" data-name="Group 25583">
      <rect id="Rectangle_3071" data-name="Rectangle 3071" width="1.038" height="1.038" fill="#353c40"/>
    </g>
  </g>
  <g id="Group_25586" data-name="Group 25586" transform="translate(17.646 7.266)">
    <g id="Group_25585" data-name="Group 25585">
      <rect id="Rectangle_3072" data-name="Rectangle 3072" width="1.038" height="1.038" fill="#353c40"/>
    </g>
  </g>
  <g id="Group_25588" data-name="Group 25588" transform="translate(4.152 12.456)">
    <g id="Group_25587" data-name="Group 25587">
      <rect id="Rectangle_3073" data-name="Rectangle 3073" width="1.038" height="1.038" fill="#353c40"/>
    </g>
  </g>
  <g id="Group_25590" data-name="Group 25590" transform="translate(0 13.494)">
    <g id="Group_25589" data-name="Group 25589">
      <path id="Path_58029" data-name="Path 58029" d="M6.228,339.028v-4.152H7.266V332.8H6.228v1.038H3.114V332.8H1.038v1.038H0v6.228H8.3v-1.038Zm-1.038,0H1.038v-4.152H5.19Z" transform="translate(0 -332.8)" fill="#353c40"/>
    </g>
  </g>
  <g id="Group_25592" data-name="Group 25592" transform="translate(6.228 6.228)">
    <g id="Group_25591" data-name="Group 25591">
      <rect id="Rectangle_3074" data-name="Rectangle 3074" width="1.038" height="1.038" fill="#353c40"/>
    </g>
  </g>
  <g id="Group_25594" data-name="Group 25594">
    <g id="Group_25593" data-name="Group 25593">
      <path id="Path_58030" data-name="Path 58030" d="M7.266,0H0V6.228H1.038V7.266H2.076V6.228H3.114V7.266H4.152V6.228H6.228V4.152H7.266V3.114H6.228V1.038H8.3V0ZM5.19,5.19H1.038V1.038H5.19Z" fill="#353c40"/>
    </g>
  </g>
  <g id="Group_25596" data-name="Group 25596" transform="translate(12.456 3.114)">
    <g id="Group_25595" data-name="Group 25595">
      <rect id="Rectangle_3075" data-name="Rectangle 3075" width="1.038" height="1.038" fill="#353c40"/>
    </g>
  </g>
  <g id="Group_25598" data-name="Group 25598" transform="translate(10.38)">
    <g id="Group_25597" data-name="Group 25597">
      <rect id="Rectangle_3076" data-name="Rectangle 3076" width="1.038" height="1.038" fill="#353c40"/>
    </g>
  </g>
  <g id="Group_25600" data-name="Group 25600" transform="translate(0 4.152)">
    <g id="Group_25599" data-name="Group 25599">
      <path id="Path_58031" data-name="Path 58031" d="M12.456,104.476v-1.038H11.418V102.4H10.38v1.038H8.3V102.4H7.266v2.076H8.3v2.076H5.19v-1.038H4.152v1.038H1.038v1.038H3.114v1.038H0v1.038H3.114V110.7H4.152v-1.038H5.19V110.7H6.228v-1.038H8.3v-1.038H7.266V107.59H9.342v1.038h2.076V107.59H10.38v-1.038H9.342v-2.076Zm-6.228,4.152H4.152V107.59H6.228Z" transform="translate(0 -102.4)" fill="#353c40"/>
    </g>
  </g>
  <g id="Group_25602" data-name="Group 25602" transform="translate(7.266 14.532)">
    <g id="Group_25601" data-name="Group 25601">
      <path id="Path_58032" data-name="Path 58032" d="M181.276,360.476V358.4h-1.038v1.038H179.2v1.038h1.038v1.038H179.2v1.038h2.076v-1.038h1.038v-1.038Z" transform="translate(-179.2 -358.4)" fill="#353c40"/>
    </g>
  </g>
  <g id="Group_25604" data-name="Group 25604" transform="translate(14.532 17.646)">
    <g id="Group_25603" data-name="Group 25603">
      <path id="Path_58033" data-name="Path 58033" d="M362.552,436.238V435.2h-1.038v1.038H358.4v1.038h2.076v1.038h1.038v-1.038h2.076v1.038h1.038v-2.076Z" transform="translate(-358.4 -435.2)" fill="#353c40"/>
    </g>
  </g>
  <g id="Group_25606" data-name="Group 25606" transform="translate(18.684 14.532)">
    <g id="Group_25605" data-name="Group 25605">
      <path id="Path_58034" data-name="Path 58034" d="M461.838,358.4v1.038H460.8v1.038h2.076V358.4Z" transform="translate(-460.8 -358.4)" fill="#353c40"/>
    </g>
  </g>
</svg>
