<svg id="R_logo" xmlns="http://www.w3.org/2000/svg" width="129.318" height="125.219" viewBox="0 0 129.318 125.219">
  <g id="Group_25421" data-name="Group 25421" transform="translate(0 0)">
    <path id="Polygon_1" data-name="Polygon 1" d="M27.664,3.55a2.372,2.372,0,0,0-2.052,1.188L3.864,42.6a2.375,2.375,0,0,0,0,2.357L25.612,82.827a2.372,2.372,0,0,0,2.052,1.188H71.1a2.372,2.372,0,0,0,2.052-1.188L94.9,44.961a2.375,2.375,0,0,0,0-2.357L73.157,4.738A2.372,2.372,0,0,0,71.1,3.55H27.664m0-3.55H71.1a5.917,5.917,0,0,1,5.131,2.97L97.983,40.836a5.917,5.917,0,0,1,0,5.893L76.235,84.6a5.917,5.917,0,0,1-5.131,2.97H27.664a5.917,5.917,0,0,1-5.131-2.97L.786,46.729a5.917,5.917,0,0,1,0-5.893L22.533,2.97A5.917,5.917,0,0,1,27.664,0Z" transform="translate(0 49.384) rotate(-30)" fill="#fff"/>
    <path id="Polygon_2" data-name="Polygon 2" d="M56.575,0A5,5,0,0,1,60.9,2.5L77.837,31.815a5,5,0,0,1,0,5L60.9,66.133a5,5,0,0,1-4.33,2.5H22.707a5,5,0,0,1-4.33-2.5L1.444,36.817a5,5,0,0,1,0-5L18.377,2.5A5,5,0,0,1,22.707,0Z" transform="translate(13.172 52.711) rotate(-30)" fill="#fff"/>
  </g>
  <path id="Subtraction_138" data-name="Subtraction 138" d="M26.386,36.405H18.031L7.232,22.967H6.84l0,0H0V17.585H6.84l0,0h3.619c4.727,0,7.329-2.03,7.329-5.717,0-3.569-2.582-5.616-7.087-5.616H6.84v9.657H0V0H10.9a20.211,20.211,0,0,1,5.829.784,12.292,12.292,0,0,1,4.346,2.264,9.729,9.729,0,0,1,2.714,3.611,12,12,0,0,1,.938,4.824,10.723,10.723,0,0,1-2.3,6.828,12.7,12.7,0,0,1-7.761,4.263L26.385,36.4Zm-19.547,0H0V24.644H6.84V36.4Z" transform="translate(55.537 45.025)" fill="#ed1c24" stroke="rgba(0,0,0,0)" stroke-miterlimit="10" stroke-width="1"/>
  <path id="Path_57956" data-name="Path 57956" d="M-23844.594-11968.894h-15.457v5.389h17.938l-.119-5.389Z" transform="translate(23904.266 12031.502)" fill="#ed1c24"/>
  <rect id="Rectangle_2871" data-name="Rectangle 2871" width="10.23" height="5.115" transform="translate(55.536 76.445)" fill="#ed1c24" stroke="rgba(0,0,0,0)" stroke-miterlimit="10" stroke-width="1"/>
</svg>
