<svg xmlns="http://www.w3.org/2000/svg" width="28" height="28" viewBox="0 0 28 28">
  <g id="reports_chart" transform="translate(7524 10825)">
    <rect id="Rectangle_3140" data-name="Rectangle 3140" width="28" height="28" transform="translate(-7524 -10825)" fill="none"/>
    <g id="reports_chart-2" data-name="reports_chart" transform="translate(-7523.7 -10822)">
      <path id="Path_57883" data-name="Path 57883" d="M21.641.242A2.169,2.169,0,0,0,20.722,0H5.779C5.538.1,5.3.048,5.054.145A2.5,2.5,0,0,0,3.7,2.273V20.359a2.338,2.338,0,0,0,1.354,2.176c.242.145.484.1.725.193H20.722a4.355,4.355,0,0,0,.774-.145,2.42,2.42,0,0,0,1.354-2.176V2.321A2.619,2.619,0,0,0,21.641.242Zm.1,19.972a1.438,1.438,0,0,1-1.6,1.547H6.263a1.451,1.451,0,0,1-1.6-1.6V2.466A1.512,1.512,0,0,1,6.311.967h13.83a1.4,1.4,0,0,1,1.6,1.547Z" transform="translate(0)" fill="#353c40" stroke="#fff" stroke-width="0.3"/>
      <path id="Path_57884" data-name="Path 57884" d="M16.522,39.2h6.19c.242.048.435.193.435.435a.471.471,0,0,1-.387.484H10.622c-.435,0-.677-.145-.629-.484,0-.29.193-.435.629-.435Z" transform="translate(-3.247 -20.244)" fill="#353c40"/>
      <path id="Path_57885" data-name="Path 57885" d="M32.7,15.648h.919a.447.447,0,0,1,.484.435.457.457,0,0,1-.484.484H31.784a.457.457,0,0,1-.484-.484.485.485,0,0,1,.484-.484,5.852,5.852,0,0,0,.919.048Z" transform="translate(-14.253 -8.056)" fill="#353c40"/>
      <path id="Path_57886" data-name="Path 57886" d="M32.651,21.577h.919a.434.434,0,0,1,.484.484.472.472,0,0,1-.532.484H31.732a.5.5,0,0,1-.532-.484.472.472,0,0,1,.532-.484A5.819,5.819,0,0,1,32.651,21.577Z" transform="translate(-14.202 -11.132)" fill="#353c40"/>
      <path id="Path_57887" data-name="Path 57887" d="M32.7,27.348h.919a.447.447,0,0,1,.484.435.457.457,0,0,1-.484.484H31.784a.457.457,0,0,1-.484-.484.485.485,0,0,1,.484-.484,5.853,5.853,0,0,0,.919.048Z" transform="translate(-14.253 -14.098)" fill="#353c40"/>
      <path id="Path_57888" data-name="Path 57888" d="M32.7,33.248h.919a.447.447,0,0,1,.484.435.457.457,0,0,1-.484.484H31.784a.457.457,0,0,1-.484-.484.518.518,0,0,1,.484-.484A5.852,5.852,0,0,0,32.7,33.248Z" transform="translate(-14.253 -17.145)" fill="#353c40"/>
      <path id="Path_57889" data-name="Path 57889" d="M14.439,15.7a4.739,4.739,0,0,0,0,9.478,4.739,4.739,0,0,0,0-9.478ZM11.3,22.518a3.788,3.788,0,0,1,2.418-5.8c.193-.048.29,0,.29.193V20a.78.78,0,0,1-.145.435l-2.176,2.176C11.489,22.76,11.489,22.76,11.3,22.518Zm3.578,1.644a.717.717,0,0,0-.339.048,4.016,4.016,0,0,1-2.224-.677c-.145-.1-.145-.193-.048-.29.822-.774,1.6-1.6,2.37-2.37a.8.8,0,0,0,.242-.629V16.957c0-.29,0-.29.29-.242a3.75,3.75,0,0,1,3,3.82A3.6,3.6,0,0,1,14.874,24.163Z" transform="translate(-3.099 -8.108)" fill="#353c40"/>
    </g>
  </g>
</svg>
