<svg xmlns="http://www.w3.org/2000/svg" width="18.649" height="18.161" viewBox="0 0 18.649 18.161">
  <g id="return_slip" transform="translate(-822 -192.551)">
    <path id="Path_5247" data-name="Path 5247" d="M822,193.514l.072-.181a1.158,1.158,0,0,1,1.01-.774,1.83,1.83,0,0,1,.2-.007h11.74a1.174,1.174,0,0,1,1.225.855,1.788,1.788,0,0,1,.053.467q.005,2.867,0,5.733v.186c.448.174.888.311,1.3.511A5.5,5.5,0,1,1,829.94,207a.2.2,0,0,0-.234-.157q-3.13,0-6.261,0a1.242,1.242,0,0,1-1.444-.986v-4.624c.138-.229.278-.3.468-.25.17.048.26.194.26.43q0,1.838,0,3.676c0,.188,0,.376,0,.564a.445.445,0,0,0,.462.459q3.222,0,6.443,0a.459.459,0,0,0,.067-.012,5.536,5.536,0,0,1,5.872-6.375v-.2q0-2.83,0-5.66c0-.425-.158-.586-.578-.586h-3.262v4.526c0,.055,0,.109,0,.164a.363.363,0,0,1-.586.317q-.925-.562-1.841-1.137a.246.246,0,0,0-.307,0c-.595.375-1.2.738-1.794,1.11a.417.417,0,0,1-.458.057.427.427,0,0,1-.189-.423q0-2.184,0-4.368v-.232c-.078,0-.143-.01-.207-.01h-3.039c-.437,0-.584.151-.584.6q0,2.057,0,4.113c0,.265-.14.434-.358.437a.436.436,0,0,1-.37-.251Zm13.138,6.93a4.771,4.771,0,1,0,4.776,4.766A4.777,4.777,0,0,0,835.138,200.444Zm-4.149-3.11v-4.041H827.3v4.042c.068-.039.12-.066.17-.1.475-.292.951-.581,1.423-.878a.43.43,0,0,1,.508-.006c.2.132.412.255.618.382Z" transform="translate(0 0)" fill="#797884"/>
    <path id="Path_5248" data-name="Path 5248" d="M822,332.227a1.2,1.2,0,0,1,.308-.246.324.324,0,0,1,.4.229.361.361,0,0,1-.163.435.356.356,0,0,1-.457-.086c-.031-.036-.057-.075-.085-.113Z" transform="translate(0 -132.633)" fill="#797884"/>
    <path id="Path_5249" data-name="Path 5249" d="M862.8,433.385h-1.838a1.411,1.411,0,0,1-.182-.006.357.357,0,0,1-.048-.7,1.084,1.084,0,0,1,.252-.023q1.828,0,3.657,0c.333,0,.505.123.51.36s-.165.368-.514.368Z" transform="translate(-36.601 -228.427)" fill="#797884"/>
    <path id="Path_5250" data-name="Path 5250" d="M897.894,397.192c.346,0,.691,0,1.037,0,.254,0,.415.14.42.355s-.161.371-.421.372q-1.046,0-2.092,0a.375.375,0,0,1-.421-.355c-.006-.219.163-.37.422-.372C897.191,397.191,897.543,397.192,897.894,397.192Z" transform="translate(-70.797 -194.686)" fill="#797884"/>
    <path id="Path_5251" data-name="Path 5251" d="M860.974,397.923c-.331,0-.5-.123-.508-.36s.174-.368.5-.368c.048,0,.1,0,.146,0a.363.363,0,1,1,.008.726C861.071,397.926,861.023,397.923,860.974,397.923Z" transform="translate(-36.595 -194.69)" fill="#797884"/>
    <path id="Path_5252" data-name="Path 5252" d="M1033.063,384.779c.118,0,.2,0,.271,0a11.755,11.755,0,0,1,1.577.06,2.314,2.314,0,0,1-.4,4.582c-1.1.014-2.2,0-3.294,0-.26,0-.414-.133-.418-.352a.371.371,0,0,1,.421-.374q1.583,0,3.166,0a1.645,1.645,0,0,0,.915-.25,1.6,1.6,0,0,0,.69-1.739,1.564,1.564,0,0,0-1.437-1.192c-.478-.021-.957,0-1.466,0a1.432,1.432,0,0,0,.094.119c.17.173.347.339.513.516a.362.362,0,1,1-.506.517q-.643-.63-1.274-1.274a.342.342,0,0,1,0-.507q.631-.643,1.275-1.273a.361.361,0,0,1,.507.513c-.156.169-.324.327-.487.491C1033.173,384.658,1033.135,384.7,1033.063,384.779Z" transform="translate(-198.641 -181.668)" fill="#797884"/>
  </g>
</svg>
