<svg xmlns="http://www.w3.org/2000/svg" width="17.741" height="18.462" viewBox="0 0 17.741 18.462">
  <g id="sale" transform="translate(-501.228 -216.497)">
    <path id="Path_5239" data-name="Path 5239" d="M509.922,234.81a2.077,2.077,0,0,1-1.166-.681c-.258-.267-.536-.513-.8-.777a.651.651,0,0,0-.61-.191q-.671.108-1.346.193a1.589,1.589,0,0,1-1.877-1.427c-.07-.43-.149-.858-.22-1.288a.647.647,0,0,0-.371-.5c-.409-.208-.814-.425-1.217-.643a1.58,1.58,0,0,1-.71-2.181c.2-.414.4-.827.605-1.236a.658.658,0,0,0,0-.64c-.205-.4-.4-.812-.6-1.22a1.585,1.585,0,0,1,.722-2.2c.394-.211.786-.427,1.186-.627a.681.681,0,0,0,.391-.547c.072-.453.147-.906.238-1.356a1.583,1.583,0,0,1,1.91-1.316c.448.07.9.131,1.345.2a.6.6,0,0,0,.531-.178q.5-.5,1.016-.983a1.578,1.578,0,0,1,2.293,0c.333.317.665.634.99.959a.666.666,0,0,0,.627.194c.447-.073.9-.141,1.346-.193a1.581,1.581,0,0,1,1.858,1.389c.078.428.155.857.221,1.287a.679.679,0,0,0,.39.547c.394.2.781.411,1.17.619a1.589,1.589,0,0,1,.725,2.243c-.188.386-.37.776-.569,1.156a.7.7,0,0,0,0,.7c.206.4.4.8.59,1.2a1.579,1.579,0,0,1-.708,2.181c-.4.216-.8.433-1.2.635a.692.692,0,0,0-.4.562c-.069.448-.145.895-.235,1.339a1.583,1.583,0,0,1-1.906,1.321c-.448-.069-.9-.13-1.346-.195a.6.6,0,0,0-.532.174c-.273.268-.558.526-.824.8a2.079,2.079,0,0,1-1.166.681Zm4.508-2.477a.529.529,0,0,0,.583-.439c.077-.4.164-.809.211-1.217a1.813,1.813,0,0,1,1.115-1.552c.358-.163.7-.363,1.047-.55a.544.544,0,0,0,.266-.81c-.2-.413-.4-.827-.605-1.236a1.619,1.619,0,0,1,0-1.541c.2-.4.394-.8.589-1.2a.556.556,0,0,0-.281-.857c-.405-.215-.811-.429-1.216-.645a1.568,1.568,0,0,1-.854-1.146c-.09-.492-.173-.985-.265-1.477a.533.533,0,0,0-.649-.468c-.449.063-.9.124-1.345.2a1.663,1.663,0,0,1-1.531-.489c-.311-.313-.634-.616-.951-.923a.551.551,0,0,0-.89.006q-.5.479-.991.958a1.554,1.554,0,0,1-1.336.461c-.49-.064-.979-.134-1.469-.205a.54.54,0,0,0-.678.472c-.073.387-.16.774-.2,1.165a1.818,1.818,0,0,1-1.123,1.566c-.353.161-.689.358-1.031.541a.547.547,0,0,0-.27.821c.2.413.4.826.605,1.236a1.615,1.615,0,0,1,0,1.526c-.2.405-.4.813-.6,1.221a.552.552,0,0,0,.276.846c.4.213.8.428,1.2.636a1.634,1.634,0,0,1,.9,1.271c.07.447.152.893.236,1.338a.544.544,0,0,0,.7.488c.448-.068.9-.128,1.346-.194a1.667,1.667,0,0,1,1.494.5c.309.307.626.607.939.91a.551.551,0,0,0,.89.006c.309-.3.625-.591.926-.9a1.7,1.7,0,0,1,1.609-.505C513.533,232.22,514,232.272,514.429,232.333Z" transform="translate(0)" fill="#797884" stroke="#fff" stroke-width="0.3"/>
    <path id="Path_5240" data-name="Path 5240" d="M615.759,332.1c-.047.1-.088.212-.143.313a.63.63,0,0,1-.118.13q-3.36,3.361-6.721,6.722a.615.615,0,0,1-.456.234.519.519,0,0,1-.414-.828,1.234,1.234,0,0,1,.131-.143q3.36-3.361,6.721-6.722a.624.624,0,0,1,.456-.234A.563.563,0,0,1,615.759,332.1Z" transform="translate(-101.67 -109.774)" fill="#797884" stroke="#fff" stroke-width="0.3"/>
    <path id="Path_5241" data-name="Path 5241" d="M609.01,318.8a1.913,1.913,0,1,1,1.921-1.9A1.908,1.908,0,0,1,609.01,318.8Zm.015-2.775a.866.866,0,0,0-.876.853.868.868,0,1,0,1.737.013A.864.864,0,0,0,609.025,316.021Z" transform="translate(-101.008 -93.911)" fill="#797884" stroke="#fff" stroke-width="0.3"/>
    <path id="Path_5242" data-name="Path 5242" d="M703.3,440.845a1.912,1.912,0,1,1-1.916,1.9A1.905,1.905,0,0,1,703.3,440.845Zm-.012,2.773a.865.865,0,0,0,.876-.853.868.868,0,1,0-1.737-.014A.864.864,0,0,0,703.284,443.618Z" transform="translate(-191.105 -214.212)" fill="#797884" stroke="#fff" stroke-width="0.3"/>
  </g>
</svg>
