<svg xmlns="http://www.w3.org/2000/svg" width="780.5" height="226" viewBox="0 0 780.5 226">
  <g id="sales_report_graph1" transform="translate(-52 -284)">
    <text id="_0" data-name="0" transform="translate(71 457)" fill="#353c40" font-size="12" font-family="SegoeUI, Segoe UI"><tspan x="-6.469" y="0">0</tspan></text>
    <text id="_10L" data-name="10L" transform="translate(71 417)" fill="#353c40" font-size="12" font-family="SegoeUI, Segoe UI"><tspan x="-18.586" y="0">10L</tspan></text>
    <text id="_20L" data-name="20L" transform="translate(71 377)" fill="#353c40" font-size="12" font-family="SegoeUI, Segoe UI"><tspan x="-18.586" y="0">20L</tspan></text>
    <text id="_30L" data-name="30L" transform="translate(71 337)" fill="#353c40" font-size="12" font-family="SegoeUI, Segoe UI"><tspan x="-18.586" y="0">30L</tspan></text>
    <text id="_40L" data-name="40L" transform="translate(71 297)" fill="#353c40" font-size="12" font-family="SegoeUI, Segoe UI"><tspan x="-18.586" y="0">40L</tspan></text>
    <line id="Line_18" data-name="Line 18" x2="752" transform="translate(80.5 372.5)" fill="none" stroke="#707070" stroke-width="1" opacity="0.1"/>
    <line id="Line_19" data-name="Line 19" x2="752" transform="translate(80.5 332.5)" fill="none" stroke="#707070" stroke-width="1" opacity="0.1"/>
    <line id="Line_20" data-name="Line 20" x2="752" transform="translate(80.5 292.5)" fill="none" stroke="#707070" stroke-width="1" opacity="0.1"/>
    <line id="Line_21" data-name="Line 21" x2="752" transform="translate(80.5 412.5)" fill="none" stroke="#707070" stroke-width="1" opacity="0.1"/>
    <line id="Line_22" data-name="Line 22" x2="752" transform="translate(80.5 452.5)" fill="none" stroke="#707070" stroke-width="1" opacity="0.1"/>
    <text id="Apr" transform="translate(110 475)" fill="#353c40" font-size="12" font-family="SegoeUI, Segoe UI"><tspan x="-9.483" y="0">Apr</tspan></text>
    <rect id="Rectangle_3238" data-name="Rectangle 3238" width="20" height="26" transform="translate(91 427)" fill="#295cc4"/>
    <rect id="Rectangle_3239" data-name="Rectangle 3239" width="20" height="60" transform="translate(110 393)" fill="#6ac8e0"/>
    <text id="Mar" transform="translate(803 475)" fill="#353c40" font-size="12" font-family="SegoeUI, Segoe UI"><tspan x="-10.526" y="0">Mar</tspan></text>
    <rect id="Rectangle_3240" data-name="Rectangle 3240" width="20" height="73" transform="translate(784 380)" fill="#295cc4"/>
    <rect id="Rectangle_3241" data-name="Rectangle 3241" width="20" height="50" transform="translate(803 403)" fill="#6ac8e0"/>
    <text id="Feb" transform="translate(740 475)" fill="#353c40" font-size="12" font-family="SegoeUI, Segoe UI"><tspan x="-9.595" y="0">Feb</tspan></text>
    <rect id="Rectangle_3242" data-name="Rectangle 3242" width="20" height="60" transform="translate(721 393)" fill="#295cc4"/>
    <rect id="Rectangle_3243" data-name="Rectangle 3243" width="20" height="89" transform="translate(740 364)" fill="#6ac8e0"/>
    <text id="Jan" transform="translate(677 475)" fill="#353c40" font-size="12" font-family="SegoeUI, Segoe UI"><tspan x="-8.59" y="0">Jan</tspan></text>
    <rect id="Rectangle_3244" data-name="Rectangle 3244" width="20" height="107" transform="translate(658 346)" fill="#295cc4"/>
    <rect id="Rectangle_3245" data-name="Rectangle 3245" width="20" height="81" transform="translate(677 372)" fill="#6ac8e0"/>
    <text id="Dec" transform="translate(614 475)" fill="#353c40" font-size="12" font-family="SegoeUI, Segoe UI"><tspan x="-10.116" y="0">Dec</tspan></text>
    <rect id="Rectangle_3246" data-name="Rectangle 3246" width="20" height="81" transform="translate(595 372)" fill="#295cc4"/>
    <rect id="Rectangle_3247" data-name="Rectangle 3247" width="20" height="53" transform="translate(614 400)" fill="#6ac8e0"/>
    <text id="Nov" transform="translate(551 475)" fill="#353c40" font-size="12" font-family="SegoeUI, Segoe UI"><tspan x="-10.878" y="0">Nov</tspan></text>
    <rect id="Rectangle_3248" data-name="Rectangle 3248" width="20" height="107" transform="translate(532 346)" fill="#295cc4"/>
    <rect id="Rectangle_3249" data-name="Rectangle 3249" width="20" height="120" transform="translate(551 333)" fill="#6ac8e0"/>
    <text id="Oct" transform="translate(488 475)" fill="#353c40" font-size="12" font-family="SegoeUI, Segoe UI"><tspan x="-9.328" y="0">Oct</tspan></text>
    <rect id="Rectangle_3250" data-name="Rectangle 3250" width="20" height="133" transform="translate(469 320)" fill="#295cc4"/>
    <rect id="Rectangle_3251" data-name="Rectangle 3251" width="20" height="73" transform="translate(488 380)" fill="#6ac8e0"/>
    <text id="Sep" transform="translate(425 475)" fill="#353c40" font-size="12" font-family="SegoeUI, Segoe UI"><tspan x="-9.853" y="0">Sep</tspan></text>
    <rect id="Rectangle_3252" data-name="Rectangle 3252" width="20" height="99" transform="translate(406 354)" fill="#295cc4"/>
    <rect id="Rectangle_3253" data-name="Rectangle 3253" width="20" height="53" transform="translate(425 400)" fill="#6ac8e0"/>
    <text id="Aug" transform="translate(362 475)" fill="#353c40" font-size="12" font-family="SegoeUI, Segoe UI"><tspan x="-10.799" y="0">Aug</tspan></text>
    <text id="_2020" data-name="2020" transform="translate(427 507)" fill="#353c40" font-size="12" font-family="SegoeUI, Segoe UI"><tspan x="0" y="0">2020</tspan></text>
    <text id="_2021" data-name="2021" transform="translate(482 507)" fill="#353c40" font-size="12" font-family="SegoeUI, Segoe UI"><tspan x="0" y="0">2021</tspan></text>
    <rect id="Rectangle_3254" data-name="Rectangle 3254" width="20" height="41" transform="translate(343 412)" fill="#295cc4"/>
    <rect id="Rectangle_3255" data-name="Rectangle 3255" width="20" height="81" transform="translate(362 372)" fill="#6ac8e0"/>
    <text id="Jul" transform="translate(299 475)" fill="#353c40" font-size="12" font-family="SegoeUI, Segoe UI"><tspan x="-6.99" y="0">Jul</tspan></text>
    <rect id="Rectangle_3256" data-name="Rectangle 3256" width="20" height="60" transform="translate(280 393)" fill="#295cc4"/>
    <rect id="Rectangle_3257" data-name="Rectangle 3257" width="20" height="93" transform="translate(299 360)" fill="#6ac8e0"/>
    <text id="Jun" transform="translate(236 475)" fill="#353c40" font-size="12" font-family="SegoeUI, Segoe UI"><tspan x="-8.933" y="0">Jun</tspan></text>
    <rect id="Rectangle_3258" data-name="Rectangle 3258" width="20" height="60" transform="translate(217 393)" fill="#295cc4"/>
    <rect id="Rectangle_3259" data-name="Rectangle 3259" width="20" height="73" transform="translate(236 380)" fill="#6ac8e0"/>
    <text id="May" transform="translate(173 475)" fill="#353c40" font-size="12" font-family="SegoeUI, Segoe UI"><tspan x="-11.344" y="0">May</tspan></text>
    <rect id="Rectangle_3260" data-name="Rectangle 3260" width="20" height="13" transform="translate(154 440)" fill="#295cc4"/>
    <rect id="Rectangle_3261" data-name="Rectangle 3261" width="20" height="33" transform="translate(173 420)" fill="#6ac8e0"/>
    <circle id="Ellipse_176" data-name="Ellipse 176" cx="5.5" cy="5.5" r="5.5" transform="translate(411 497)" fill="#295cc4"/>
    <circle id="Ellipse_177" data-name="Ellipse 177" cx="5.5" cy="5.5" r="5.5" transform="translate(466 497)" fill="#6ac8e0"/>
  </g>
</svg>
