<svg xmlns="http://www.w3.org/2000/svg" width="360" height="180" viewBox="0 0 360 180">
  <g id="sales_report_graph2" transform="translate(-929 -293)">
    <text id="Warangal" transform="translate(1013 468)" fill="#353c40" font-size="12" font-family="SegoeUI, Segoe UI"><tspan x="-49.992" y="0">Warangal</tspan></text>
    <text id="Panjagutta-Hyd" transform="translate(1012 428)" fill="#353c40" font-size="12" font-family="SegoeUI, Segoe UI"><tspan x="-82.506" y="0">Panjagutta-Hyd</tspan></text>
    <text id="Vijayawada" transform="translate(1011 388)" fill="#353c40" font-size="12" font-family="SegoeUI, Segoe UI"><tspan x="-59.232" y="0">Vijayawada</tspan></text>
    <text id="Patny-hyd" transform="translate(1014 348)" fill="#353c40" font-size="12" font-family="SegoeUI, Segoe UI"><tspan x="-53.543" y="0">Patny-hyd</tspan></text>
    <text id="Kukatpally-Hyd" transform="translate(1014 308)" fill="#353c40" font-size="12" font-family="SegoeUI, Segoe UI"><tspan x="-80.859" y="0">Kukatpally-Hyd</tspan></text>
    <rect id="Rectangle_3294" data-name="Rectangle 3294" width="20" height="144" transform="translate(1166 453) rotate(90)" fill="#f1a738"/>
    <rect id="Rectangle_3293" data-name="Rectangle 3293" width="20" height="176" transform="translate(1198 413) rotate(90)" fill="#f1a738"/>
    <rect id="Rectangle_3292" data-name="Rectangle 3292" width="20" height="203" transform="translate(1225 373) rotate(90)" fill="#f1a738"/>
    <rect id="Rectangle_3291" data-name="Rectangle 3291" width="20" height="235" transform="translate(1257 333) rotate(90)" fill="#f1a738"/>
    <rect id="Rectangle_3290" data-name="Rectangle 3290" width="20" height="267" transform="translate(1289 293) rotate(90)" fill="#f1a738"/>
    <text id="_20.55L" data-name="20.55L" transform="translate(1125 468)" fill="#fff" font-size="12" font-family="SegoeUI-Bold, Segoe UI" font-weight="700"><tspan x="0" y="0">20.55L</tspan></text>
    <text id="_29.5L" data-name="29.5L" transform="translate(1164 428)" fill="#fff" font-size="12" font-family="SegoeUI-Bold, Segoe UI" font-weight="700"><tspan x="0" y="0">29.5L</tspan></text>
    <text id="_35L" data-name="35L" transform="translate(1200 388)" fill="#fff" font-size="12" font-family="SegoeUI-Bold, Segoe UI" font-weight="700"><tspan x="0" y="0">35L</tspan></text>
    <text id="_38.25L" data-name="38.25L" transform="translate(1215 348)" fill="#fff" font-size="12" font-family="SegoeUI-Bold, Segoe UI" font-weight="700"><tspan x="0" y="0">38.25L</tspan></text>
    <text id="_45L" data-name="45L" transform="translate(1263 308)" fill="#fff" font-size="12" font-family="SegoeUI-Bold, Segoe UI" font-weight="700"><tspan x="0" y="0">45L</tspan></text>
  </g>
</svg>
