<svg xmlns="http://www.w3.org/2000/svg" width="311" height="311" viewBox="0 0 311 311">
  <g id="sales_report_graph5" transform="translate(11241 11980)">
    <rect id="Rectangle_3317" data-name="Rectangle 3317" width="311" height="311" transform="translate(-11241 -11980)" fill="none"/>
    <g id="Group_25795" data-name="Group 25795" transform="translate(-12210.55 -12537.167)">
      <path id="Intersection_22" data-name="Intersection 22" d="M0,118A117.946,117.946,0,0,1,5.238,83.121L118,118V0A118,118,0,1,1,0,118Z" transform="translate(1016.549 597.167)" fill="#6cd11f"/>
      <path id="Intersection_21" data-name="Intersection 21" d="M0,76.443A109.875,109.875,0,0,1,104.66,0V109.825Z" transform="translate(1029.458 605.524)" fill="#dbdbdb"/>
      <circle id="Ellipse_198" data-name="Ellipse 198" cx="59.5" cy="59.5" r="59.5" transform="translate(1074.549 656.167)" fill="#fff"/>
      <text id="_57" data-name="57" transform="translate(1116.549 716.167)" fill="#85dc43" font-size="31" font-family="SegoeUI-Bold, Segoe UI" font-weight="700"><tspan x="0" y="0">57</tspan></text>
      <text id="Active" transform="translate(1105.549 738.167)" fill="#353c40" font-size="20" font-family="SegoeUI, Segoe UI"><tspan x="0" y="0">Active</tspan></text>
      <line id="Line_43" data-name="Line 43" x1="103.094" y1="32.074" transform="translate(991.5 671.248)" fill="none" stroke="#fff" stroke-width="1"/>
      <line id="Line_44" data-name="Line 44" y2="72.166" transform="translate(1134.686 594.5)" fill="none" stroke="#fff" stroke-width="1"/>
    </g>
  </g>
</svg>
