<svg xmlns="http://www.w3.org/2000/svg" width="18.998" height="17.004" viewBox="0 0 18.998 17.004">
  <path id="scan" d="M15827,22527h-4v-1.133h4v-4.535h1V22527Zm-17,0h-1v-5.668h1v4.535h4V22527Zm13.865-3.4v-10.2h.85v10.2Zm-1.271,0v-10.2h.426v10.2Zm-1.271,0v-10.2h.426v10.2Zm-.848,0v-10.2h.424v10.2Zm-2.969,0v-10.2h2.121v10.2Zm-.848,0v-10.2h.424v10.2Zm-1.689,0v-10.2h.848v10.2Zm-.848,0v-10.2h.424v10.2Zm-.848,0v-10.2h.424v10.2Zm-1.273,0v-10.2h.85v10.2Zm15-7.93v-4.539h-4V22510h5v5.672Zm-18,0V22510h5v1.133h-4v4.539Z" transform="translate(-15808.998 -22510)" fill="#fff"/>
</svg>
