<svg id="stock" xmlns="http://www.w3.org/2000/svg" width="48.151" height="50.809" viewBox="0 0 48.151 50.809">
  <path id="Path_109" data-name="Path 109" d="M1468.215,580.615a3.191,3.191,0,0,0-1.7-2.062,1.831,1.831,0,0,0-2.084.23c-.136.111-.278.215-.414.326-.1.079-.179.086-.222-.047a1.08,1.08,0,0,0-.324-.429,4,4,0,0,0-2.029-1.106,2.188,2.188,0,0,0-2.005.486c-.62.556-1.261,1.089-1.9,1.629-.062.053-.127.161-.2.13s-.037-.152-.037-.232c0-.521,0-1.042,0-1.563,0-.506,0-.506-.505-.507-.277,0-.277,0-.277-.28v-9.575c0-.065,0-.13,0-.2,0-.108-.053-.153-.156-.151-.065,0-.13,0-.2,0h-11.959c-.294,0-.294,0-.294.29q0,2.843,0,5.686c0,.312,0,.312-.3.312h-6.018c-.56,0-5.157,0-6,0-.183,0-.249.062-.23.237a1.826,1.826,0,0,1,0,.2q0,5.794,0,11.587a.625.625,0,0,1-.221.509,8.171,8.171,0,0,0-.68.7,20.727,20.727,0,0,0-1.442,2.064c-.119.177-.193.16-.345.057a2.393,2.393,0,0,0-3.554.871c-.155.286-.307.574-.463.86q-2.05,3.755-4.1,7.507a4.6,4.6,0,0,1-.443.755v.156c.425.189.818.436,1.229.65l0,.014c.028.012.055.025.081.039h.117c.042-.062.078-.129.116-.193h-.03c.345-.62.681-1.245,1.022-1.867.472-.863,3.345-6.126,3.9-7.145a.81.81,0,0,1,.784-.479.78.78,0,0,1,.417.15q1.59,1.083,3.18,2.166c1.061.72,2.125,1.436,3.185,2.157q1.848,1.258,3.692,2.522c.118.081.235.165.358.237s.125.142.064.257c-.225.426-.434.86-.666,1.283-.084.154-.057.226.093.3.3.145.589.3.882.448.148.03.294.069.44.105a.214.214,0,0,1,.037-.126c.429-.833.847-1.673,1.284-2.5.089-.169.054-.248-.091-.341-.3-.189-.585-.389-.876-.588-.051-.035-.12-.054-.14-.125.017-.043.053-.038.084-.035q1.76.147,3.52.3c.992.083,1.987.135,2.975.251a12.828,12.828,0,0,0,2.872-.184c1.041-.11,2.08-.247,3.12-.37.471-.056.948-.084,1.414-.168a3.936,3.936,0,0,0,2.065-1.188c.954-.942,1.932-1.86,2.9-2.793.7-.678,1.394-1.364,2.094-2.042.889-.86,1.783-1.716,2.673-2.575s1.768-1.711,2.652-2.566c.651-.629,1.3-1.263,1.957-1.881a2.358,2.358,0,0,0,.757-1.18V580.8Zm-9.426.1q.853-.73,1.7-1.467a.548.548,0,0,1,.411-.156,2.307,2.307,0,0,1,1.5.787c.073.086.054.14-.019.213-.48.478-.935.982-1.439,1.433-.479.428-1.008.8-1.511,1.2q-.472.377-.95.745c-.561.432-1.107.882-1.661,1.323-.876.7-1.758,1.385-2.627,2.09a.556.556,0,0,1-.579.127c-.484-.152-.979-.268-1.469-.4-.047-.013-.118-.008-.129-.069s.052-.085.09-.117l3.593-3.07Q1457.243,582.031,1458.788,580.713Zm-13.255-11.546c0-.276,0-.276.281-.276,1.12,0,2.24,0,3.36,0,.185,0,.252.048.245.24-.014.377,0,.755-.008,1.133,0,.139.045.2.191.2.41-.006.82-.007,1.231,0,.159,0,.2-.067.2-.211,0-.384,0-.768,0-1.153,0-.15.048-.207.2-.206q1.729.007,3.458,0c.152,0,.2.05.2.2q0,4.093,0,8.186c0,.183-.091.195-.232.195q-2.227,0-4.455,0h-4.4c-.283,0-.284,0-.284-.274Zm-.548,9.922q2.1.011,4.2,0c.176,0,.241.046.234.23-.013.384,0,.769-.007,1.152,0,.148.047.191.191.188.4-.008.807-.01,1.211,0,.176,0,.226-.066.222-.231-.007-.378,0-.755,0-1.133,0-.148.046-.207.2-.207q2.119.007,4.239,0c.149,0,.21.043.208.2-.006.592,0,1.185,0,1.778a.324.324,0,0,1-.122.27q-1.732,1.475-3.46,2.955c-.628.537-1.258,1.072-1.882,1.614a.357.357,0,0,1-.37.085q-2.449-.668-4.9-1.321a.222.222,0,0,1-.2-.255c.006-.853,0-1.706,0-2.559s0-1.68,0-2.52C1444.745,579.156,1444.791,579.088,1444.986,579.089Zm-12-3.648c0-.262,0-.264.258-.264,1.394,0,2.788,0,4.182,0,.159,0,.215.039.209.207-.013.377,0,.755-.007,1.133,0,.162.053.236.227.233.4-.008.807-.008,1.211,0,.155,0,.206-.062.2-.209-.005-.378,0-.756,0-1.133,0-.167.053-.23.225-.229q2.111.007,4.221,0c.152,0,.205.053.2.205q-.009.948,0,1.9c0,.159-.063.205-.21.2s-.286,0-.43,0a.127.127,0,0,0-.145.143c0,.065,0,.13,0,.2v6.136c0,.236,0,.232-.225.175-1.047-.268-2.076-.611-3.136-.818a8.827,8.827,0,0,0-4.189.281,10.936,10.936,0,0,0-2.405,1.016c-.178.1-.189.094-.189-.113q0-2.277,0-4.553Q1432.984,577.689,1432.984,575.441Zm33.535,6.031q-1.645,1.572-3.28,3.155c-.988.955-1.97,1.915-2.958,2.87q-2.276,2.2-4.557,4.39c-.609.587-1.219,1.174-1.822,1.767a2.129,2.129,0,0,1-1.359.615c-.9.074-1.784.2-2.675.3-1.028.118-2.053.252-3.082.361a8.751,8.751,0,0,1-1.538-.086c-.746-.053-1.491-.12-2.236-.182-1.018-.085-2.036-.172-3.054-.255q-.894-.073-1.79-.137a2.884,2.884,0,0,0-1.117.144.352.352,0,0,1-.343-.056q-2.249-1.538-4.5-3.068c-.592-.4-1.184-.807-1.78-1.2-.148-.1-.187-.177-.071-.336.46-.631.834-1.321,1.347-1.916a8.64,8.64,0,0,1,3.1-2.253,8.966,8.966,0,0,1,3.718-.794,7.358,7.358,0,0,1,2.025.372q4,1.077,8,2.149,1.518.408,3.035.821a1.073,1.073,0,0,1-.129,2.125,5.2,5.2,0,0,1-1.121-.14q-3.295-.536-6.586-1.085-1.1-.182-2.195-.369a.487.487,0,0,0-.337.052q-1.332.739-2.667,1.472c-.1.056-.126.111-.067.216.214.38.427.761.632,1.146.065.121.129.111.233.053.7-.39,1.4-.771,2.1-1.164a.617.617,0,0,1,.428-.08q2.242.378,4.486.751,2.272.377,4.546.748a2.716,2.716,0,0,0,3.159-2.4,1.641,1.641,0,0,0,0-.505c-.02-.1.007-.16.12-.122s.172-.025.244-.082l3.816-3.015,4.062-3.208q1.333-1.054,2.665-2.109c.158-.125.321-.245.475-.375a.287.287,0,0,1,.342-.046,1.615,1.615,0,0,1,.862,1.056A.4.4,0,0,1,1466.519,581.472Z" transform="translate(-1420.118 -548.949)" fill="#0196fd"/>
  <path id="Path_110" data-name="Path 110" d="M1857.556,98.529c.356.254.746.449,1.123.668,1.1.641,2.208,1.28,3.319,1.908.183.1.179.187.083.346-.246.406-.474.824-.717,1.232a.274.274,0,0,0,.006.338,4.819,4.819,0,0,1,.457.8.217.217,0,0,0,.234.132c.488,0,.977.01,1.465-.006.2-.007.256.05.254.248-.008,1.485-.006,2.97-.006,4.455,0,.189,0,.378,0,.567.005.144-.057.2-.2.194-.495,0-.99,0-1.485,0a.275.275,0,0,0-.291.173,4.98,4.98,0,0,1-.449.777.215.215,0,0,0-.011.267c.257.438.5.884.764,1.318.08.132.075.19-.064.269-1.08.616-2.156,1.241-3.233,1.862-.395.228-.793.449-1.185.683-.128.076-.187.051-.257-.075-.231-.415-.478-.822-.709-1.237a.337.337,0,0,0-.353-.207c-.286.017-.573.011-.859,0a.272.272,0,0,0-.28.16c-.242.432-.5.857-.737,1.288-.07.125-.136.144-.262.071q-2.18-1.263-4.368-2.513c-.181-.1-.181-.188-.085-.347.25-.412.483-.834.73-1.248a.241.241,0,0,0,0-.3,4.729,4.729,0,0,1-.448-.777.243.243,0,0,0-.257-.16c-.488.006-.977,0-1.465.006-.182,0-.254-.05-.254-.241q.008-2.511,0-5.021c0-.169.061-.205.219-.2.488.01.977,0,1.465.007a.283.283,0,0,0,.3-.19,3.645,3.645,0,0,1,.409-.71.3.3,0,0,0,.017-.386c-.249-.405-.475-.824-.722-1.23-.094-.154-.068-.232.086-.32q2.179-1.246,4.351-2.5c.045-.026.089-.054.133-.081h.078c.276.479.553.957.826,1.438a.237.237,0,0,0,.263.149,3.469,3.469,0,0,1,.934,0,.187.187,0,0,0,.213-.095c.282-.5.567-.994.851-1.49Zm-7.906,8.137h.006c0,.306.01.613,0,.918-.008.163.053.2.2.2.332-.007.664,0,1,0a.218.218,0,0,1,.243.172,8,8,0,0,0,.313.821,5.931,5.931,0,0,0,.995,1.44.18.18,0,0,1,.017.254c-.174.283-.329.577-.506.858-.09.144-.075.218.078.3.524.289,1.043.589,1.559.893.139.082.222.064.3-.074.156-.278.327-.548.477-.83a.245.245,0,0,1,.315-.144,5.416,5.416,0,0,0,2.534,0,.233.233,0,0,1,.3.138c.159.292.335.573.491.866.068.128.124.148.252.071q.806-.478,1.625-.935c.122-.068.134-.134.065-.247-.177-.3-.343-.6-.522-.894a.194.194,0,0,1,.027-.274,5.52,5.52,0,0,0,1.3-2.243.215.215,0,0,1,.243-.171c.338.006.677,0,1.015,0,.146,0,.193-.049.192-.193-.006-.606-.007-1.211,0-1.817,0-.168-.064-.214-.219-.21-.312.007-.625-.006-.937.005a.265.265,0,0,1-.312-.215,5.312,5.312,0,0,0-1.283-2.207.2.2,0,0,1-.028-.275c.179-.295.346-.6.523-.893.06-.1.073-.169-.047-.237q-.824-.466-1.642-.944c-.114-.067-.179-.058-.246.065-.157.292-.329.576-.491.866-.067.119-.142.2-.295.141a1.039,1.039,0,0,0-.192-.036,5.433,5.433,0,0,0-1.358-.113,7.46,7.46,0,0,0-1.022.152.223.223,0,0,1-.282-.133c-.163-.3-.338-.587-.5-.882-.06-.106-.119-.13-.233-.063q-.816.481-1.641.946c-.11.062-.131.116-.064.228.175.29.333.59.51.878a.227.227,0,0,1-.031.323,5.545,5.545,0,0,0-1.277,2.213.237.237,0,0,1-.273.185c-.332-.006-.664,0-1,0-.132,0-.182.041-.176.183C1849.659,106.053,1849.65,106.36,1849.65,106.666Z" transform="translate(-1831.292 -98.529)" fill="#0196fd"/>
  <path id="Path_111" data-name="Path 111" d="M1556.207,218.3c.365,0,.672,0,.978,0,.133,0,.189.051.185.185-.005.2.005.4,0,.606-.007.17.054.171.179.1.575-.332,1.152-.661,1.729-.991.317-.181.632-.364.95-.541.132-.073.171-.127.01-.219q-1.351-.766-2.7-1.543c-.121-.069-.176-.063-.172.094.006.208,0,.417,0,.625,0,.109-.035.175-.155.175a8.615,8.615,0,0,1-3.412-.371,5.421,5.421,0,0,1-3.487-4.4,5.213,5.213,0,0,1,.744-3.6,5.5,5.5,0,0,1,2.985-2.393c.166-.058.334-.11.5-.174.107-.042.171-.024.21.089.142.412.285.824.435,1.233.054.146-.03.181-.137.22a6.4,6.4,0,0,0-1.377.595,3.891,3.891,0,0,0-.862,5.8,3.79,3.79,0,0,0,2.773,1.366c.135.007.169-.035.168-.16-.005-.58,0-1.159,0-1.739,0-.225.015-.232.216-.121.5.276,1.007.541,1.494.833,1.6.957,3.23,1.849,4.838,2.786q.6.349,1.205.686c.138.077.156.133,0,.219q-2.02,1.148-4.038,2.3l-3.409,1.947c-.04.023-.08.044-.119.068-.146.092-.195.036-.194-.12,0-.56-.008-1.12.005-1.68,0-.2-.058-.249-.254-.256a8.666,8.666,0,0,1-2.971-16.681,10.972,10.972,0,0,1,2.163-.588c.11-.021.157.023.177.123.086.427.172.855.262,1.281.028.135-.049.171-.155.195-.343.075-.689.141-1.028.231a7.028,7.028,0,0,0-5.141,5.858,7.041,7.041,0,0,0,6.308,7.937C1555.5,218.306,1555.883,218.286,1556.207,218.3Z" transform="translate(-1542.156 -198.57)" fill="#0196fd"/>
  <path id="Path_112" data-name="Path 112" d="M1991.141,246.048c.208,0,.417.006.625,0,.143,0,.2.051.2.194-.005.391,0,.782,0,1.172,0,.152.046.207.2.2.384-.008.769,0,1.152,0,.16,0,.219.051.216.214q-.012.615,0,1.231c0,.141-.053.181-.183.18-.391,0-.782,0-1.172,0-.159,0-.219.048-.215.212.009.384,0,.769,0,1.153,0,.153-.055.208-.206.206-.4-.006-.808-.007-1.212,0-.168,0-.212-.07-.209-.223.007-.384,0-.769,0-1.153,0-.143-.05-.2-.194-.194-.384.006-.769,0-1.153,0-.172,0-.228-.061-.224-.23.009-.4.007-.795,0-1.192,0-.154.057-.206.207-.2.378.007.756-.008,1.133.006.187.007.234-.064.23-.237-.01-.378,0-.756-.005-1.133,0-.149.041-.213.2-.2C1990.737,246.057,1990.939,246.047,1991.141,246.048Z" transform="translate(-1966.544 -240.278)" fill="#0196fd"/>
</svg>
