<svg id="transfer" xmlns="http://www.w3.org/2000/svg" width="42.103" height="42.103" viewBox="0 0 42.103 42.103">
  <path id="Path_97" data-name="Path 97" d="M38.362,2H7.741A5.748,5.748,0,0,0,2,7.741V38.362A5.748,5.748,0,0,0,7.741,44.1H38.362A5.748,5.748,0,0,0,44.1,38.362V7.741A5.748,5.748,0,0,0,38.362,2Zm4.466,36.362a4.471,4.471,0,0,1-4.466,4.466H7.741a4.471,4.471,0,0,1-4.466-4.466V7.741A4.471,4.471,0,0,1,7.741,3.276H38.362a4.471,4.471,0,0,1,4.466,4.466Z" transform="translate(-2 -2)" fill="#0196fd"/>
  <path id="Path_98" data-name="Path 98" d="M31.227,8.82a.638.638,0,0,0-1.018.512v3.215H12.238a.638.638,0,0,0,0,1.276H30.846a.638.638,0,0,0,.638-.638V10.6l8.263,6.138-8.263,6.143v-2.59a.638.638,0,0,0-.638-.638H16.7a.638.638,0,0,0,0,1.276h13.5v3.222a.638.638,0,0,0,1.019.512L41.2,17.25a.638.638,0,0,0,0-1.024Z" transform="translate(-5.476 -4.424)" fill="#0196fd"/>
  <path id="Path_99" data-name="Path 99" d="M40.817,39.929H22.847V36.714a.638.638,0,0,0-1.018-.512l-9.971,7.407a.638.638,0,0,0,0,1.024l9.971,7.412a.638.638,0,0,0,1.019-.512V48.312h13.5a.638.638,0,1,0,0-1.276H22.209a.638.638,0,0,0-.638.638v2.59l-8.263-6.143,8.263-6.138v2.584a.638.638,0,0,0,.638.638H40.817a.638.638,0,0,0,0-1.276Z" transform="translate(-5.476 -14.338)" fill="#0196fd"/>
</svg>
