<svg xmlns="http://www.w3.org/2000/svg" width="21.915" height="22.669" viewBox="0 0 21.915 22.669">
  <g id="transfer_goods" transform="translate(-563.001 -240.289)">
    <path id="Path_5243" data-name="Path 5243" d="M724.785,426.839v3.3a.426.426,0,0,1-.347.463c-1.879.592-3.757,1.191-5.638,1.782a.552.552,0,0,1-.312,0q-2.8-.88-5.594-1.771c-.325-.1-.373-.168-.374-.507q0-3.3-.007-6.6a.366.366,0,0,1,.278-.393c1.873-.589,3.744-1.181,5.62-1.76a.866.866,0,0,1,.484,0c1.868.578,3.733,1.169,5.6,1.756a.375.375,0,0,1,.288.408v3.323Zm-6.47,4.809c0-.093.012-.16.012-.231v-5.7c0-.175-.067-.231-.216-.279q-2.3-.722-4.6-1.454c-.116-.035-.224-.062-.335-.094a.332.332,0,0,0-.012.047q0,2.967-.006,5.934c0,.139.06.176.177.213q2.305.724,4.608,1.457c.118.041.234.072.367.111Zm5.832-7.761c-.052.014-.081.021-.109.03-1.632.516-3.264,1.041-4.9,1.544-.175.054-.147.162-.147.279v5.89a.991.991,0,0,0,.156-.02c1.619-.511,3.232-1.027,4.849-1.534.135-.043.153-.116.153-.231v-2.8Zm-.769-.447c-.086-.036-.116-.053-.154-.065q-2.2-.7-4.411-1.395a.55.55,0,0,0-.309,0q-2.176.679-4.347,1.371c-.059.019-.116.045-.213.082,1.564.494,3.079.974,4.6,1.45a.382.382,0,0,0,.215.007c1.525-.471,3.049-.953,4.621-1.449Z" transform="translate(-140.124 -169.699)" fill="#ed1c24" stroke="#ed1c24" stroke-width="0.5"/>
    <path id="Path_5244" data-name="Path 5244" d="M563.256,246.046v-3.323a.354.354,0,0,1,.283-.383c1.866-.586,3.729-1.182,5.6-1.764a.906.906,0,0,1,.508,0c1.867.578,3.73,1.177,5.595,1.765a.36.36,0,0,1,.282.386q0,3.29-.007,6.578c0,.372-.038.427-.393.539q-2.807.892-5.615,1.778a.426.426,0,0,1-.241,0c-1.895-.6-3.787-1.2-5.681-1.8a.412.412,0,0,1-.325-.453c.006-1.108,0-2.216,0-3.323Zm.655-2.94v6.152l5.131,1.619c.006-.065.012-.095.012-.125v-5.846c0-.145-.054-.193-.184-.231-1.157-.36-2.313-.729-3.47-1.094Zm10.952.013c-.072.02-.13.032-.186.05-1.581.5-3.161,1-4.742,1.5a.26.26,0,0,0-.217.3c.006,1.886,0,3.772,0,5.658,0,.079.007.158.012.243a.811.811,0,0,0,.094-.015l4.893-1.543c.142-.044.162-.121.162-.25v-5.75c0-.054,0-.113-.014-.19Zm-10.188-.472c.083.035.123.056.165.068,1.452.463,2.9.925,4.357,1.373a.707.707,0,0,0,.4,0c1.419-.44,2.835-.889,4.252-1.338.074-.023.145-.058.257-.1-1.567-.5-3.089-.977-4.613-1.455a.347.347,0,0,0-.2,0l-4.617,1.458Z" transform="translate(0 0)" fill="#ed1c24" stroke="#ed1c24" stroke-width="0.5"/>
    <path id="Path_5245" data-name="Path 5245" d="M786.958,264.1c0,.214.007.383,0,.549-.013.231-.15.369-.334.361s-.3-.154-.3-.386a9.784,9.784,0,0,0-1.109-4.608,9.937,9.937,0,0,0-6.059-5.034c-.08-.025-.192-.036-.231-.092a.547.547,0,0,1-.116-.355.41.41,0,0,1,.31-.2,1.173,1.173,0,0,1,.441.109,10.56,10.56,0,0,1,7.248,8.424C786.9,263.286,786.916,263.716,786.958,264.1Z" transform="translate(-202.349 -12.947)" fill="#ed1c24" stroke="#ed1c24" stroke-width="0.5"/>
    <path id="Path_5246" data-name="Path 5246" d="M564.119,417.088v-.4c0-.248.116-.4.315-.4s.319.142.323.389a9.716,9.716,0,0,0,.846,3.933,9.9,9.9,0,0,0,5.878,5.419c.327.116.436.244.371.448-.072.222-.248.275-.578.152a10.512,10.512,0,0,1-7.015-8.328C564.181,417.908,564.164,417.492,564.119,417.088Z" transform="translate(-0.811 -164.985)" fill="#ed1c24" stroke="#ed1c24" stroke-width="0.5"/>
  </g>
</svg>
