<svg xmlns="http://www.w3.org/2000/svg" xmlns:xlink="http://www.w3.org/1999/xlink" width="35.558" height="17.779" viewBox="0 0 35.558 17.779">
  <defs>
    <clipPath id="clip-path">
      <path id="path26" d="M0-76.2H35.558v17.779H0Z" transform="translate(0 76.2)"/>
    </clipPath>
  </defs>
  <g id="upi" transform="translate(10.926 15.042)">
    <g id="g22" transform="translate(-10.926 -15.042)">
      <g id="g24" clip-path="url(#clip-path)">
        <g id="g30" transform="translate(2.552 12.753)">
          <path id="path32" d="M-.805,0h.228L-.789.885a.379.379,0,0,0,.018.3.268.268,0,0,0,.242.1.42.42,0,0,0,.288-.1.553.553,0,0,0,.16-.3L.13,0H.361L.144.907a.783.783,0,0,1-.252.442A.727.727,0,0,1-.581,1.5a.475.475,0,0,1-.4-.146A.525.525,0,0,1-1.022.907Z" transform="translate(1.05)" fill="#696a6a"/>
        </g>
        <g id="g34" transform="translate(3.932 12.695)">
          <path id="path36" d="M0-4.978.363-6.493l.689.891c.018.025.037.052.055.081s.037.061.056.1l.242-1.01h.213L1.256-4.921l-.7-.907A.812.812,0,0,1,.5-5.906a.836.836,0,0,1-.045-.086L.212-4.978Z" transform="translate(0 6.493)" fill="#696a6a"/>
        </g>
        <g id="g38" transform="translate(5.532 12.753)">
          <path id="path40" d="M0-4.788.349-6.246H.58L.231-4.788Z" transform="translate(0 6.246)" fill="#696a6a"/>
        </g>
        <g id="g42" transform="translate(6.095 12.753)">
          <path id="path44" d="M0-4.788.349-6.246h.793l-.048.2H.532l-.087.363h.562l-.05.208H.395l-.164.685Z" transform="translate(0 6.246)" fill="#696a6a"/>
        </g>
        <g id="g46" transform="translate(7.142 12.753)">
          <path id="path48" d="M0-4.788.349-6.246H.58L.231-4.788Z" transform="translate(0 6.246)" fill="#696a6a"/>
        </g>
        <g id="g50" transform="translate(7.705 12.753)">
          <path id="path52" d="M0-4.788.349-6.246h.793l-.048.2H.532l-.087.365h.562l-.05.208H.394L.282-5H.843l-.051.212Z" transform="translate(0 6.246)" fill="#696a6a"/>
        </g>
        <g id="g54" transform="translate(8.762 12.753)">
          <path id="path56" d="M-.927-4.085h.194a1.049,1.049,0,0,0,.245-.022.462.462,0,0,0,.157-.074.617.617,0,0,0,.163-.176.821.821,0,0,0,.1-.244.659.659,0,0,0,.018-.244.325.325,0,0,0-.079-.176.265.265,0,0,0-.126-.074,1.073,1.073,0,0,0-.257-.022H-.68Zm-.282.214L-.86-5.328h.311a1.874,1.874,0,0,1,.42.031.43.43,0,0,1,.192.105.444.444,0,0,1,.127.248A.845.845,0,0,1,.171-4.6a1.062,1.062,0,0,1-.146.344.873.873,0,0,1-.246.247A.756.756,0,0,1-.458-3.9a1.693,1.693,0,0,1-.378.031h-.373Z" transform="translate(1.209 5.328)" fill="#696a6a"/>
        </g>
        <g id="g58" transform="translate(10.833 12.753)">
          <path id="path60" d="M-1.426-2h.059A.581.581,0,0,0-1.1-2.045.223.223,0,0,0-1-2.2q.028-.116-.029-.164a.406.406,0,0,0-.24-.048h-.059Zm-.061.194-.157.654H-1.86l.349-1.457h.349a1.021,1.021,0,0,1,.224.017.266.266,0,0,1,.114.057A.247.247,0,0,1-.751-2.4a.441.441,0,0,1-.007.19.587.587,0,0,1-.084.191.466.466,0,0,1-.138.137.442.442,0,0,1-.141.057,1.172,1.172,0,0,1-.233.017h-.133Z" transform="translate(1.86 2.611)" fill="#696a6a"/>
        </g>
        <g id="g62" transform="translate(11.589 12.695)">
          <path id="path64" d="M-2.07-3.1h.4L-1.74-3.43c0-.021-.006-.046-.009-.073s0-.058-.005-.092q-.023.048-.046.089t-.045.076Zm.5.572L-1.64-2.9H-2.2l-.255.375H-2.7l1.05-1.515.324,1.515Z" transform="translate(2.699 4.04)" fill="#696a6a"/>
        </g>
        <g id="g66" transform="translate(13.165 12.753)">
          <path id="path68" d="M-.426-4.788l.16-.667-.289-.79h.243l.179.495c0,.013.009.029.015.05s.011.043.017.067c.014-.023.029-.045.044-.066s.03-.039.045-.057L.41-6.246H.641l-.678.79-.16.667Z" transform="translate(0.555 6.246)" fill="#696a6a"/>
        </g>
        <g id="g70" transform="translate(14.03 12.691)">
          <path id="path72" d="M-4.822-2.627q0-.017.01-.094t.012-.106a.923.923,0,0,1-.049.1,1.174,1.174,0,0,1-.065.1l-.557.776-.182-.792a.927.927,0,0,1-.018-.095c0-.031-.007-.061-.008-.091-.008.031-.018.063-.03.1s-.027.069-.044.105l-.324.718H-6.29l.7-1.519.2.92c0,.015.007.039.012.073s.011.076.018.125q.035-.063.1-.159l.027-.04.629-.919-.02,1.519h-.215Z" transform="translate(6.29 3.426)" fill="#696a6a"/>
        </g>
        <g id="g74" transform="translate(15.881 12.753)">
          <path id="path76" d="M0-4.788.349-6.246h.793l-.048.2H.532l-.087.365h.562l-.05.208H.394L.282-5H.843l-.051.212Z" transform="translate(0 6.246)" fill="#696a6a"/>
        </g>
        <g id="g78" transform="translate(16.939 12.695)">
          <path id="path80" d="M0-4.978.363-6.493l.689.891c.018.025.037.052.055.081s.037.061.056.1l.242-1.01h.214L1.256-4.921l-.7-.907A.812.812,0,0,1,.5-5.906a.836.836,0,0,1-.045-.086L.212-4.978Z" transform="translate(0 6.493)" fill="#696a6a"/>
        </g>
        <g id="g82" transform="translate(18.686 12.753)">
          <path id="path84" d="M-2-.66-2.3.6h-.231l.3-1.256h-.377l.048-.2h.984l-.048.2Z" transform="translate(2.607 0.861)" fill="#696a6a"/>
        </g>
        <g id="g86" transform="translate(19.534 12.72)">
          <path id="path88" d="M0-3.938l.205-.087a.2.2,0,0,0,.06.149.242.242,0,0,0,.166.051.278.278,0,0,0,.177-.059.275.275,0,0,0,.1-.157Q.739-4.17.555-4.27L.516-4.292A.712.712,0,0,1,.253-4.5a.307.307,0,0,1-.022-.232.5.5,0,0,1,.187-.289.536.536,0,0,1,.335-.111A.433.433,0,0,1,1-5.074a.237.237,0,0,1,.1.179l-.2.1a.219.219,0,0,0-.07-.1.18.18,0,0,0-.109-.032.261.261,0,0,0-.16.05.229.229,0,0,0-.087.134q-.031.131.182.245l.026.014A.608.608,0,0,1,.927-4.3a.312.312,0,0,1,.022.237.571.571,0,0,1-.206.329.588.588,0,0,1-.373.122.4.4,0,0,1-.277-.086A.305.305,0,0,1,0-3.938" transform="translate(0 5.136)" fill="#696a6a"/>
        </g>
        <g id="g90" transform="translate(21.24 12.753)">
          <path id="path92" d="M0-4.788.349-6.246H.58L.231-4.788Z" transform="translate(0 6.246)" fill="#696a6a"/>
        </g>
        <g id="g94" transform="translate(21.803 12.695)">
          <path id="path96" d="M0-4.978.363-6.493l.689.891c.018.025.037.052.055.081s.037.061.056.1l.242-1.01h.213L1.256-4.921l-.7-.907A.812.812,0,0,1,.5-5.906a.852.852,0,0,1-.045-.086L.212-4.978Z" transform="translate(0 6.493)" fill="#696a6a"/>
        </g>
        <g id="g98" transform="translate(23.55 12.753)">
          <path id="path100" d="M-2-.66-2.3.6h-.231l.3-1.256h-.377l.048-.2h.984l-.048.2Z" transform="translate(2.607 0.861)" fill="#696a6a"/>
        </g>
        <g id="g102" transform="translate(24.41 12.753)">
          <path id="path104" d="M0-4.788.349-6.246h.793l-.048.2H.532l-.087.365h.562l-.05.208H.394L.282-5H.843l-.051.212Z" transform="translate(0 6.246)" fill="#696a6a"/>
        </g>
        <g id="g106" transform="translate(25.467 12.753)">
          <path id="path108" d="M-1.416-2.041h.042a.52.52,0,0,0,.254-.044.236.236,0,0,0,.1-.155q.029-.12-.024-.17a.354.354,0,0,0-.227-.049h-.042Zm-.059.184-.156.652h-.216L-1.5-2.662h.322a.918.918,0,0,1,.215.019.256.256,0,0,1,.118.063.253.253,0,0,1,.069.136.438.438,0,0,1-.008.183.534.534,0,0,1-.148.274.469.469,0,0,1-.272.119l.33.663h-.261l-.316-.652Z" transform="translate(1.848 2.662)" fill="#696a6a"/>
        </g>
        <g id="g110" transform="translate(26.58 12.753)">
          <path id="path112" d="M0-4.788.349-6.246h.793l-.048.2H.532l-.087.363h.562l-.05.208H.395l-.164.685Z" transform="translate(0 6.246)" fill="#696a6a"/>
        </g>
        <g id="g114" transform="translate(27.36 12.695)">
          <path id="path116" d="M-2.07-3.1h.4L-1.74-3.43q0-.032-.009-.073c0-.028,0-.058-.005-.092q-.023.048-.046.089t-.045.076Zm.5.572L-1.639-2.9H-2.2l-.255.375H-2.7l1.05-1.515.324,1.515Z" transform="translate(2.699 4.04)" fill="#696a6a"/>
        </g>
        <g id="g118" transform="translate(28.921 12.718)">
          <path id="path120" d="M-4.327-1.279A.509.509,0,0,0-4.5-1.407a.548.548,0,0,0-.219-.043.629.629,0,0,0-.416.153.723.723,0,0,0-.241.4.469.469,0,0,0,.049.389.364.364,0,0,0,.322.153A.725.725,0,0,0-4.757-.4a1.03,1.03,0,0,0,.252-.138l-.064.268a.887.887,0,0,1-.227.1.886.886,0,0,1-.246.034.712.712,0,0,1-.288-.055.5.5,0,0,1-.2-.161.536.536,0,0,1-.1-.246.78.78,0,0,1,.016-.3.987.987,0,0,1,.128-.3,1.023,1.023,0,0,1,.221-.247.981.981,0,0,1,.282-.163.891.891,0,0,1,.309-.055.678.678,0,0,1,.23.037.61.61,0,0,1,.193.113Z" transform="translate(5.644 1.668)" fill="#696a6a"/>
        </g>
        <g id="g122" transform="translate(30.26 12.753)">
          <path id="path124" d="M0-4.788.349-6.246h.793l-.048.2H.532l-.087.365h.562l-.05.208H.394L.282-5H.843l-.051.212Z" transform="translate(0 6.246)" fill="#696a6a"/>
        </g>
        <g id="g126" transform="translate(24.461 3.511)">
          <path id="path128" d="M-5.215-26.2H-6.8L-4.6-34.169h1.587Z" transform="translate(6.803 34.169)" fill="#66686c"/>
        </g>
        <g id="g130" transform="translate(13.775 3.534)">
          <path id="path132" d="M-37.621-.75a.588.588,0,0,0-.51-.228h-8.728L-47.292.583h7.94l-.462,1.669h-6.352v0h-1.587L-49.07,7h1.588l.884-3.193h7.14a1.015,1.015,0,0,0,.63-.228,1.059,1.059,0,0,0,.389-.564l.884-3.193a.648.648,0,0,0-.067-.576" transform="translate(49.07 0.978)" fill="#66686c"/>
        </g>
        <g id="g134" transform="translate(3.356 3.534)">
          <path id="path136" d="M-31.2-24.484a.729.729,0,0,1-.7.534h-8.189a.572.572,0,0,1-.5-.228.634.634,0,0,1-.07-.564l2-7.193h1.589l-1.785,6.424H-32.5l1.785-6.424h1.588Z" transform="translate(40.691 31.936)" fill="#66686c"/>
        </g>
        <g id="g138" transform="translate(28.782 3.525)">
          <path id="path140" d="M-7.278,0l2.01,4-4.224,4Z" transform="translate(9.493)" fill="#66686c"/>
        </g>
        <g id="g142" transform="translate(27.37 3.525)">
          <path id="path144" d="M-7.288,0-5.28,4l-4.226,4Z" transform="translate(9.506)" fill="#a2a2a2"/>
        </g>
      </g>
    </g>
  </g>
</svg>
