<svg xmlns="http://www.w3.org/2000/svg" width="28" height="28" viewBox="0 0 28 28">
  <g id="URM_portal" transform="translate(7492 10825)">
    <rect id="Rectangle_3141" data-name="Rectangle 3141" width="28" height="28" transform="translate(-7492 -10825)" fill="none"/>
    <g id="URM_portal-2" data-name="URM_portal" transform="translate(-8847.757 -11146.444)">
      <path id="Path_5253" data-name="Path 5253" d="M1454.286,332.359a3.972,3.972,0,1,1,3.933,4.051A3.966,3.966,0,0,1,1454.286,332.359Zm3.958-2.768a2.835,2.835,0,1,0,2.862,2.842A2.851,2.851,0,0,0,1458.243,329.591Z" transform="translate(-84.486 -0.997)" fill="#353c40" stroke="#fff" stroke-width="0.2"/>
      <path id="Path_5254" data-name="Path 5254" d="M1436.78,422.98h-1.15c0-.72,0-1.417,0-2.114a3.327,3.327,0,0,0-3.281-3.619q-2.582-.035-5.166,0a3.323,3.323,0,0,0-3.2,3.5c-.008.733,0,1.466,0,2.23h-1.224a25.936,25.936,0,0,1,.276-3.55,4.2,4.2,0,0,1,4.037-3.389c1.819-.022,3.639-.027,5.458,0a4.484,4.484,0,0,1,4.25,4.61C1436.79,421.413,1436.78,422.181,1436.78,422.98Z" transform="translate(-56.035 -79.544)" fill="#353c40" stroke="#fff" stroke-width="0.2"/>
      <rect id="Rectangle_2783" data-name="Rectangle 2783" width="8.248" height="1.1" transform="translate(1358.757 332.455)" fill="#353c40"/>
      <rect id="Rectangle_2784" data-name="Rectangle 2784" width="7.389" height="1.1" transform="translate(1358.757 336.471)" fill="#353c40"/>
      <rect id="Rectangle_2785" data-name="Rectangle 2785" width="6.472" height="1.1" transform="translate(1358.757 340.4)" fill="#353c40"/>
    </g>
  </g>
</svg>
