<svg xmlns="http://www.w3.org/2000/svg" width="24.241" height="13.193" viewBox="0 0 24.241 13.193">
  <g id="view" transform="translate(0 -100.736)">
    <g id="Group_25632" data-name="Group 25632" transform="translate(0 100.736)">
      <path id="Path_58056" data-name="Path 58056" d="M12.121,113.929a14.878,14.878,0,0,1-8.484-3.083,21.477,21.477,0,0,1-3.469-3.064.686.686,0,0,1,0-.9,21.48,21.48,0,0,1,3.469-3.065,14.879,14.879,0,0,1,8.484-3.083,14.878,14.878,0,0,1,8.484,3.083,21.48,21.48,0,0,1,3.469,3.065.686.686,0,0,1,0,.9,21.48,21.48,0,0,1-3.469,3.064A14.878,14.878,0,0,1,12.121,113.929Zm-10.5-6.6a21.636,21.636,0,0,0,2.835,2.417,13.779,13.779,0,0,0,7.66,2.808,13.779,13.779,0,0,0,7.66-2.808,21.637,21.637,0,0,0,2.835-2.417,21.631,21.631,0,0,0-2.835-2.417,13.778,13.778,0,0,0-7.66-2.808,13.778,13.778,0,0,0-7.66,2.808A21.628,21.628,0,0,0,1.625,107.332Z" transform="translate(0 -100.736)" fill="#858585"/>
    </g>
    <g id="Group_25633" data-name="Group 25633" transform="translate(7.871 103.082)">
      <path id="Path_58057" data-name="Path 58057" d="M147.77,152.021a4.25,4.25,0,1,1,2.8-7.448.685.685,0,1,1-.9,1.031,2.879,2.879,0,1,0,.983,2.167.686.686,0,0,1,1.371,0A4.255,4.255,0,0,1,147.77,152.021Z" transform="translate(-143.52 -143.521)" fill="#858585"/>
    </g>
    <g id="Group_25634" data-name="Group 25634" transform="translate(10.75 105.961)">
      <path id="Path_58058" data-name="Path 58058" d="M197.391,198.763a1.371,1.371,0,1,1,1.371-1.371A1.373,1.373,0,0,1,197.391,198.763Z" transform="translate(-196.02 -196.021)" fill="#858585"/>
    </g>
  </g>
</svg>
